<?xml version="1.0" standalone="no"?>
<!DOCTYPE svg PUBLIC "-//W3C//DTD SVG 1.1//EN" "http://www.w3.org/Graphics/SVG/1.1/DTD/svg11.dtd" >
<svg>
<metadata>
Created by FontForge 20120731 at Wed Oct 29 02:30:30 2014
 By Orthosie Webhosting
Copyright (c) 2014 Indian Type Foundry (info@indiantypefoundry.com)
</metadata>
<defs>
<font id="KhandBold" horiz-adv-x="224" >
  <font-face 
    font-family="KhandBold"
    font-weight="700"
    font-stretch="normal"
    units-per-em="1000"
    panose-1="2 0 0 0 0 0 0 0 0 0"
    ascent="800"
    descent="-200"
    x-height="590"
    cap-height="693"
    bbox="-501 -479 1872 1050"
    underline-thickness="50"
    underline-position="-50"
    unicode-range="U+000D-FB02"
  />
<missing-glyph horiz-adv-x="750" 
d="M234 651v-601h282v601h-282zM180 0v701h390v-701h-390z" />
    <glyph glyph-name="fi" unicode="fi" horiz-adv-x="486" 
d="M441 590v-590h-151v472h-76v-472h-152v472h-57v118h57v7q0 169 216 169q63 0 131 -14v-116q-46 12 -102.5 12t-74.5 -11.5t-18 -37.5v-9h227z" />
    <glyph glyph-name="fl" unicode="fl" horiz-adv-x="486" 
d="M441 747v-747h-148v650h-10q-38 0 -54 -12.5t-16 -38.5v-9h52v-118h-51v-472h-152v472h-57v118h57v7q0 83 53 126t153 43q69 0 132 -19h41z" />
    <glyph glyph-name=".notdef" horiz-adv-x="750" 
d="M234 651v-601h282v601h-282zM180 0v701h390v-701h-390z" />
    <glyph glyph-name=".null" horiz-adv-x="0" 
 />
    <glyph glyph-name="nonmarkingreturn" horiz-adv-x="333" 
 />
    <glyph glyph-name="NULL" horiz-adv-x="0" 
 />
    <glyph glyph-name="NULL" horiz-adv-x="0" 
 />
    <glyph glyph-name="CR" unicode="&#xd;" horiz-adv-x="0" 
 />
    <glyph glyph-name="space" unicode=" " horiz-adv-x="186" 
 />
    <glyph glyph-name="exclam" unicode="!" horiz-adv-x="330" 
d="M83 68.5q0 78.5 83.5 78.5t83.5 -78.5t-83.5 -78.5t-83.5 78.5zM85 693h160l-20 -471h-120z" />
    <glyph glyph-name="quotedbl" unicode="&#x22;" horiz-adv-x="490" 
d="M84 777h130v-278h-130v278zM270 777h130v-278h-130v278z" />
    <glyph glyph-name="numbersign" unicode="#" horiz-adv-x="629" 
d="M581 392h-86l-13 -91h69v-118h-86l-26 -183h-132l26 183h-93l-26 -183h-132l26 183h-71v118h88l13 91h-71v118h88l26 183h132l-26 -183h93l26 183h132l-26 -183h69v-118zM350 301l13 91h-93l-13 -91h93z" />
    <glyph glyph-name="dollar" unicode="$" horiz-adv-x="439" 
d="M421 225v-62q0 -127 -139 -158v-58h-142v50q-72 5 -111 21v145q68 -29 154 -29t86 49v15q0 23 -9.5 34.5t-35.5 25.5l-107 58q-97 54 -97 152v63q0 125 127 157v59h142v-51q60 -5 92 -19v-144q-61 26 -139 26q-40 0 -54 -12.5t-14 -35.5v-15q0 -28 9.5 -41.5t41.5 -30.5
l114 -64q82 -45 82 -135z" />
    <glyph glyph-name="percent" unicode="%" horiz-adv-x="721" 
d="M542 -6q-144 0 -144 172t144 172t144 -172t-144 -172zM541 88q42 0 42 78t-42 78t-42 -78t42 -78zM179 355q-144 0 -144 172t144 172t144 -172t-144 -172zM178 449q42 0 42 78t-42 78t-42 -78t42 -78zM472 693h100l-323 -693h-100z" />
    <glyph glyph-name="ampersand" unicode="&#x26;" horiz-adv-x="504" 
d="M497 424v-128h-50v-123q0 -179 -195 -179q-102 0 -150.5 47.5t-48.5 131.5v85q0 86 70 107q-68 23 -68 107v60q0 79 56 123t170 44q85 0 127 -14v-140q-44 17 -106.5 17t-79.5 -12t-17 -36v-39q0 -28 10.5 -39.5t38.5 -11.5h49v66h144v-66h50zM303 177v119h-49
q-27 0 -39 -11.5t-12 -36.5v-71q0 -25 10 -38t39 -13t40 13t11 38z" />
    <glyph glyph-name="quotesingle" unicode="'" horiz-adv-x="310" 
d="M84 777h140v-278h-140v278z" />
    <glyph glyph-name="parenleft" unicode="(" horiz-adv-x="356" 
d="M225 620.5q-32 -134.5 -32 -284t32 -284.5t78 -231h-130q-46 96 -78 231t-32 284.5t32 284t78 231.5h130q-46 -97 -78 -231.5z" />
    <glyph glyph-name="parenright" unicode=")" horiz-adv-x="357" 
d="M260 620.5q32 -134.5 32 -284t-32 -284.5t-78 -231h-130q46 96 78 231t32 284.5t-32 284t-78 231.5h130q46 -97 78 -231.5z" />
    <glyph glyph-name="asterisk" unicode="*" horiz-adv-x="556" 
d="M207 749v89h140v-89q0 -35 -7 -66q25 15 61 27l84 28l43 -133l-84 -28q-36 -11 -66 -13q20 -17 45 -50l52 -71l-113 -82l-53 71q-20 28 -32 57q-11 -25 -33 -57l-52 -71l-113 82l52 72q23 30 45 49q-33 3 -66 14l-84 27l43 133l85 -27q28 -9 60 -27q-7 32 -7 65z" />
    <glyph glyph-name="plus" unicode="+" horiz-adv-x="508" 
d="M460 397v-130h-137v-143h-140v143h-137v130h137v143h140v-143h137z" />
    <glyph glyph-name="comma" unicode="," horiz-adv-x="220" 
d="M136 145q63 0 63 -57q0 -43 -35 -109.5t-69 -111.5h-80l46 278h75z" />
    <glyph glyph-name="hyphen" unicode="-" horiz-adv-x="312" 
d="M41 397h236v-130h-236v130z" />
    <glyph glyph-name="period" unicode="." horiz-adv-x="246" 
d="M38 68.5q0 78.5 83.5 78.5t83.5 -78.5t-83.5 -78.5t-83.5 78.5z" />
    <glyph glyph-name="slash" unicode="/" horiz-adv-x="458" 
d="M294 852h133l-257 -1031h-133z" />
    <glyph glyph-name="zero" unicode="0" horiz-adv-x="469" 
d="M284 518q0 25 -10.5 37.5t-39.5 12.5t-39 -12t-10 -38v-343q0 -25 10 -37.5t39 -12.5t39.5 12.5t10.5 37.5v343zM35 524q0 84 48.5 131.5t150.5 47.5t151 -48t49 -131v-355q0 -83 -49 -131t-151 -48t-150.5 47.5t-48.5 131.5v355z" />
    <glyph glyph-name="one" unicode="1" horiz-adv-x="321" 
d="M276 693v-693h-152v511l-109 -80v165l131 97h130z" />
    <glyph glyph-name="two" unicode="2" horiz-adv-x="442" 
d="M190 698q217 0 217 -168v-59q0 -97 -74 -152l-90 -76q-38 -32 -46.5 -48t-8.5 -50v-13h210v-132h-363v163q0 99 83 163l100 86q22 17 29.5 34.5t7.5 50.5v14q0 23 -14.5 35.5t-52.5 12.5q-76 0 -139 -27v144q60 22 141 22z" />
    <glyph glyph-name="three" unicode="3" horiz-adv-x="421" 
d="M163 699q111 0 166 -44t55 -124v-69q0 -43 -18.5 -71t-49.5 -36q70 -7 70 -97v-96q0 -80 -54 -124t-155.5 -44t-151.5 21v142q61 -26 135.5 -26t74.5 48v58q0 24 -11 32.5t-40 8.5h-78v140h76q51 0 51 49v47q0 48 -72.5 48t-119.5 -18v141q42 14 122 14z" />
    <glyph glyph-name="four" unicode="4" horiz-adv-x="463" 
d="M458 248v-131h-65v-117h-141v117h-242v139l192 437h191v-445h65zM258 248v285l-121 -285h121z" />
    <glyph glyph-name="five" unicode="5" horiz-adv-x="441" 
d="M258 261q0 43 -45 43q-19 0 -168 -9v398h341v-140h-192v-117q17 1 54 1q76 0 118.5 -38.5t42.5 -114.5v-122q0 -168 -216 -168q-81 0 -153 23v140q83 -26 150.5 -26t67.5 48v82z" />
    <glyph glyph-name="six" unicode="6" horiz-adv-x="464" 
d="M235 327q-26 0 -50 -6v-149q0 -25 10 -37.5t39 -12.5t39.5 12.5t10.5 37.5v110q0 45 -49 45zM35 510q0 85 53 136.5t169 51.5q92 0 142 -21v-142q-56 24 -135 24t-79 -66v-46q27 9 82 9q81 0 124 -42t43 -117v-128q0 -83 -49 -131t-151 -48t-150.5 47.5t-48.5 131.5v341z
" />
    <glyph glyph-name="seven" unicode="7" horiz-adv-x="386" 
d="M5 693h366v-121l-87 -261q-31 -91 -31 -207v-104h-152v117q0 131 33 219l68 218h-197v139z" />
    <glyph glyph-name="eight" unicode="8" horiz-adv-x="475" 
d="M440 528v-70q0 -76 -46 -112q46 -37 46 -113v-68q0 -82 -50 -128.5t-152.5 -46.5t-152.5 46t-50 129v68q0 76 46 113q-46 36 -46 112v70q0 83 50 129t152.5 46t152.5 -46.5t50 -128.5zM183 526v-73q0 -50 54.5 -50t54.5 50v73q0 48 -55 48q-30 0 -42 -12t-12 -36z
M292 167v71q0 50 -54.5 50t-54.5 -50v-71q0 -48 54.5 -48t54.5 48z" />
    <glyph glyph-name="nine" unicode="9" horiz-adv-x="464" 
d="M227 356q29 0 52 9v156q0 25 -10 37.5t-39 12.5t-39.5 -12.5t-10.5 -37.5v-116q0 -49 47 -49zM30 524q0 83 49 131t151 48t150.5 -47.5t48.5 -131.5v-361q0 -80 -55.5 -124t-161.5 -44t-156 21v142q61 -26 142 -26t81 48v59q-30 -12 -100 -12t-109.5 42t-39.5 118v137z
" />
    <glyph glyph-name="colon" unicode=":" horiz-adv-x="257" 
d="M38 68.5q0 78.5 83.5 78.5t83.5 -78.5t-83.5 -78.5t-83.5 78.5zM38 419.5q0 78.5 83.5 78.5t83.5 -78.5t-83.5 -78.5t-83.5 78.5z" />
    <glyph glyph-name="semicolon" unicode=";" horiz-adv-x="263" 
d="M38 419.5q0 78.5 83.5 78.5t83.5 -78.5t-83.5 -78.5t-83.5 78.5zM136 145q63 0 63 -57q0 -43 -35 -109.5t-69 -111.5h-80l46 278h75z" />
    <glyph glyph-name="less" unicode="&#x3c;" horiz-adv-x="512" 
d="M459 547v-135l-268 -80l268 -80v-135l-426 150v130z" />
    <glyph glyph-name="equal" unicode="=" horiz-adv-x="499" 
d="M33 295h426v-130h-426v130zM33 499h426v-130h-426v130z" />
    <glyph glyph-name="greater" unicode="&#x3e;" horiz-adv-x="507" 
d="M40 547l427 -150v-130l-427 -150v135l269 80l-269 80v135z" />
    <glyph glyph-name="question" unicode="?" horiz-adv-x="424" 
d="M77 68.5q0 78.5 83.5 78.5t83.5 -78.5t-83.5 -78.5t-83.5 78.5zM165 703q215 0 215 -168v-84q0 -82 -35 -121.5t-118 -39.5l-7 -68h-123l-7 178h59q48 0 67 11t19 43v65q0 26 -13.5 37t-51.5 11q-86 0 -144 -25v142q57 19 139 19z" />
    <glyph glyph-name="at" unicode="@" horiz-adv-x="917" 
d="M557 -139h-93q-275 0 -357 169q-27 55 -37.5 115.5t-10.5 149.5t18 161.5t61 131.5q89 122 327 122q241 0 327 -120q42 -59 58.5 -130.5t16.5 -172.5q0 -153 -53 -216.5t-155 -63.5t-143 63q-36 -17 -90 -17q-110 0 -110 113v28q0 47 19 75.5t61 44.5l95 35v59
q0 15 -7.5 22t-48.5 7t-103 -19v97q57 17 128 17t107 -28.5t36 -89.5v-232q0 -35 15 -50.5t54 -15.5t55 35.5t16 108.5t-1.5 101.5t-7 65t-16.5 58t-31 45t-49 36.5q-68 28 -173 28q-103 0 -156 -24q-28 -12 -49 -26.5t-34.5 -37.5t-22 -44.5t-12.5 -53.5q-6 -48 -6 -107.5
t1.5 -89.5t8 -65t18 -57.5t32 -45.5t49.5 -36q66 -29 171 -29h92v-117zM433 150.5q5 -4.5 20.5 -4.5t37.5 8v97l-37 -13q-16 -6 -21 -14t-5 -26v-31q0 -12 5 -16.5z" />
    <glyph glyph-name="A" unicode="A" horiz-adv-x="489" 
d="M341 0l-29 160h-137l-27 -160h-143l136 693h209l134 -693h-143zM196 287h94l-48 268z" />
    <glyph glyph-name="B" unicode="B" horiz-adv-x="493" 
d="M452 534v-65q0 -97 -71 -119q77 -18 77 -120v-71q0 -159 -170 -159h-243v693h237q170 0 170 -159zM257 567h-62v-151h62q47 0 47 43v65q0 43 -47 43zM310 169v71q0 43 -47 43h-68v-157h68q47 0 47 43z" />
    <glyph glyph-name="C" unicode="C" horiz-adv-x="412" 
d="M35 529q0 80 55.5 124.5t167.5 44.5q74 0 126 -14v-138q-56 17 -110.5 17t-70.5 -12.5t-16 -36.5v-336q0 -48 75.5 -48t124.5 15v-135q-54 -15 -131 -15q-112 0 -166.5 44t-54.5 124v366z" />
    <glyph glyph-name="D" unicode="D" horiz-adv-x="493" 
d="M308 533q0 18 -8.5 27.5t-32.5 9.5h-72v-441h72q41 0 41 46v358zM45 693h243q81 0 125.5 -39t44.5 -115v-376q0 -163 -161 -163h-252v693z" />
    <glyph glyph-name="E" unicode="E" horiz-adv-x="421" 
d="M45 693h351v-130h-201v-147h174v-130h-174v-156h201v-130h-351v693z" />
    <glyph glyph-name="F" unicode="F" horiz-adv-x="403" 
d="M45 693h343v-131h-191v-171h176v-134h-176v-257h-152v693z" />
    <glyph glyph-name="G" unicode="G" horiz-adv-x="468" 
d="M35 526q0 79 60.5 125.5t172.5 46.5q84 0 141 -19v-142q-60 23 -120 23t-81 -14t-21 -38v-329q0 -24 15 -36.5t44.5 -12.5t45.5 8v234h146v-335q-78 -42 -185 -42t-162.5 44t-55.5 124v363z" />
    <glyph glyph-name="H" unicode="H" horiz-adv-x="532" 
d="M335 693h152v-693h-152v274h-138v-274h-152v693h152v-285h138v285z" />
    <glyph glyph-name="I" unicode="I" horiz-adv-x="242" 
d="M45 693h152v-693h-152v693z" />
    <glyph glyph-name="J" unicode="J" horiz-adv-x="247" 
d="M50 693h152v-485q0 -82 -7 -132.5t-28 -121.5l-31 -103h-159l30 103q43 147 43 253v486z" />
    <glyph glyph-name="K" unicode="K" horiz-adv-x="486" 
d="M195 0h-150v693h150v-312l114 312h160l-127 -335l139 -358h-167l-119 331v-331z" />
    <glyph glyph-name="L" unicode="L" horiz-adv-x="387" 
d="M45 693h152v-567h185v-126h-337v693z" />
    <glyph glyph-name="M" unicode="M" horiz-adv-x="649" 
d="M604 693v-693h-145v241q0 104 19 205l-96 -270h-116l-96 270q19 -93 19 -205v-241h-144v693h154l125 -354l125 354h155z" />
    <glyph glyph-name="N" unicode="N" horiz-adv-x="532" 
d="M339 693h148v-693h-144q-148 378 -171 456q21 -79 21 -272v-184h-148v693h148l91 -232q58 -149 78 -226q-23 97 -23 284v174z" />
    <glyph glyph-name="O" unicode="O" horiz-adv-x="489" 
d="M304 516q0 50 -59.5 50t-59.5 -50v-339q0 -50 59.5 -50t59.5 50v339zM35 524q0 82 53 130.5t156 48.5t156.5 -48.5t53.5 -130.5v-355q0 -82 -53.5 -130.5t-156.5 -48.5t-156 48.5t-53 130.5v355z" />
    <glyph glyph-name="P" unicode="P" horiz-adv-x="470" 
d="M295 521q0 42 -43 42h-56v-233h56q43 0 43 42v149zM45 693h226q81 0 127.5 -39t46.5 -115v-185q0 -76 -46.5 -115t-127.5 -39h-75v-200h-151v693z" />
    <glyph glyph-name="Q" unicode="Q" horiz-adv-x="489" 
d="M244 -10q-103 0 -156 48.5t-53 130.5v355q0 82 53 130.5t156 48.5t156.5 -48.5t53.5 -130.5v-355q0 -90 -62 -137l116 -119h-177l-74 77h-13zM185 516v-339q0 -50 59.5 -50t59.5 50v339q0 50 -59.5 50t-59.5 -50z" />
    <glyph glyph-name="R" unicode="R" horiz-adv-x="482" 
d="M195 250v-250h-150v693h226q82 0 128 -39t46 -114v-128q0 -120 -82 -150l109 -262h-165l-93 250h-19zM195 565v-196h59q23 0 32 10t9 35v113q0 22 -10 30t-31 8h-59z" />
    <glyph glyph-name="S" unicode="S" horiz-adv-x="439" 
d="M20 531q0 80 54 123.5t155.5 43.5t151.5 -21v-144q-61 26 -139 26q-40 0 -54 -12.5t-14 -35.5v-15q0 -28 9.5 -41.5t41.5 -30.5l114 -64q82 -45 82 -135v-62q0 -81 -60 -124.5t-168.5 -43.5t-163.5 23v145q68 -29 154 -29t86 49v15q0 23 -9.5 34.5t-35.5 25.5l-107 58
q-97 54 -97 152v63z" />
    <glyph glyph-name="T" unicode="T" horiz-adv-x="412" 
d="M407 693v-130h-125v-563h-152v563h-125v130h402z" />
    <glyph glyph-name="U" unicode="U" horiz-adv-x="495" 
d="M305 693h150v-524q0 -82 -52.5 -130.5t-155 -48.5t-155 48t-52.5 131v524h150v-516q0 -50 57.5 -50t57.5 50v516z" />
    <glyph glyph-name="V" unicode="V" horiz-adv-x="485" 
d="M324 693h156l-132 -693h-209l-134 693h153q58 -331 67 -400t20 -163q19 179 33 268z" />
    <glyph glyph-name="W" unicode="W" horiz-adv-x="593" 
d="M459 693h129l-92 -693h-134l-41 274l-22 191q-8 -111 -20 -191l-42 -274h-143l-89 693h131q38 -273 42 -319t7 -100q15 138 50 419h127l47 -412q5 100 17 184z" />
    <glyph glyph-name="X" unicode="X" horiz-adv-x="468" 
d="M301 693h162l-149 -348l149 -345h-163l-64 189l-68 -189h-163l148 345l-148 348h162l69 -191z" />
    <glyph glyph-name="Y" unicode="Y" horiz-adv-x="482" 
d="M317 0h-152v215l-165 478h154l33 -105q39 -123 56 -218q19 97 57 220l32 103h150l-165 -478v-215z" />
    <glyph glyph-name="Z" unicode="Z" horiz-adv-x="425" 
d="M24 693h377v-121l-224 -445h228v-127h-385v127l218 439h-214v127z" />
    <glyph glyph-name="bracketleft" unicode="[" horiz-adv-x="374" 
d="M209 -65h120v-118h-241v1052h241v-117h-120v-817z" />
    <glyph glyph-name="backslash" unicode="\" horiz-adv-x="487" 
d="M39 869h139l271 -1052h-140z" />
    <glyph glyph-name="bracketright" unicode="]" horiz-adv-x="374" 
d="M44 869h241v-1052h-241v118h120v817h-120v117z" />
    <glyph glyph-name="asciicircum" unicode="^" horiz-adv-x="441" 
d="M439 400h-149l-70 233l-71 -233h-149l136 337h168z" />
    <glyph glyph-name="underscore" unicode="_" horiz-adv-x="565" 
d="M10 0h545l-1 -120h-544v120z" />
    <glyph glyph-name="grave" unicode="`" horiz-adv-x="350" 
d="M98 747h110l44 -115h-79z" />
    <glyph glyph-name="a" unicode="a" horiz-adv-x="437" 
d="M167 171v-28q0 -34 35 -34q30 0 50 11v121l-46 -12q-25 -7 -32 -18t-7 -40zM50 576q55 19 157 19t146 -44.5t44 -134.5v-416h-141v43q-29 -45 -101 -45t-104 34.5t-32 110.5v34q0 67 29.5 103t95.5 54l109 28v55q-1 26 -15 36.5t-51 10.5q-83 0 -137 -21v133z" />
    <glyph glyph-name="b" unicode="b" horiz-adv-x="463" 
d="M275 430q0 24 -30.5 24t-48.5 -11v-304h40q39 0 39 32v259zM45 747h151v-169q43 15 103 15t94.5 -31.5t34.5 -94.5v-320q0 -75 -41.5 -111t-111.5 -36h-230v747z" />
    <glyph glyph-name="c" unicode="c" horiz-adv-x="376" 
d="M35 421q0 174 196 174q70 0 125 -15v-139q-53 16 -94.5 16t-58.5 -10.5t-17 -38.5v-226q0 -28 17 -38.5t58.5 -10.5t94.5 16v-139q-55 -15 -125 -15q-196 0 -196 174v252z" />
    <glyph glyph-name="d" unicode="d" horiz-adv-x="462" 
d="M266 456h-33q-47 0 -47 -50v-247q0 -26 30 -26t50 12v311zM265 747h152v-747h-147v42q-36 -46 -102.5 -46t-99.5 36t-33 100v279q0 84 46 131.5t140 47.5h44v157z" />
    <glyph glyph-name="e" unicode="e" horiz-adv-x="432" 
d="M35 168v271q0 76 47 118.5t142 42.5q183 0 183 -161v-203h-227v-56q0 -30 16.5 -42.5t73 -12.5t123.5 20v-132q-70 -19 -150 -19q-208 0 -208 174zM180 351h88v86q0 38 -44 38t-44 -38v-86z" />
    <glyph glyph-name="f" unicode="f" horiz-adv-x="295" 
d="M62 597q0 169 178 169q23 0 55 -5v-116q-16 2 -30 2q-51 0 -51 -48v-9h81v-118h-81v-472h-152v472h-57v118h57v7z" />
    <glyph glyph-name="g" unicode="g" horiz-adv-x="456" 
d="M451 525h-35q-8 0 -22 -2q19 -32 19 -80v-86q0 -74 -46 -115t-139 -43q-26 0 -26 -22q0 -13 8.5 -17.5t31.5 -4.5h55q77 0 114.5 -30.5t37.5 -95.5v-25q0 -73 -53 -113.5t-158 -40.5h-37q-64 0 -113 13.5t-73 30.5v137q28 -22 78 -38.5t104 -16.5h21q52 0 71.5 7.5
t19.5 24.5v5q0 20 -34 20h-61q-72 0 -108 21t-36 68v16q0 63 56 73q-103 34 -103 146v86q0 75 48.5 116t146.5 41q65 0 109 -18q23 77 108 77h16v-134zM263 358v84q0 39 -45 39t-45 -39v-84q0 -39 45 -39t45 39z" />
    <glyph glyph-name="h" unicode="h" horiz-adv-x="463" 
d="M45 747h151v-167q40 14 85 14q142 0 142 -127v-467h-153v430q0 24 -28.5 24t-45.5 -10v-444h-151v747z" />
    <glyph glyph-name="i" unicode="i" horiz-adv-x="241" 
d="M37 685.5q0 78.5 83.5 78.5t83.5 -78.5t-83.5 -78.5t-83.5 78.5zM45 574h151v-574h-151v574z" />
    <glyph glyph-name="j" unicode="j" horiz-adv-x="241" 
d="M37 685.5q0 78.5 83.5 78.5t83.5 -78.5t-83.5 -78.5t-83.5 78.5zM45 574h151v-542q0 -82 -45.5 -133.5t-133.5 -51.5q-23 0 -36 4v138q16 -2 23 -2q41 0 41 45v542z" />
    <glyph glyph-name="k" unicode="k" horiz-adv-x="434" 
d="M191 0h-146v747h146v-402l74 245h149l-85 -279l100 -311h-158l-80 290v-290z" />
    <glyph glyph-name="l" unicode="l" horiz-adv-x="241" 
d="M45 747h151v-747h-151v747z" />
    <glyph glyph-name="m" unicode="m" horiz-adv-x="690" 
d="M391 559q65 34 127.5 34t97 -31.5t34.5 -94.5v-467h-153v430q0 24 -26.5 24t-48.5 -13q1 -2 1 -10v-431h-153v430q0 24 -26 24t-48 -13v-441h-151v590h142v-26q53 29 111.5 29t92.5 -34z" />
    <glyph glyph-name="n" unicode="n" horiz-adv-x="463" 
d="M187 564q53 29 110 29t91.5 -31.5t34.5 -94.5v-467h-153v430q0 24 -26 24t-48 -13v-441h-151v590h142v-26z" />
    <glyph glyph-name="o" unicode="o" horiz-adv-x="450" 
d="M267 434q0 38 -42 38t-42 -38v-278q0 -38 42 -38t42 38v278zM35 439q0 76 47.5 118.5t142.5 42.5t142.5 -42.5t47.5 -118.5v-288q0 -76 -47.5 -118.5t-142.5 -42.5t-142.5 42.5t-47.5 118.5v288z" />
    <glyph glyph-name="p" unicode="p" horiz-adv-x="463" 
d="M275 430q0 24 -28.5 24t-50.5 -13v-302h40q39 0 39 32v259zM187 564q53 29 112.5 29t94 -31.5t34.5 -94.5v-320q0 -75 -41.5 -111t-111.5 -36h-79v-149h-151v739h142v-26z" />
    <glyph glyph-name="q" unicode="q" horiz-adv-x="462" 
d="M266 456h-33q-47 0 -47 -51v-239q0 -31 33 -31q22 0 47 10v311zM221 590h196v-739h-151v162q-36 -13 -91 -13q-140 0 -140 149v262q0 84 46 131.5t140 47.5z" />
    <glyph glyph-name="r" unicode="r" horiz-adv-x="322" 
d="M300 593h17v-139h-23q-56 0 -98 -20v-434h-151v590h142v-40q51 31 71.5 37t41.5 6z" />
    <glyph glyph-name="s" unicode="s" horiz-adv-x="388" 
d="M22 434q0 80 48.5 120.5t156.5 40.5q74 0 122 -15v-133q-45 15 -98.5 15t-68 -9t-14.5 -29v-8q0 -12 7.5 -20.5t32.5 -25.5l81 -54q38 -25 58.5 -55t20.5 -75v-25q0 -166 -218 -166q-76 0 -130 13v135q47 -14 104 -14t75.5 9.5t18.5 28.5v9q0 15 -10 24q-12 12 -115 80
q-71 48 -71 128v26z" />
    <glyph glyph-name="t" unicode="t" horiz-adv-x="319" 
d="M247 127q31 0 57 14v-134q-34 -16 -89 -16q-85 0 -121 40t-36 116v316h-53v127h60l46 102h98v-102h89v-127h-89v-300q0 -36 38 -36z" />
    <glyph glyph-name="u" unicode="u" horiz-adv-x="467" 
d="M271 590h151v-590h-142v27q-49 -27 -111.5 -27t-95.5 34t-33 98v458h153v-428q0 -26 29 -26t49 12v442z" />
    <glyph glyph-name="v" unicode="v" horiz-adv-x="438" 
d="M285 590h148l-124 -590h-176l-128 590h151l34 -182q28 -152 32 -289q2 121 31 286z" />
    <glyph glyph-name="w" unicode="w" horiz-adv-x="624" 
d="M466 590h153l-91 -590h-169l-23 211l-21 175l-46 -386h-168l-96 590h157l31 -395l52 395h137l55 -397z" />
    <glyph glyph-name="x" unicode="x" horiz-adv-x="409" 
d="M239 590h164l-122 -292l123 -298h-165l-34 157l-36 -157h-164l119 298l-118 292h163l36 -148z" />
    <glyph glyph-name="y" unicode="y" horiz-adv-x="448" 
d="M293 590h145l-140 -739h-146l28 149h-52l-118 590h148q48 -255 57 -328.5t12 -142.5q5 121 34 286z" />
    <glyph glyph-name="z" unicode="z" horiz-adv-x="364" 
d="M23 590h318v-90l-155 -374h158v-126h-324v92l159 372h-156v126z" />
    <glyph glyph-name="braceleft" unicode="{" horiz-adv-x="412" 
d="M258 684v-187q0 -70 -20 -109.5t-73 -50.5q53 -10 73 -46t20 -105v-198q0 -39 39 -39h45v-129h-56q-75 0 -116.5 48t-41.5 127v218q0 59 -69 59h-5v129h5q69 0 69 59v217q0 79 41.5 127t116.5 48h56v-129h-45q-39 0 -39 -39z" />
    <glyph glyph-name="bar" unicode="|" 
d="M61 880h100v-1070h-100v1070z" />
    <glyph glyph-name="braceright" unicode="}" horiz-adv-x="409" 
d="M347 401h5v-129h-5q-69 0 -69 -59v-218q0 -79 -41.5 -127t-116.5 -48h-56v129h45q39 0 39 39v198q0 69 20 105t73 46q-53 11 -73 50.5t-20 109.5v187q0 39 -39 39h-45v129h56q75 0 116.5 -48t41.5 -127v-217q0 -59 69 -59z" />
    <glyph glyph-name="asciitilde" unicode="~" horiz-adv-x="625" 
d="M591 442q6 -26 6 -67t-18 -73t-49 -45q-61 -26 -148 3l-142 48q-35 15 -58.5 3.5t-16.5 -51.5h-135q-5 29 -5 68.5t18 71.5t49 45q61 26 148 -3l142 -48q35 -15 58.5 -3.5t16.5 51.5h134z" />
    <glyph glyph-name="uni00A0" unicode="&#xa0;" horiz-adv-x="186" 
 />
    <glyph glyph-name="exclamdown" unicode="&#xa1;" horiz-adv-x="330" 
d="M245 -103h-160l20 471h120zM83 521.5q0 78.5 83.5 78.5t83.5 -78.5t-83.5 -78.5t-83.5 78.5z" />
    <glyph glyph-name="cent" unicode="&#xa2;" horiz-adv-x="379" 
d="M358 441q-53 16 -94.5 16t-58.5 -10.5t-17 -38.5v-226q0 -28 17 -38.5t58.5 -10.5t94.5 16v-139q-31 -9 -65 -12v-65h-140v71q-116 32 -116 165v252q0 137 122 166v68h140v-63q27 -3 59 -12v-139z" />
    <glyph glyph-name="sterling" unicode="&#xa3;" horiz-adv-x="520" 
d="M462 130v-130h-407v127q31 10 47 30.5t16 62.5v67h-63v128h63v81q0 100 57 151t162 51q75 0 114 -13v-139q-46 15 -95.5 15t-68.5 -18.5t-19 -58.5v-69h137v-128h-137v-44q0 -46 -10.5 -69.5t-35.5 -43.5h240z" />
    <glyph glyph-name="currency" unicode="&#xa4;" horiz-adv-x="460" 
d="M435 404v-115q0 -52 -19 -90l48 -48l-85 -85l-57 57q-36 -13 -87 -13t-93 13l-56 -57l-85 85l49 49q-19 37 -19 89v115q0 52 19 90l-48 48l85 85l56 -57q36 13 87.5 13t93.5 -13l56 57l85 -85l-49 -49q19 -37 19 -89zM176 399v-105q0 -53 57 -53t57 53v105q0 53 -57 53
t-57 -53z" />
    <glyph glyph-name="yen" unicode="&#xa5;" horiz-adv-x="562" 
d="M511 445v-117h-115l-20 -56h135v-117h-154v-155h-152v155h-161v117h141l-19 56h-122v117h81l-85 248h154l56 -182l33 -114l33 114l56 182h150l-86 -248h75z" />
    <glyph glyph-name="brokenbar" unicode="&#xa6;" horiz-adv-x="225" 
d="M61 200h100v-390h-100v390zM61 880h100v-390h-100v390z" />
    <glyph glyph-name="section" unicode="&#xa7;" horiz-adv-x="404" 
d="M182 281v-27q0 -11 8 -20q11 -10 116 -80q38 -25 58.5 -55t20.5 -75v-8q0 -166 -218 -166q-76 0 -130 13v135q47 -14 104.5 -14t75.5 7.5t18 22t-11 24.5q-11 12 -114 80q-71 48 -71 128v35h143zM32 538q0 80 48.5 120.5t156.5 40.5q74 0 122 -15v-133q-45 15 -98.5 15
t-68 -8t-14.5 -22.5t7.5 -22.5t31.5 -23l82 -51q79 -49 79 -130v-35h-146v25q0 13 -10 23q-14 14 -51 36l-68 45q-71 48 -71 128v7z" />
    <glyph glyph-name="dieresis" unicode="&#xa8;" horiz-adv-x="350" 
d="M261 635q-58 0 -58 54.5t58 54.5t58 -54.5t-58 -54.5zM90 635q-58 0 -58 54.5t58 54.5t58 -54.5t-58 -54.5z" />
    <glyph glyph-name="copyright" unicode="&#xa9;" horiz-adv-x="708" 
d="M562 258q3 30 3 74.5t-1.5 68.5t-7.5 55t-19.5 48t-36.5 33.5t-59.5 23.5t-86.5 7t-86 -7t-59 -23.5t-36.5 -34t-20.5 -47.5q-9 -45 -9 -107.5t2.5 -91.5t14 -62.5t33.5 -50.5q52 -42 161 -42t160 42q40 34 48 114zM362 515q44 0 78 -10v-89q-44 7 -71.5 7t-34 -6.5
t-6.5 -21.5v-117q0 -15 6.5 -21.5t37 -6.5t68.5 6v-88q-28 -10 -78 -10q-136 0 -136 117v123q0 117 136 117zM48.5 199.5q-13.5 56.5 -13.5 135t14 136t48 104.5q69 96 257 96q219 0 282 -133q37 -78 37 -203q0 -77 -14 -134t-48 -105q-69 -96 -257 -96q-190 0 -258 96
q-34 47 -47.5 103.5z" />
    <glyph glyph-name="ordfeminine" unicode="&#xaa;" horiz-adv-x="332" 
d="M130 421v-20q0 -18 8 -26.5t31 -8.5t43 10v108l-44 -16q-38 -13 -38 -47zM165 744q142 0 142 -113v-347h-95v37q-29 -32 -77 -32q-100 0 -100 110v32q0 45 27 70t88 46l62 21v60q0 30 -53 30t-104 -14v86q46 14 110 14z" />
    <glyph glyph-name="guillemotleft" unicode="&#xab;" horiz-adv-x="640" 
d="M181 505h150l-122 -183l122 -183h-150l-121 183zM415 505h150l-122 -183l122 -183h-150l-121 183z" />
    <glyph glyph-name="logicalnot" unicode="&#xac;" horiz-adv-x="532" 
d="M44 408h443v-248h-152v114h-291v134z" />
    <glyph glyph-name="uni00AD" unicode="&#xad;" horiz-adv-x="312" 
d="M41 397h236v-130h-236v130z" />
    <glyph glyph-name="registered" unicode="&#xae;" horiz-adv-x="606" 
d="M146 712q51 65 184.5 65t183.5 -63.5t50 -185.5q0 -114 -45 -177q-51 -72 -189 -72q-139 0 -190 71q-45 63 -45 180t51 182zM251 352.5q32 -9.5 78.5 -9.5t78.5 9.5t49 24t26.5 41t11.5 49.5t2 59t-1 55t-6 44t-16 38.5t-29 26.5q-33 24 -115 24q-86 0 -130 -34
q-17 -13 -26 -40.5t-10.5 -49.5t-1.5 -61.5t2 -62.5t11 -49.5t26.5 -40.5t49.5 -23.5zM241 671h85q103 0 103 -90q0 -53 -33 -76l45 -116h-71l-32 99h-31v-99h-66v282zM307 542h13q26 0 35 7.5t9 31t-9 30t-30 6.5h-18v-75z" />
    <glyph glyph-name="macron" unicode="&#xaf;" horiz-adv-x="350" 
d="M41 728h267v-77h-267v77z" />
    <glyph glyph-name="degree" unicode="&#xb0;" horiz-adv-x="440" 
d="M273 674q0 69 -54 69q-29 0 -41 -17t-12 -52t12 -52t41 -17q54 0 54 69zM42 674q0 84 43.5 133t134 49t134 -49t43.5 -133t-43.5 -133t-134 -49t-134 49t-43.5 133z" />
    <glyph glyph-name="plusminus" unicode="&#xb1;" horiz-adv-x="498" 
d="M460 130l1 -130h-414l-1 130h414zM183 174v93h-137v130h137v93h140v-93h137v-130h-137v-93h-140z" />
    <glyph glyph-name="twosuperior" unicode="&#xb2;" horiz-adv-x="300" 
d="M155 744q121 0 121 -110v-48q0 -53 -43 -85l-71 -53q-21 -15 -26 -23t-5 -28v-21h143v-87h-239v116q0 61 47 95l78 56q14 11 17.5 19t3.5 28v28q0 27 -30 27q-54 0 -107 -13v87q36 12 111 12z" />
    <glyph glyph-name="threesuperior" unicode="&#xb3;" horiz-adv-x="290" 
d="M136 744q121 0 121 -110v-50q0 -48 -32 -68q32 -21 32 -71v-51q0 -110 -121 -110q-75 0 -111 12v87q53 -13 107 -13q30 0 30 27v48q0 13 -5.5 19.5t-21.5 6.5h-50v87h50q27 0 27 26v47q0 27 -30 27q-54 0 -107 -13v87q36 12 111 12z" />
    <glyph glyph-name="acute" unicode="&#xb4;" horiz-adv-x="350" 
d="M142 747h110l-75 -115h-79z" />
    <glyph glyph-name="uni00B5" unicode="&#xb5;" horiz-adv-x="465" 
d="M278 27q-46 -26 -87 -26v-149h-153v738h153v-451q6 -2 31 -2t47 11v442h151v-590h-142v27z" />
    <glyph glyph-name="paragraph" unicode="&#xb6;" horiz-adv-x="463" 
d="M231 693h177v-693h-152v388h-25q-81 0 -127.5 39t-46.5 114t46.5 113.5t127.5 38.5z" />
    <glyph glyph-name="periodcentered" unicode="&#xb7;" horiz-adv-x="287" 
d="M67 346q0 75 75 75t75 -75t-75 -75t-75 75z" />
    <glyph glyph-name="cedilla" unicode="&#xb8;" horiz-adv-x="350" 
d="M232.5 -57q18.5 -16 18.5 -52t-27.5 -59t-63 -23t-62.5 6v66q12 -5 39 -5t27 22.5t-32 24.5h-11l18 83h64l-10 -45q21 -2 39.5 -18z" />
    <glyph glyph-name="onesuperior" unicode="&#xb9;" horiz-adv-x="213" 
d="M178 737v-449h-94v344l-76 -54v105l76 54h94z" />
    <glyph glyph-name="ordmasculine" unicode="&#xba;" horiz-adv-x="320" 
d="M211 631q0 27 -37 27t-37 -27v-232q0 -27 37 -27t37 27v232zM42 629q0 117 132 117t132 -117v-228q0 -117 -132 -117t-132 117v228z" />
    <glyph glyph-name="guillemotright" unicode="&#xbb;" horiz-adv-x="637" 
d="M60 505h150l121 -183l-121 -183h-150l122 183zM294 505h150l121 -183l-121 -183h-150l122 183z" />
    <glyph glyph-name="onequarter" unicode="&#xbc;" horiz-adv-x="829" 
d="M540 693h95l-403 -693h-95zM643 160v208l-72 -208h72zM737 449v-289h42v-84h-42v-76h-94v76h-159v89l106 284h147zM210 693v-449h-94v344l-76 -54v105l76 54h94z" />
    <glyph glyph-name="onehalf" unicode="&#xbd;" horiz-adv-x="841" 
d="M540 693h95l-403 -693h-95zM210 693v-449h-94v344l-76 -54v105l76 54h94zM653 455q121 0 121 -110v-48q0 -53 -43 -85l-71 -53q-21 -15 -26 -23t-5 -28v-21h143v-87h-239v116q0 61 47 95l78 56q14 11 17.5 19t3.5 28v28q0 27 -30 27q-54 0 -107 -13v87q36 12 111 12z" />
    <glyph glyph-name="threequarters" unicode="&#xbe;" horiz-adv-x="851" 
d="M151 699q121 0 121 -110v-50q0 -48 -32 -68q32 -21 32 -71v-51q0 -110 -121 -110q-75 0 -111 12v87q53 -13 107 -13q30 0 30 27v48q0 13 -5.5 19.5t-21.5 6.5h-50v87h50q27 0 27 26v47q0 27 -30 27q-54 0 -107 -13v87q36 12 111 12zM562 693h95l-403 -693h-95zM665 160
v208l-72 -208h72zM759 449v-289h42v-84h-42v-76h-94v76h-159v89l106 284h147z" />
    <glyph glyph-name="questiondown" unicode="&#xbf;" horiz-adv-x="424" 
d="M329 522.5q0 -78.5 -83.5 -78.5t-83.5 78.5t83.5 78.5t83.5 -78.5zM241 -112q-215 0 -215 168v84q0 82 35 121.5t118 39.5l7 68h123l7 -178h-59q-48 0 -67 -11t-19 -43v-65q0 -26 13.5 -37t51.5 -11q86 0 144 25v-142q-57 -19 -139 -19z" />
    <glyph glyph-name="Agrave" unicode="&#xc0;" horiz-adv-x="489" 
d="M341 0l-29 160h-137l-27 -160h-143l136 693h209l134 -693h-143zM196 287h94l-48 268zM282 732h-79l-75 115h110z" />
    <glyph glyph-name="Aacute" unicode="&#xc1;" horiz-adv-x="489" 
d="M341 0l-29 160h-137l-27 -160h-143l136 693h209l134 -693h-143zM196 287h94l-48 268zM352 847l-75 -115h-79l44 115h110z" />
    <glyph glyph-name="Acircumflex" unicode="&#xc2;" horiz-adv-x="489" 
d="M341 0l-29 160h-137l-27 -160h-143l136 693h209l134 -693h-143zM196 287h94l-48 268zM250 786l-41 -54h-73l60 115h107l60 -115h-73z" />
    <glyph glyph-name="Atilde" unicode="&#xc3;" horiz-adv-x="489" 
d="M341 0l-29 160h-137l-27 -160h-143l136 693h209l134 -693h-143zM196 287h94l-48 268zM171 736v-3h-79v2q2 108 89 108q30 0 62.5 -19.5t41.5 -19.5q21 0 21 36v4h79v-5q-1 -49 -23 -77t-66 -28q-27 0 -61 19.5t-43 19.5q-21 0 -21 -37z" />
    <glyph glyph-name="Adieresis" unicode="&#xc4;" horiz-adv-x="489" 
d="M341 0l-29 160h-137l-27 -160h-143l136 693h209l134 -693h-143zM196 287h94l-48 268zM157 735q-58 0 -58 54.5t58 54.5t58 -54.5t-58 -54.5zM328 735q-58 0 -58 54.5t58 54.5t58 -54.5t-58 -54.5z" />
    <glyph glyph-name="Aring" unicode="&#xc5;" horiz-adv-x="489" 
d="M341 0l-29 160h-137l-27 -160h-143l136 693h209l134 -693h-143zM196 287h94l-48 268zM242 709q-38 0 -59.5 23t-21.5 57t21.5 56.5t59.5 22.5t59.5 -22.5t21.5 -57t-21.5 -57t-59.5 -22.5zM242 817q-13 0 -20.5 -8t-7.5 -20q0 -29 28 -29t28 29q0 12 -7.5 20t-20.5 8z
" />
    <glyph glyph-name="AE" unicode="&#xc6;" horiz-adv-x="725" 
d="M696 563h-201v-147h174v-130h-174v-156h201v-130h-341v160h-153l-57 -160h-145l266 693h430v-130zM355 287v302l-108 -302h108z" />
    <glyph glyph-name="Ccedilla" unicode="&#xc7;" horiz-adv-x="412" 
d="M294.5 -57q18.5 -16 18.5 -52t-27.5 -59t-63 -23t-62.5 6v66q12 -5 39 -5t27 22.5t-32 24.5h-11l16 75q-164 22 -164 165v366q0 80 55.5 124.5t167.5 44.5q74 0 126 -14v-138q-56 17 -110.5 17t-70.5 -12.5t-16 -36.5v-336q0 -48 75.5 -48t124.5 15v-135
q-47 -13 -124 -15l-8 -34q21 -2 39.5 -18z" />
    <glyph glyph-name="Egrave" unicode="&#xc8;" horiz-adv-x="421" 
d="M108 847h110l44 -115h-79zM45 693h351v-130h-201v-147h174v-130h-174v-156h201v-130h-351v693z" />
    <glyph glyph-name="Eacute" unicode="&#xc9;" horiz-adv-x="421" 
d="M45 693h351v-130h-201v-147h174v-130h-174v-156h201v-130h-351v693zM221 847h110l-75 -115h-79z" />
    <glyph glyph-name="Ecircumflex" unicode="&#xca;" horiz-adv-x="421" 
d="M396 563h-201v-147h174v-130h-174v-156h201v-130h-351v693h351v-130zM214 786l-41 -54h-73l60 115h107l60 -115h-73z" />
    <glyph glyph-name="Edieresis" unicode="&#xcb;" horiz-adv-x="421" 
d="M45 693h351v-130h-201v-147h174v-130h-174v-156h201v-130h-351v693zM307 735q-58 0 -58 54.5t58 54.5t58 -54.5t-58 -54.5zM136 735q-58 0 -58 54.5t58 54.5t58 -54.5t-58 -54.5z" />
    <glyph glyph-name="Igrave" unicode="&#xcc;" horiz-adv-x="421" 
d="M105 847h110l44 -115h-79zM45 693h351v-130h-201v-147h174v-130h-174v-156h201v-130h-351v693z" />
    <glyph glyph-name="Iacute" unicode="&#xcd;" horiz-adv-x="421" 
d="M45 693h351v-130h-201v-147h174v-130h-174v-156h201v-130h-351v693zM222 847h110l-75 -115h-79z" />
    <glyph glyph-name="Icircumflex" unicode="&#xce;" horiz-adv-x="242" 
d="M45 0v693h152v-693h-152zM121 786l-41 -54h-73l60 115h107l60 -115h-73z" />
    <glyph glyph-name="Idieresis" unicode="&#xcf;" horiz-adv-x="242" 
d="M206 735q-58 0 -58 54.5t58 54.5t58 -54.5t-58 -54.5zM35 735q-58 0 -58 54.5t58 54.5t58 -54.5t-58 -54.5zM45 693h152v-693h-152v693z" />
    <glyph glyph-name="Eth" unicode="&#xd0;" horiz-adv-x="499" 
d="M55 693h243q81 0 125.5 -39t44.5 -115v-376q0 -163 -161 -163h-252v279h-64v124h64v290zM318 175v358q0 18 -8.5 27.5t-32.5 9.5h-72v-167h56v-124h-56v-150h72q41 0 41 46z" />
    <glyph glyph-name="Ntilde" unicode="&#xd1;" horiz-adv-x="532" 
d="M339 693h148v-693h-144q-148 378 -171 456q21 -79 21 -272v-184h-148v693h148l91 -232q58 -149 78 -226q-23 97 -23 284v174zM204 736v-3h-79v2q2 108 89 108q30 0 63 -19.5t41 -19.5q21 0 21 36v4h79v-5q-1 -49 -23 -77t-66 -28q-27 0 -61 19.5t-43 19.5q-21 0 -21 -37z
" />
    <glyph glyph-name="Ograve" unicode="&#xd2;" horiz-adv-x="489" 
d="M128 847h110l44 -115h-79zM304 516q0 50 -59.5 50t-59.5 -50v-339q0 -50 59.5 -50t59.5 50v339zM35 524q0 82 53 130.5t156 48.5t156.5 -48.5t53.5 -130.5v-355q0 -82 -53.5 -130.5t-156.5 -48.5t-156 48.5t-53 130.5v355z" />
    <glyph glyph-name="Oacute" unicode="&#xd3;" horiz-adv-x="489" 
d="M304 516q0 50 -59.5 50t-59.5 -50v-339q0 -50 59.5 -50t59.5 50v339zM35 524q0 82 53 130.5t156 48.5t156.5 -48.5t53.5 -130.5v-355q0 -82 -53.5 -130.5t-156.5 -48.5t-156 48.5t-53 130.5v355zM257 847h110l-75 -115h-79z" />
    <glyph glyph-name="Ocircumflex" unicode="&#xd4;" horiz-adv-x="489" 
d="M35 169v355q0 82 53 130.5t156 48.5t156.5 -48.5t53.5 -130.5v-355q0 -82 -53.5 -130.5t-156.5 -48.5t-156 48.5t-53 130.5zM304 177v339q0 50 -59.5 50t-59.5 -50v-339q0 -50 59.5 -50t59.5 50zM247 786l-41 -54h-73l60 115h107l60 -115h-73z" />
    <glyph glyph-name="Otilde" unicode="&#xd5;" horiz-adv-x="489" 
d="M309 844h79v-5q-1 -49 -23 -77t-66 -28q-27 0 -61 19.5t-43 19.5q-21 0 -21 -37v-3h-79v2q2 108 89 108q29 0 62.5 -19.5t41.5 -19.5q21 0 21 36v4zM304 516q0 50 -59.5 50t-59.5 -50v-339q0 -50 59.5 -50t59.5 50v339zM35 524q0 82 53 130.5t156 48.5t156.5 -48.5
t53.5 -130.5v-355q0 -82 -53.5 -130.5t-156.5 -48.5t-156 48.5t-53 130.5v355z" />
    <glyph glyph-name="Odieresis" unicode="&#xd6;" horiz-adv-x="489" 
d="M304 516q0 50 -59.5 50t-59.5 -50v-339q0 -50 59.5 -50t59.5 50v339zM35 524q0 82 53 130.5t156 48.5t156.5 -48.5t53.5 -130.5v-355q0 -82 -53.5 -130.5t-156.5 -48.5t-156 48.5t-53 130.5v355zM330 735q-58 0 -58 54.5t58 54.5t58 -54.5t-58 -54.5zM159 735
q-58 0 -58 54.5t58 54.5t58 -54.5t-58 -54.5z" />
    <glyph glyph-name="multiply" unicode="&#xd7;" horiz-adv-x="493" 
d="M449 223l-92 -92l-111 112l-112 -112l-92 92l112 112l-110 109l92 92l110 -109l109 109l92 -92l-109 -109z" />
    <glyph glyph-name="Oslash" unicode="&#xd8;" horiz-adv-x="489" 
d="M454 524v-355q0 -82 -53.5 -130.5t-156.5 -48.5q-69 0 -118 23l-6 -13h-90l33 67q-28 41 -28 102v355q0 82 53 130.5t156 48.5q70 0 118 -23l7 13h90l-33 -68q28 -41 28 -101zM185 516v-199l111 228q-13 21 -52 21q-59 0 -59 -50zM304 177v199l-112 -228q15 -21 52 -21
q60 0 60 50z" />
    <glyph glyph-name="Ugrave" unicode="&#xd9;" horiz-adv-x="495" 
d="M134 847h110l44 -115h-79zM305 693h150v-524q0 -82 -52.5 -130.5t-155 -48.5t-155 48t-52.5 131v524h150v-516q0 -50 57.5 -50t57.5 50v516z" />
    <glyph glyph-name="Uacute" unicode="&#xda;" horiz-adv-x="495" 
d="M305 693h150v-524q0 -82 -52.5 -130.5t-155 -48.5t-155 48t-52.5 131v524h150v-516q0 -50 57.5 -50t57.5 50v516zM251 847h110l-75 -115h-79z" />
    <glyph glyph-name="Ucircumflex" unicode="&#xdb;" horiz-adv-x="495" 
d="M305 693h150v-524q0 -82 -52.5 -130.5t-155 -48.5t-155 48t-52.5 131v524h150v-516q0 -50 57.5 -50t57.5 50v516zM248 786l-41 -54h-73l60 115h107l60 -115h-73z" />
    <glyph glyph-name="Udieresis" unicode="&#xdc;" horiz-adv-x="495" 
d="M305 693h150v-524q0 -82 -52.5 -130.5t-155 -48.5t-155 48t-52.5 131v524h150v-516q0 -50 57.5 -50t57.5 50v516zM332 735q-58 0 -58 54.5t58 54.5t58 -54.5t-58 -54.5zM161 735q-58 0 -58 54.5t58 54.5t58 -54.5t-58 -54.5z" />
    <glyph glyph-name="Yacute" unicode="&#xdd;" horiz-adv-x="482" 
d="M244 848h110l-75 -115h-79zM317 0h-152v215l-165 478h154l33 -105q39 -123 56 -218q19 97 57 220l32 103h150l-165 -478v-215z" />
    <glyph glyph-name="Thorn" unicode="&#xde;" horiz-adv-x="453" 
d="M199 590h70q81 0 127.5 -39t46.5 -115v-178q0 -76 -46.5 -115t-127.5 -39h-70v-104h-144v693h144v-103zM299 274v146q0 42 -43 42h-57v-230h57q43 0 43 42z" />
    <glyph glyph-name="germandbls" unicode="&#xdf;" horiz-adv-x="569" 
d="M45 522q0 99 54 152t153.5 53t157 -48t57.5 -132q0 -47 -24 -98t-24 -61v-11q0 -19 28 -42q6 -5 19.5 -15.5t19.5 -15.5q66 -56 66 -118v-33q0 -156 -201 -156q-49 0 -111 12v133q48 -15 93.5 -15t60 8.5t14.5 30.5v8q0 14 -10.5 24.5t-18 17t-12.5 10.5q-15 14 -30 24
q-71 59 -71 110v20q0 30 26 82t26 77q0 56 -62 56q-36 0 -53 -20.5t-17 -65.5v-509h-141v522z" />
    <glyph glyph-name="agrave" unicode="&#xe0;" horiz-adv-x="437" 
d="M98 747h110l44 -115h-79zM167 171v-28q0 -34 35 -34q30 0 50 11v121l-46 -12q-25 -7 -32 -18t-7 -40zM50 576q55 19 157 19t146 -44.5t44 -134.5v-416h-141v43q-29 -45 -101 -45t-104 34.5t-32 110.5v34q0 67 29.5 103t95.5 54l109 28v55q-1 26 -15 36.5t-51 10.5
q-83 0 -137 -21v133z" />
    <glyph glyph-name="aacute" unicode="&#xe1;" horiz-adv-x="437" 
d="M210 747h110l-75 -115h-79zM167 171v-28q0 -34 35 -34q30 0 50 11v121l-46 -12q-25 -7 -32 -18t-7 -40zM50 576q55 19 157 19t146 -44.5t44 -134.5v-416h-141v43q-29 -45 -101 -45t-104 34.5t-32 110.5v34q0 67 29.5 103t95.5 54l109 28v55q-1 26 -15 36.5t-51 10.5
q-83 0 -137 -21v133z" />
    <glyph glyph-name="acircumflex" unicode="&#xe2;" horiz-adv-x="437" 
d="M50 576q55 19 157 19t146 -44.5t44 -134.5v-416h-141v43q-29 -45 -101 -45t-104 34.5t-32 110.5v34q0 67 29.5 103t95.5 54l109 28v55q-1 26 -15 36.5t-51 10.5q-83 0 -137 -21v133zM167 171v-28q0 -34 35 -34q30 0 50 11v121l-46 -12q-25 -7 -32 -18t-7 -40zM215 686
l-41 -54h-73l60 115h107l60 -115h-73z" />
    <glyph glyph-name="atilde" unicode="&#xe3;" horiz-adv-x="437" 
d="M279 744h79v-5q-1 -49 -23 -77t-66 -28q-27 0 -61 19.5t-43 19.5q-21 0 -21 -37v-3h-79v2q2 108 89 108q30 0 63 -19.5t41 -19.5q21 0 21 36v4zM167 171v-28q0 -34 35 -34q30 0 50 11v121l-46 -12q-25 -7 -32 -18t-7 -40zM50 576q55 19 157 19t146 -44.5t44 -134.5v-416
h-141v43q-29 -45 -101 -45t-104 34.5t-32 110.5v34q0 67 29.5 103t95.5 54l109 28v55q-1 26 -15 36.5t-51 10.5q-83 0 -137 -21v133z" />
    <glyph glyph-name="adieresis" unicode="&#xe4;" horiz-adv-x="437" 
d="M296 635q-58 0 -58 54.5t58 54.5t58 -54.5t-58 -54.5zM125 635q-58 0 -58 54.5t58 54.5t58 -54.5t-58 -54.5zM167 171v-28q0 -34 35 -34q30 0 50 11v121l-46 -12q-25 -7 -32 -18t-7 -40zM50 576q55 19 157 19t146 -44.5t44 -134.5v-416h-141v43q-29 -45 -101 -45
t-104 34.5t-32 110.5v34q0 67 29.5 103t95.5 54l109 28v55q-1 26 -15 36.5t-51 10.5q-83 0 -137 -21v133z" />
    <glyph glyph-name="aring" unicode="&#xe5;" horiz-adv-x="437" 
d="M237 689q0 12 -7.5 20t-20.5 8t-20.5 -8t-7.5 -20q0 -29 28 -29t28 29zM128 689q0 34 21.5 56.5t59.5 22.5t59.5 -22.5t21.5 -57t-21.5 -57t-59.5 -22.5t-59.5 23t-21.5 57zM167 171v-28q0 -34 35 -34q30 0 50 11v121l-46 -12q-25 -7 -32 -18t-7 -40zM50 576
q55 19 157 19t146 -44.5t44 -134.5v-416h-141v43q-29 -45 -101 -45t-104 34.5t-32 110.5v34q0 67 29.5 103t95.5 54l109 28v55q-1 26 -15 36.5t-51 10.5q-83 0 -137 -21v133z" />
    <glyph glyph-name="ae" unicode="&#xe6;" horiz-adv-x="655" 
d="M484 437q0 38 -45 38t-45 -38v-86h90v86zM167 171v-28q0 -34 35 -34q29 0 53 12v122l-49 -13q-25 -7 -32 -18.5t-7 -40.5zM440 600q183 0 183 -161v-203h-228v-56q0 -32 18.5 -43.5t73.5 -11.5t122 20v-132q-70 -19 -154 -19t-135 31q-46 -29 -145 -29q-151 0 -151 146
v35q0 67 27.5 102.5t92.5 55.5l108 34l-1 57q0 38 -64 38q-80 0 -137 -22v132q60 21 142 21t126 -23q47 28 122 28z" />
    <glyph glyph-name="ccedilla" unicode="&#xe7;" horiz-adv-x="376" 
d="M356 441q-53 16 -94.5 16t-58.5 -10.5t-17 -38.5v-226q0 -28 17 -38.5t58.5 -10.5t94.5 16v-139q-54 -14 -114 -15l-8 -34q21 -2 39.5 -18t18.5 -52t-27.5 -59t-63 -23t-62.5 6v66q12 -5 39 -5t27 22.5t-32 24.5h-11l16 76q-143 21 -143 170v252q0 174 196 174
q70 0 125 -15v-139z" />
    <glyph glyph-name="egrave" unicode="&#xe8;" horiz-adv-x="432" 
d="M35 168v271q0 76 47 118.5t142 42.5q183 0 183 -161v-203h-227v-56q0 -30 16.5 -42.5t73 -12.5t123.5 20v-132q-70 -19 -150 -19q-208 0 -208 174zM180 351h88v86q0 38 -44 38t-44 -38v-86zM262 632h-79l-75 115h110z" />
    <glyph glyph-name="eacute" unicode="&#xe9;" horiz-adv-x="432" 
d="M35 168v271q0 76 47 118.5t142 42.5q183 0 183 -161v-203h-227v-56q0 -30 16.5 -42.5t73 -12.5t123.5 20v-132q-70 -19 -150 -19q-208 0 -208 174zM180 351h88v86q0 38 -44 38t-44 -38v-86zM334 747l-75 -115h-79l44 115h110z" />
    <glyph glyph-name="ecircumflex" unicode="&#xea;" horiz-adv-x="432" 
d="M35 168v271q0 76 47 118.5t142 42.5q183 0 183 -161v-203h-227v-56q0 -30 16.5 -42.5t73 -12.5t123.5 20v-132q-70 -19 -150 -19q-208 0 -208 174zM180 351h88v86q0 38 -44 38t-44 -38v-86zM227 686l-41 -54h-73l60 115h107l60 -115h-73z" />
    <glyph glyph-name="edieresis" unicode="&#xeb;" horiz-adv-x="432" 
d="M35 168v271q0 76 47 118.5t142 42.5q183 0 183 -161v-203h-227v-56q0 -30 16.5 -42.5t73 -12.5t123.5 20v-132q-70 -19 -150 -19q-208 0 -208 174zM180 351h88v86q0 38 -44 38t-44 -38v-86zM139 635q-58 0 -58 54.5t58 54.5t58 -54.5t-58 -54.5zM310 635q-58 0 -58 54.5
t58 54.5t58 -54.5t-58 -54.5z" />
    <glyph glyph-name="igrave" unicode="&#xec;" horiz-adv-x="241" 
d="M-2 747h110l44 -115h-79zM45 574h151v-574h-151v574z" />
    <glyph glyph-name="iacute" unicode="&#xed;" horiz-adv-x="241" 
d="M122 747h110l-75 -115h-79zM45 574h151v-574h-151v574z" />
    <glyph glyph-name="icircumflex" unicode="&#xee;" horiz-adv-x="241" 
d="M45 0v574h151v-574h-151zM122 686l-41 -54h-73l60 115h107l60 -115h-73z" />
    <glyph glyph-name="idieresis" unicode="&#xef;" horiz-adv-x="241" 
d="M206 635q-58 0 -58 54.5t58 54.5t58 -54.5t-58 -54.5zM35 635q-58 0 -58 54.5t58 54.5t58 -54.5t-58 -54.5zM45 574h151v-574h-151v574z" />
    <glyph glyph-name="eth" unicode="&#xf0;" horiz-adv-x="453" 
d="M418 310v-150q0 -79 -48 -122t-141.5 -43t-141 42.5t-47.5 121.5v160q0 73 34 109.5t107 36.5q51 0 76 -38q-16 55 -53 119l-107 -45v74l68 29q-31 43 -71 89h169q22 -27 29 -36l99 42v-75l-60 -25q87 -145 87 -289zM274 163v183q-19 7 -44.5 7t-35.5 -8t-10 -31v-149
q0 -40 45 -40t45 38z" />
    <glyph glyph-name="ntilde" unicode="&#xf1;" horiz-adv-x="463" 
d="M298 744h79v-5q-1 -49 -23 -77t-66 -28q-27 0 -61 19.5t-43 19.5q-21 0 -21 -37v-3h-79v2q2 108 89 108q29 0 62 -19.5t42 -19.5q21 0 21 36v4zM187 564q53 29 110 29t91.5 -31.5t34.5 -94.5v-467h-153v430q0 24 -26 24t-48 -13v-441h-151v590h142v-26z" />
    <glyph glyph-name="ograve" unicode="&#xf2;" horiz-adv-x="450" 
d="M118 747h110l44 -115h-79zM267 434q0 38 -42 38t-42 -38v-278q0 -38 42 -38t42 38v278zM35 439q0 76 47.5 118.5t142.5 42.5t142.5 -42.5t47.5 -118.5v-288q0 -76 -47.5 -118.5t-142.5 -42.5t-142.5 42.5t-47.5 118.5v288z" />
    <glyph glyph-name="oacute" unicode="&#xf3;" horiz-adv-x="450" 
d="M267 434q0 38 -42 38t-42 -38v-278q0 -38 42 -38t42 38v278zM35 439q0 76 47.5 118.5t142.5 42.5t142.5 -42.5t47.5 -118.5v-288q0 -76 -47.5 -118.5t-142.5 -42.5t-142.5 42.5t-47.5 118.5v288zM233 747h110l-75 -115h-79z" />
    <glyph glyph-name="ocircumflex" unicode="&#xf4;" horiz-adv-x="450" 
d="M35 151v288q0 76 47.5 118.5t142.5 42.5t142.5 -42.5t47.5 -118.5v-288q0 -76 -47.5 -118.5t-142.5 -42.5t-142.5 42.5t-47.5 118.5zM267 156v278q0 38 -42 38t-42 -38v-278q0 -38 42 -38t42 38zM228 686l-41 -54h-73l60 115h107l60 -115h-73z" />
    <glyph glyph-name="otilde" unicode="&#xf5;" horiz-adv-x="450" 
d="M293 744h79v-5q-1 -49 -23 -77t-66 -28q-27 0 -61 19.5t-43 19.5q-21 0 -21 -37v-3h-79v2q2 108 89 108q30 0 63 -19.5t41 -19.5q21 0 21 36v4zM267 434q0 38 -42 38t-42 -38v-278q0 -38 42 -38t42 38v278zM35 439q0 76 47.5 118.5t142.5 42.5t142.5 -42.5t47.5 -118.5
v-288q0 -76 -47.5 -118.5t-142.5 -42.5t-142.5 42.5t-47.5 118.5v288z" />
    <glyph glyph-name="odieresis" unicode="&#xf6;" horiz-adv-x="450" 
d="M267 434q0 38 -42 38t-42 -38v-278q0 -38 42 -38t42 38v278zM35 439q0 76 47.5 118.5t142.5 42.5t142.5 -42.5t47.5 -118.5v-288q0 -76 -47.5 -118.5t-142.5 -42.5t-142.5 42.5t-47.5 118.5v288zM314 635q-58 0 -58 54.5t58 54.5t58 -54.5t-58 -54.5zM143 635
q-58 0 -58 54.5t58 54.5t58 -54.5t-58 -54.5z" />
    <glyph glyph-name="divide" unicode="&#xf7;" horiz-adv-x="498" 
d="M172 503q0 75 75 75t75 -75t-75 -75t-75 75zM172 160q0 75 75 75t75 -75t-74 -75q-76 0 -76 75zM41 396h414v-130h-414v130z" />
    <glyph glyph-name="oslash" unicode="&#xf8;" horiz-adv-x="450" 
d="M415 439v-288q0 -76 -47.5 -118.5t-137 -42.5t-137.5 34l-14 -24h-64l40 66q-20 34 -20 85v288q0 76 47.5 118.5t137 42.5t137.5 -34l14 24h64l-40 -66q20 -34 20 -85zM183 434v-156l84 140v16q0 38 -42 38t-42 -38zM267 156v156l-84 -140v-16q0 -38 42 -38t42 38z" />
    <glyph glyph-name="ugrave" unicode="&#xf9;" horiz-adv-x="467" 
d="M108 747h110l44 -115h-79zM271 590h151v-590h-142v27q-49 -27 -111.5 -27t-95.5 34t-33 98v458h153v-428q0 -26 29 -26t49 12v442z" />
    <glyph glyph-name="uacute" unicode="&#xfa;" horiz-adv-x="467" 
d="M271 590h151v-590h-142v27q-49 -27 -111.5 -27t-95.5 34t-33 98v458h153v-428q0 -26 29 -26t49 12v442zM239 747h110l-75 -115h-79z" />
    <glyph glyph-name="ucircumflex" unicode="&#xfb;" horiz-adv-x="467" 
d="M271 590h151v-590h-142v27q-49 -27 -111.5 -27t-95.5 34t-33 98v458h153v-428q0 -26 29 -26t49 12v442zM235 686l-41 -54h-73l60 115h107l60 -115h-73z" />
    <glyph glyph-name="udieresis" unicode="&#xfc;" horiz-adv-x="467" 
d="M271 590h151v-590h-142v27q-49 -27 -111.5 -27t-95.5 34t-33 98v458h153v-428q0 -26 29 -26t49 12v442zM317 635q-58 0 -58 54.5t58 54.5t58 -54.5t-58 -54.5zM146 635q-58 0 -58 54.5t58 54.5t58 -54.5t-58 -54.5z" />
    <glyph glyph-name="yacute" unicode="&#xfd;" horiz-adv-x="448" 
d="M222 747h110l-75 -115h-79zM293 590h145l-140 -739h-146l28 149h-52l-118 590h148q48 -255 57 -328.5t12 -142.5q5 121 34 286z" />
    <glyph glyph-name="thorn" unicode="&#xfe;" horiz-adv-x="463" 
d="M275 432q0 24 -28.5 24t-50.5 -13v-308h40q39 0 39 32v265zM45 747h151v-179q45 25 104 25t93.5 -31.5t34.5 -94.5v-320q0 -75 -41.5 -111t-111.5 -36h-79v-157h-151v904z" />
    <glyph glyph-name="ydieresis" unicode="&#xff;" horiz-adv-x="448" 
d="M293 590h145l-140 -739h-146l28 149h-52l-118 590h148q48 -255 57 -328.5t12 -142.5q5 121 34 286zM310 635q-58 0 -58 54.5t58 54.5t58 -54.5t-58 -54.5zM139 635q-58 0 -58 54.5t58 54.5t58 -54.5t-58 -54.5z" />
    <glyph glyph-name="Amacron" unicode="&#x100;" horiz-adv-x="489" 
d="M341 0l-29 160h-137l-27 -160h-143l136 693h209l134 -693h-143zM196 287h94l-48 268zM376 828v-77h-267v77h267z" />
    <glyph glyph-name="amacron" unicode="&#x101;" horiz-adv-x="437" 
d="M89 728h267v-77h-267v77zM167 171v-28q0 -34 35 -34q30 0 50 11v121l-46 -12q-25 -7 -32 -18t-7 -40zM50 576q55 19 157 19t146 -44.5t44 -134.5v-416h-141v43q-29 -45 -101 -45t-104 34.5t-32 110.5v34q0 67 29.5 103t95.5 54l109 28v55q-1 26 -15 36.5t-51 10.5
q-83 0 -137 -21v133z" />
    <glyph glyph-name="Abreve" unicode="&#x102;" horiz-adv-x="489" 
d="M341 0l-29 160h-137l-27 -160h-143l136 693h209l134 -693h-143zM196 287h94l-48 268zM285 847h77q0 -52 -34 -83.5t-86 -31.5t-86 32t-34 83h77q0 -21 11 -34t32 -13t32 13t11 34z" />
    <glyph glyph-name="abreve" unicode="&#x103;" horiz-adv-x="437" 
d="M255 747h77q0 -52 -34 -83.5t-86 -31.5t-86 32t-34 83h77q0 -21 11 -34t32 -13t32 13t11 34zM167 171v-28q0 -34 35 -34q30 0 50 11v121l-46 -12q-25 -7 -32 -18t-7 -40zM50 576q55 19 157 19t146 -44.5t44 -134.5v-416h-141v43q-29 -45 -101 -45t-104 34.5t-32 110.5v34
q0 67 29.5 103t95.5 54l109 28v55q-1 26 -15 36.5t-51 10.5q-83 0 -137 -21v133z" />
    <glyph glyph-name="Aogonek" unicode="&#x104;" horiz-adv-x="489" 
d="M445 -95q0 -36 29 -36h11v-69h-24q-45 0 -70 21t-25 59q0 65 66 120h-91l-29 160h-137l-27 -160h-143l136 693h209l134 -693h1q-40 -42 -40 -95zM196 287h94l-48 268z" />
    <glyph glyph-name="aogonek" unicode="&#x105;" horiz-adv-x="437" 
d="M50 576q55 19 157 19t146 -44.5t44 -134.5v-416h-1q-40 -42 -40 -95q0 -36 29 -36h11v-69h-24q-45 0 -70 21t-25 59q0 65 66 120h-87v43q-29 -45 -101 -45t-104 34.5t-32 110.5v34q0 67 29.5 103t95.5 54l109 28v55q-1 26 -15 36.5t-51 10.5q-83 0 -137 -21v133zM167 171
v-28q0 -34 35 -34q30 0 50 11v121l-46 -12q-25 -7 -32 -18t-7 -40z" />
    <glyph glyph-name="Cacute" unicode="&#x106;" horiz-adv-x="412" 
d="M35 529q0 80 55.5 124.5t167.5 44.5q74 0 126 -14v-138q-56 17 -110.5 17t-70.5 -12.5t-16 -36.5v-336q0 -48 75.5 -48t124.5 15v-135q-54 -15 -131 -15q-112 0 -166.5 44t-54.5 124v366zM252 847h110l-75 -115h-79z" />
    <glyph glyph-name="cacute" unicode="&#x107;" horiz-adv-x="376" 
d="M35 421q0 174 196 174q70 0 125 -15v-139q-53 16 -94.5 16t-58.5 -10.5t-17 -38.5v-226q0 -28 17 -38.5t58.5 -10.5t94.5 16v-139q-55 -15 -125 -15q-196 0 -196 174v252zM232 747h110l-75 -115h-79z" />
    <glyph glyph-name="Ccaron" unicode="&#x10c;" horiz-adv-x="412" 
d="M187 514v-336q0 -48 75.5 -48t124.5 15v-135q-54 -15 -131 -15q-112 0 -166.5 44t-54.5 124v366q0 80 55.5 124.5t167.5 44.5q74 0 126 -14v-138q-56 17 -110.5 17t-70.5 -12.5t-16 -36.5zM190 732l-60 115h73l41 -54l40 54h73l-60 -115h-107z" />
    <glyph glyph-name="ccaron" unicode="&#x10d;" horiz-adv-x="376" 
d="M356 441q-53 16 -94.5 16t-58.5 -10.5t-17 -38.5v-226q0 -28 17 -38.5t58.5 -10.5t94.5 16v-139q-55 -15 -125 -15q-196 0 -196 174v252q0 174 196 174q70 0 125 -15v-139zM176 632l-60 115h73l41 -54l40 54h73l-60 -115h-107z" />
    <glyph glyph-name="Dcaron" unicode="&#x10e;" horiz-adv-x="493" 
d="M45 693h243q81 0 125.5 -39t44.5 -115v-376q0 -163 -161 -163h-252v693zM308 175v358q0 18 -8.5 27.5t-32.5 9.5h-72v-441h72q41 0 41 46zM181 732l-60 115h73l41 -54l40 54h73l-60 -115h-107z" />
    <glyph glyph-name="dcaron" unicode="&#x10f;" horiz-adv-x="490" 
d="M526 747q35 0 35 -32q0 -25 -19.5 -62t-38.5 -61h-48l25 155h46zM266 456h-33q-47 0 -47 -50v-247q0 -26 30 -26t50 12v311zM265 747h152v-747h-147v42q-36 -46 -102.5 -46t-99.5 36t-33 100v279q0 84 46 131.5t140 47.5h44v157z" />
    <glyph glyph-name="Dcroat" unicode="&#x110;" horiz-adv-x="499" 
d="M55 693h243q81 0 125.5 -39t44.5 -115v-376q0 -163 -161 -163h-252v279h-64v124h64v290zM318 175v358q0 18 -8.5 27.5t-32.5 9.5h-72v-167h56v-124h-56v-150h72q41 0 41 46z" />
    <glyph glyph-name="dcroat" unicode="&#x111;" horiz-adv-x="465" 
d="M460 700v-64h-40v-636h-147v42q-36 -46 -102.5 -46t-99.5 36t-33 100v279q0 84 46 131.5t140 47.5h44v46h-128v64h128v47h152v-47h40zM269 456h-33q-47 0 -47 -50v-247q0 -26 30 -26t50 12v311z" />
    <glyph glyph-name="Emacron" unicode="&#x112;" horiz-adv-x="421" 
d="M82 828h267v-77h-267v77zM45 693h351v-130h-201v-147h174v-130h-174v-156h201v-130h-351v693z" />
    <glyph glyph-name="emacron" unicode="&#x113;" horiz-adv-x="432" 
d="M35 168v271q0 76 47 118.5t142 42.5q183 0 183 -161v-203h-227v-56q0 -30 16.5 -42.5t73 -12.5t123.5 20v-132q-70 -19 -150 -19q-208 0 -208 174zM180 351h88v86q0 38 -44 38t-44 -38v-86zM355 728v-77h-267v77h267z" />
    <glyph glyph-name="Edotaccent" unicode="&#x116;" horiz-adv-x="421" 
d="M221 735q-58 0 -58 54.5t58 54.5t58 -54.5t-58 -54.5zM45 693h351v-130h-201v-147h174v-130h-174v-156h201v-130h-351v693z" />
    <glyph glyph-name="edotaccent" unicode="&#x117;" horiz-adv-x="432" 
d="M35 168v271q0 76 47 118.5t142 42.5q183 0 183 -161v-203h-227v-56q0 -30 16.5 -42.5t73 -12.5t123.5 20v-132q-70 -19 -150 -19q-208 0 -208 174zM180 351h88v86q0 38 -44 38t-44 -38v-86zM225 635q-58 0 -58 54.5t58 54.5t58 -54.5t-58 -54.5z" />
    <glyph glyph-name="Eogonek" unicode="&#x118;" horiz-adv-x="421" 
d="M396 563h-201v-147h174v-130h-174v-156h201v-130q-40 -42 -40 -95q0 -36 29 -36h11v-69h-24q-45 0 -70 21t-25 59q0 65 66 120h-298v693h351v-130z" />
    <glyph glyph-name="eogonek" unicode="&#x119;" horiz-adv-x="432" 
d="M35 168v271q0 76 47 118.5t142 42.5q183 0 183 -161v-203h-227v-56q0 -30 16.5 -42.5t73 -12.5t123.5 20v-132l-4 -1q-37 -41 -37 -92q0 -36 29 -36h11v-69h-24q-45 0 -70 21t-25 59q0 53 48 103q-28 -4 -78 -4q-208 0 -208 174zM180 351h88v86q0 38 -44 38t-44 -38v-86z
" />
    <glyph glyph-name="Ecaron" unicode="&#x11a;" horiz-adv-x="421" 
d="M396 563h-201v-147h174v-130h-174v-156h201v-130h-351v693h351v-130zM162 732l-60 115h73l41 -54l40 54h73l-60 -115h-107z" />
    <glyph glyph-name="ecaron" unicode="&#x11b;" horiz-adv-x="432" 
d="M35 168v271q0 76 47 118.5t142 42.5q183 0 183 -161v-203h-227v-56q0 -30 16.5 -42.5t73 -12.5t123.5 20v-132q-70 -19 -150 -19q-208 0 -208 174zM180 351h88v86q0 38 -44 38t-44 -38v-86zM171 632l-60 115h73l41 -54l40 54h73l-60 -115h-107z" />
    <glyph glyph-name="Gbreve" unicode="&#x11e;" horiz-adv-x="468" 
d="M294 847h77q0 -52 -34 -83.5t-86 -31.5t-86 32t-34 83h77q0 -21 11 -34t32 -13t32 13t11 34zM35 526q0 79 60.5 125.5t172.5 46.5q84 0 141 -19v-142q-60 23 -120 23t-81 -14t-21 -38v-329q0 -24 15 -36.5t44.5 -12.5t45.5 8v234h146v-335q-78 -42 -185 -42t-162.5 44
t-55.5 124v363z" />
    <glyph glyph-name="gbreve" unicode="&#x11f;" horiz-adv-x="456" 
d="M451 525h-35q-8 0 -22 -2q19 -32 19 -80v-86q0 -74 -46 -115t-139 -43q-26 0 -26 -22q0 -13 8.5 -17.5t31.5 -4.5h55q77 0 114.5 -30.5t37.5 -95.5v-25q0 -73 -53 -113.5t-158 -40.5h-37q-64 0 -113 13.5t-73 30.5v137q28 -22 78 -38.5t104 -16.5h21q52 0 71.5 7.5
t19.5 24.5v5q0 20 -34 20h-61q-72 0 -108 21t-36 68v16q0 63 56 73q-103 34 -103 146v86q0 75 48.5 116t146.5 41q65 0 109 -18q23 77 108 77h16v-134zM263 358v84q0 39 -45 39t-45 -39v-84q0 -39 45 -39t45 39zM256 747h77q0 -52 -34 -83.5t-86 -31.5t-86 32t-34 83h77
q0 -21 11 -34t32 -13t32 13t11 34z" />
    <glyph glyph-name="uni0122" unicode="&#x122;" horiz-adv-x="468" 
d="M271 -61q35 0 35 -32q0 -25 -19.5 -62t-38.5 -61h-48l25 155h46zM35 526q0 79 60.5 125.5t172.5 46.5q84 0 141 -19v-142q-60 23 -120 23t-81 -14t-21 -38v-329q0 -24 15 -36.5t44.5 -12.5t45.5 8v234h146v-335q-78 -42 -185 -42t-162.5 44t-55.5 124v363z" />
    <glyph glyph-name="uni0123" unicode="&#x123;" horiz-adv-x="456" 
d="M451 525h-35q-8 0 -22 -2q19 -32 19 -80v-86q0 -74 -46 -115t-139 -43q-26 0 -26 -22q0 -13 8.5 -17.5t31.5 -4.5h55q77 0 114.5 -30.5t37.5 -95.5v-25q0 -73 -53 -113.5t-158 -40.5h-37q-64 0 -113 13.5t-73 30.5v137q28 -22 78 -38.5t104 -16.5h21q52 0 71.5 7.5
t19.5 24.5v5q0 20 -34 20h-61q-72 0 -108 21t-36 68v16q0 63 56 73q-103 34 -103 146v86q0 75 48.5 116t146.5 41q65 0 109 -18q23 77 108 77h16v-134zM263 358v84q0 39 -45 39t-45 -39v-84q0 -39 45 -39t45 39zM207 632q-35 0 -35 32q0 25 19.5 62t38.5 61h48l-25 -155h-46
z" />
    <glyph glyph-name="Imacron" unicode="&#x12a;" horiz-adv-x="242" 
d="M-9 828h267v-77h-267v77zM45 693h152v-693h-152v693z" />
    <glyph glyph-name="imacron" unicode="&#x12b;" horiz-adv-x="241" 
d="M-13 728h267v-77h-267v77zM45 574h151v-574h-151v574z" />
    <glyph glyph-name="Iogonek" unicode="&#x12e;" horiz-adv-x="242" 
d="M197 693v-693q-40 -42 -40 -95q0 -36 29 -36h11v-69h-24q-45 0 -70 21t-25 59q0 65 66 120h-99v693h152z" />
    <glyph glyph-name="iogonek" unicode="&#x12f;" horiz-adv-x="241" 
d="M45 0v574h151v-574q-40 -42 -40 -95q0 -36 29 -36h11v-69h-24q-45 0 -70 21t-25 59q0 65 66 120h-98zM120.5 607q-83.5 0 -83.5 78.5t83.5 78.5t83.5 -78.5t-83.5 -78.5z" />
    <glyph glyph-name="Idotaccent" unicode="&#x130;" horiz-adv-x="242" 
d="M119 735q-58 0 -58 54.5t58 54.5t58 -54.5t-58 -54.5zM45 693h152v-693h-152v693z" />
    <glyph glyph-name="dotlessi" unicode="&#x131;" horiz-adv-x="241" 
d="M45 574h151v-574h-151v574z" />
    <glyph glyph-name="uni0136" unicode="&#x136;" horiz-adv-x="486" 
d="M195 0h-150v693h150v-312l114 312h160l-127 -335l139 -358h-167l-119 331v-331zM268 -61q35 0 35 -32q0 -25 -19.5 -62t-38.5 -61h-48l25 155h46z" />
    <glyph glyph-name="uni0137" unicode="&#x137;" horiz-adv-x="434" 
d="M191 0h-146v747h146v-402l74 245h149l-85 -279l100 -311h-158l-80 290v-290zM230 -61q35 0 35 -32q0 -25 -19.5 -62t-38.5 -61h-48l25 155h46z" />
    <glyph glyph-name="Lacute" unicode="&#x139;" horiz-adv-x="387" 
d="M45 693h152v-567h185v-126h-337v693zM122 847h110l-75 -115h-79z" />
    <glyph glyph-name="lacute" unicode="&#x13a;" horiz-adv-x="241" 
d="M45 747h151v-747h-151v747zM125 897h110l-75 -115h-79z" />
    <glyph glyph-name="uni013B" unicode="&#x13b;" horiz-adv-x="387" 
d="M213 -61q35 0 35 -32q0 -25 -19.5 -62t-38.5 -61h-48l25 155h46zM45 693h152v-567h185v-126h-337v693z" />
    <glyph glyph-name="uni013C" unicode="&#x13c;" horiz-adv-x="241" 
d="M128 -61q35 0 35 -32q0 -25 -19.5 -62t-38.5 -61h-48l25 155h46zM45 747h151v-747h-151v747z" />
    <glyph glyph-name="Lcaron" unicode="&#x13d;" horiz-adv-x="387" 
d="M197 126h185v-126h-337v693h152v-567zM62 732l-60 115h73l41 -54l40 54h73l-60 -115h-107z" />
    <glyph glyph-name="lcaron" unicode="&#x13e;" horiz-adv-x="241" 
d="M303 747q35 0 35 -32q0 -25 -19.5 -62t-38.5 -61h-48l25 155h46zM45 747h151v-747h-151v747z" />
    <glyph glyph-name="Lslash" unicode="&#x141;" horiz-adv-x="389" 
d="M207 126h185v-126h-337v264l-55 -23v100l55 23v329h152v-267l86 35v-100l-86 -35v-200z" />
    <glyph glyph-name="lslash" unicode="&#x142;" horiz-adv-x="245" 
d="M198 0h-151v389l-45 -18v100l45 18v258h151v-197l45 18v-100l-45 -18v-450z" />
    <glyph glyph-name="Nacute" unicode="&#x143;" horiz-adv-x="532" 
d="M339 693h148v-693h-144q-148 378 -171 456q21 -79 21 -272v-184h-148v693h148l91 -232q58 -149 78 -226q-23 97 -23 284v174zM365 847l-75 -115h-79l44 115h110z" />
    <glyph glyph-name="nacute" unicode="&#x144;" horiz-adv-x="463" 
d="M187 564q53 29 110 29t91.5 -31.5t34.5 -94.5v-467h-153v430q0 24 -26 24t-48 -13v-441h-151v590h142v-26zM222 747h110l-75 -115h-79z" />
    <glyph glyph-name="uni0145" unicode="&#x145;" horiz-adv-x="532" 
d="M339 693h148v-693h-144q-148 378 -171 456q21 -79 21 -272v-184h-148v693h148l91 -232q58 -149 78 -226q-23 97 -23 284v174zM270 -61q35 0 35 -32q0 -25 -19.5 -62t-38.5 -61h-48l25 155h46z" />
    <glyph glyph-name="uni0146" unicode="&#x146;" horiz-adv-x="463" 
d="M242 -61q35 0 35 -32q0 -25 -19.5 -62t-38.5 -61h-48l25 155h46zM187 564q53 29 110 29t91.5 -31.5t34.5 -94.5v-467h-153v430q0 24 -26 24t-48 -13v-441h-151v590h142v-26z" />
    <glyph glyph-name="Ncaron" unicode="&#x147;" horiz-adv-x="532" 
d="M339 693h148v-693h-144q-148 378 -171 456q21 -79 21 -272v-184h-148v693h148l91 -232q58 -149 78 -226q-23 97 -23 284v174zM204 732l-60 115h73l41 -54l40 54h73l-60 -115h-107z" />
    <glyph glyph-name="ncaron" unicode="&#x148;" horiz-adv-x="463" 
d="M187 590v-26q53 29 110 29t91.5 -31.5t34.5 -94.5v-467h-153v430q0 24 -26 24t-48 -13v-441h-151v590h142zM171 632l-60 115h73l41 -54l40 54h73l-60 -115h-107z" />
    <glyph glyph-name="Omacron" unicode="&#x14c;" horiz-adv-x="489" 
d="M304 516q0 50 -59.5 50t-59.5 -50v-339q0 -50 59.5 -50t59.5 50v339zM35 524q0 82 53 130.5t156 48.5t156.5 -48.5t53.5 -130.5v-355q0 -82 -53.5 -130.5t-156.5 -48.5t-156 48.5t-53 130.5v355zM112 828h267v-77h-267v77z" />
    <glyph glyph-name="omacron" unicode="&#x14d;" horiz-adv-x="450" 
d="M267 434q0 38 -42 38t-42 -38v-278q0 -38 42 -38t42 38v278zM35 439q0 76 47.5 118.5t142.5 42.5t142.5 -42.5t47.5 -118.5v-288q0 -76 -47.5 -118.5t-142.5 -42.5t-142.5 42.5t-47.5 118.5v288zM90 728h267v-77h-267v77z" />
    <glyph glyph-name="Ohungarumlaut" unicode="&#x150;" horiz-adv-x="489" 
d="M304 516q0 50 -59.5 50t-59.5 -50v-339q0 -50 59.5 -50t59.5 50v339zM35 524q0 82 53 130.5t156 48.5t156.5 -48.5t53.5 -130.5v-355q0 -82 -53.5 -130.5t-156.5 -48.5t-156 48.5t-53 130.5v355zM192 847h100l-80 -115h-69zM312 847h100l-80 -115h-69z" />
    <glyph glyph-name="ohungarumlaut" unicode="&#x151;" horiz-adv-x="450" 
d="M267 434q0 38 -42 38t-42 -38v-278q0 -38 42 -38t42 38v278zM35 439q0 76 47.5 118.5t142.5 42.5t142.5 -42.5t47.5 -118.5v-288q0 -76 -47.5 -118.5t-142.5 -42.5t-142.5 42.5t-47.5 118.5v288zM179 747h100l-80 -115h-69zM299 747h100l-80 -115h-69z" />
    <glyph glyph-name="OE" unicode="&#x152;" horiz-adv-x="712" 
d="M685 563h-201v-147h174v-130h-174v-156h201v-130h-469q-161 0 -161 163v376q0 76 44.5 115t125.5 39h460v-130zM246 129h88v441h-88q-24 0 -32.5 -9.5t-8.5 -27.5v-358q0 -46 41 -46z" />
    <glyph glyph-name="oe" unicode="&#x153;" horiz-adv-x="682" 
d="M35 151v288q0 76 47.5 118.5t131 42.5t128.5 -25q45 25 117 25q183 0 183 -161v-203h-227v-56q0 -30 16.5 -42.5t73 -12.5t123.5 20v-132q-70 -19 -151 -19t-128 25q-46 -29 -132.5 -29t-134 42.5t-47.5 118.5zM267 156v278q0 38 -42 38t-42 -38v-278q0 -38 42 -38t42 38
zM415 351h88v86q0 38 -44 38t-44 -38v-86z" />
    <glyph glyph-name="Racute" unicode="&#x154;" horiz-adv-x="482" 
d="M195 250v-250h-150v693h226q82 0 128 -39t46 -114v-128q0 -120 -82 -150l109 -262h-165l-93 250h-19zM195 565v-196h59q23 0 32 10t9 35v113q0 22 -10 30t-31 8h-59zM339 847l-75 -115h-79l44 115h110z" />
    <glyph glyph-name="racute" unicode="&#x155;" horiz-adv-x="322" 
d="M300 593h17v-139h-23q-56 0 -98 -20v-434h-151v590h142v-40q51 31 71.5 37t41.5 6zM202 747h110l-75 -115h-79z" />
    <glyph glyph-name="uni0156" unicode="&#x156;" horiz-adv-x="482" 
d="M195 250v-250h-150v693h226q82 0 128 -39t46 -114v-128q0 -120 -82 -150l109 -262h-165l-93 250h-19zM195 565v-196h59q23 0 32 10t9 35v113q0 22 -10 30t-31 8h-59zM259 -61q35 0 35 -32q0 -25 -19.5 -62t-38.5 -61h-48l25 155h46z" />
    <glyph glyph-name="uni0157" unicode="&#x157;" horiz-adv-x="322" 
d="M128 -61q35 0 35 -32q0 -25 -19.5 -62t-38.5 -61h-48l25 155h46zM300 593h17v-139h-23q-56 0 -98 -20v-434h-151v590h142v-40q51 31 71.5 37t41.5 6z" />
    <glyph glyph-name="Rcaron" unicode="&#x158;" horiz-adv-x="482" 
d="M195 250v-250h-150v693h226q82 0 128 -39t46 -114v-128q0 -120 -82 -150l109 -262h-165l-93 250h-19zM195 565v-196h59q23 0 32 10t9 35v113q0 22 -10 30t-31 8h-59zM172 732l-60 115h73l41 -54l40 54h73l-60 -115h-107z" />
    <glyph glyph-name="rcaron" unicode="&#x159;" horiz-adv-x="322" 
d="M300 593h17v-139h-23q-56 0 -98 -20v-434h-151v590h142v-40q51 31 71.5 37t41.5 6zM130 632l-60 115h73l41 -54l40 54h73l-60 -115h-107z" />
    <glyph glyph-name="Sacute" unicode="&#x15a;" horiz-adv-x="439" 
d="M20 531q0 80 54 123.5t155.5 43.5t151.5 -21v-144q-61 26 -139 26q-40 0 -54 -12.5t-14 -35.5v-15q0 -28 9.5 -41.5t41.5 -30.5l114 -64q82 -45 82 -135v-62q0 -81 -60 -124.5t-168.5 -43.5t-163.5 23v145q68 -29 154 -29t86 49v15q0 23 -9.5 34.5t-35.5 25.5l-107 58
q-97 54 -97 152v63zM226 847h110l-75 -115h-79z" />
    <glyph glyph-name="sacute" unicode="&#x15b;" horiz-adv-x="388" 
d="M22 434q0 80 48.5 120.5t156.5 40.5q74 0 122 -15v-133q-45 15 -98.5 15t-68 -9t-14.5 -29v-8q0 -12 7.5 -20.5t32.5 -25.5l81 -54q38 -25 58.5 -55t20.5 -75v-25q0 -166 -218 -166q-76 0 -130 13v135q47 -14 104 -14t75.5 9.5t18.5 28.5v9q0 15 -10 24q-12 12 -115 80
q-71 48 -71 128v26zM212 747h110l-75 -115h-79z" />
    <glyph glyph-name="uni015E" unicode="&#x15e;" horiz-adv-x="439" 
d="M219 -61q35 0 35 -32q0 -25 -19.5 -62t-38.5 -61h-48l25 155h46zM20 531q0 80 54 123.5t155.5 43.5t151.5 -21v-144q-61 26 -139 26q-40 0 -54 -12.5t-14 -35.5v-15q0 -28 9.5 -41.5t41.5 -30.5l114 -64q82 -45 82 -135v-62q0 -81 -60 -124.5t-168.5 -43.5t-163.5 23v145
q68 -29 154 -29t86 49v15q0 23 -9.5 34.5t-35.5 25.5l-107 58q-97 54 -97 152v63z" />
    <glyph glyph-name="uni015F" unicode="&#x15f;" horiz-adv-x="388" 
d="M198 -61q35 0 35 -32q0 -25 -19.5 -62t-38.5 -61h-48l25 155h46zM22 434q0 80 48.5 120.5t156.5 40.5q74 0 122 -15v-133q-45 15 -98.5 15t-68 -9t-14.5 -29v-8q0 -12 7.5 -20.5t32.5 -25.5l81 -54q38 -25 58.5 -55t20.5 -75v-25q0 -166 -218 -166q-76 0 -130 13v135
q47 -14 104 -14t75.5 9.5t18.5 28.5v9q0 15 -10 24q-12 12 -115 80q-71 48 -71 128v26z" />
    <glyph glyph-name="Scaron" unicode="&#x160;" horiz-adv-x="439" 
d="M421 225v-62q0 -81 -60 -124.5t-168.5 -43.5t-163.5 23v145q68 -29 154 -29t86 49v15q0 23 -9.5 34.5t-35.5 25.5l-107 58q-97 54 -97 152v63q0 80 54 123.5t155.5 43.5t151.5 -21v-144q-61 26 -139 26q-40 0 -54 -12.5t-14 -35.5v-15q0 -28 9.5 -41.5t41.5 -30.5
l114 -64q82 -45 82 -135zM161 732l-60 115h73l41 -54l40 54h73l-60 -115h-107z" />
    <glyph glyph-name="scaron" unicode="&#x161;" horiz-adv-x="388" 
d="M368 186v-25q0 -166 -218 -166q-76 0 -130 13v135q47 -14 104 -14t75.5 9.5t18.5 28.5v9q0 15 -10 24q-12 12 -115 80q-71 48 -71 128v26q0 80 48.5 120.5t156.5 40.5q74 0 122 -15v-133q-45 15 -98.5 15t-68 -9t-14.5 -29v-8q0 -12 7.5 -20.5t32.5 -25.5l81 -54
q38 -25 58.5 -55t20.5 -75zM157 632l-60 115h73l41 -54l40 54h73l-60 -115h-107z" />
    <glyph glyph-name="uni0162" unicode="&#x162;" horiz-adv-x="412" 
d="M407 693v-130h-125v-563h-152v563h-125v130h402zM215 -61q35 0 35 -32q0 -25 -19.5 -62t-38.5 -61h-48l25 155h46z" />
    <glyph glyph-name="uni0163" unicode="&#x163;" horiz-adv-x="319" 
d="M198 -61q35 0 35 -32q0 -25 -19.5 -62t-38.5 -61h-48l25 155h46zM247 127q31 0 57 14v-134q-34 -16 -89 -16q-85 0 -121 40t-36 116v316h-53v127h60l46 102h98v-102h89v-127h-89v-300q0 -36 38 -36z" />
    <glyph glyph-name="Tcaron" unicode="&#x164;" horiz-adv-x="412" 
d="M407 693v-130h-125v-563h-152v563h-125v130h402zM151 732l-60 115h73l41 -54l40 54h73l-60 -115h-107z" />
    <glyph glyph-name="tcaron" unicode="&#x165;" horiz-adv-x="319" 
d="M247 127q31 0 57 14v-134q-34 -16 -89 -16q-85 0 -121 40t-36 116v316h-53v127h60l46 102h98v-102h89v-127h-89v-300q0 -36 38 -36zM354 846q47 0 47 -43q0 -32 -26.5 -83t-51.5 -83h-60l35 209h56z" />
    <glyph glyph-name="Umacron" unicode="&#x16a;" horiz-adv-x="495" 
d="M113 828h267v-77h-267v77zM305 693h150v-524q0 -82 -52.5 -130.5t-155 -48.5t-155 48t-52.5 131v524h150v-516q0 -50 57.5 -50t57.5 50v516z" />
    <glyph glyph-name="umacron" unicode="&#x16b;" horiz-adv-x="467" 
d="M98 728h267v-77h-267v77zM271 590h151v-590h-142v27q-49 -27 -111.5 -27t-95.5 34t-33 98v458h153v-428q0 -26 29 -26t49 12v442z" />
    <glyph glyph-name="Uring" unicode="&#x16e;" horiz-adv-x="495" 
d="M305 693h150v-524q0 -82 -52.5 -130.5t-155 -48.5t-155 48t-52.5 131v524h150v-516q0 -50 57.5 -50t57.5 50v516zM275 789q0 12 -7.5 20t-20.5 8t-20.5 -8t-7.5 -20q0 -29 28 -29t28 29zM166 789q0 34 21.5 56.5t59.5 22.5t59.5 -22.5t21.5 -57t-21.5 -57t-59.5 -22.5
t-59.5 23t-21.5 57z" />
    <glyph glyph-name="uring" unicode="&#x16f;" horiz-adv-x="467" 
d="M271 590h151v-590h-142v27q-49 -27 -111.5 -27t-95.5 34t-33 98v458h153v-428q0 -26 29 -26t49 12v442zM254 689q0 12 -7.5 20t-20.5 8t-20.5 -8t-7.5 -20q0 -29 28 -29t28 29zM145 689q0 34 21.5 56.5t59.5 22.5t59.5 -22.5t21.5 -57t-21.5 -57t-59.5 -22.5t-59.5 23
t-21.5 57z" />
    <glyph glyph-name="Uhungarumlaut" unicode="&#x170;" horiz-adv-x="495" 
d="M192 847h100l-80 -115h-69zM312 847h100l-80 -115h-69zM305 693h150v-524q0 -82 -52.5 -130.5t-155 -48.5t-155 48t-52.5 131v524h150v-516q0 -50 57.5 -50t57.5 50v516z" />
    <glyph glyph-name="uhungarumlaut" unicode="&#x171;" horiz-adv-x="467" 
d="M179 747h100l-80 -115h-69zM299 747h100l-80 -115h-69zM271 590h151v-590h-142v27q-49 -27 -111.5 -27t-95.5 34t-33 98v458h153v-428q0 -26 29 -26t49 12v442z" />
    <glyph glyph-name="Uogonek" unicode="&#x172;" horiz-adv-x="495" 
d="M305 693h150v-524q0 -123 -108 -163q-36 -41 -36 -91q0 -36 29 -36h11v-69h-24q-45 0 -70 21t-25 59q0 53 46 101q-10 -1 -31 -1q-102 0 -154.5 48t-52.5 131v524h150v-516q0 -50 57.5 -50t57.5 50v516z" />
    <glyph glyph-name="uogonek" unicode="&#x173;" horiz-adv-x="467" 
d="M422 590v-590q-40 -42 -40 -95q0 -36 29 -36h11v-69h-24q-45 0 -70 21t-25 59q0 65 66 120h-89v27q-49 -27 -111.5 -27t-95.5 34t-33 98v458h153v-428q0 -26 29 -26t49 12v442h151z" />
    <glyph glyph-name="Ydieresis" unicode="&#x178;" horiz-adv-x="482" 
d="M317 0h-152v215l-165 478h154l33 -105q39 -123 56 -218q19 97 57 220l32 103h150l-165 -478v-215zM329 735q-58 0 -58 54.5t58 54.5t58 -54.5t-58 -54.5zM158 735q-58 0 -58 54.5t58 54.5t58 -54.5t-58 -54.5z" />
    <glyph glyph-name="Zacute" unicode="&#x179;" horiz-adv-x="425" 
d="M24 693h377v-121l-224 -445h228v-127h-385v127l218 439h-214v127zM214 847h110l-75 -115h-79z" />
    <glyph glyph-name="zacute" unicode="&#x17a;" horiz-adv-x="364" 
d="M23 590h318v-90l-155 -374h158v-126h-324v92l159 372h-156v126zM189 747h110l-75 -115h-79z" />
    <glyph glyph-name="Zdotaccent" unicode="&#x17b;" horiz-adv-x="425" 
d="M215 735q-58 0 -58 54.5t58 54.5t58 -54.5t-58 -54.5zM24 693h377v-121l-224 -445h228v-127h-385v127l218 439h-214v127z" />
    <glyph glyph-name="zdotaccent" unicode="&#x17c;" horiz-adv-x="364" 
d="M180 635q-58 0 -58 54.5t58 54.5t58 -54.5t-58 -54.5zM23 590h318v-90l-155 -374h158v-126h-324v92l159 372h-156v126z" />
    <glyph glyph-name="Zcaron" unicode="&#x17d;" horiz-adv-x="425" 
d="M405 127v-127h-385v127l218 439h-214v127h377v-121l-224 -445h228zM154 732l-60 115h73l41 -54l40 54h73l-60 -115h-107z" />
    <glyph glyph-name="zcaron" unicode="&#x17e;" horiz-adv-x="364" 
d="M344 126v-126h-324v92l159 372h-156v126h318v-90l-155 -374h158zM129 632l-60 115h73l41 -54l40 54h73l-60 -115h-107z" />
    <glyph glyph-name="florin" unicode="&#x192;" horiz-adv-x="394" 
d="M394 626q-16 2 -36 2t-31 -11t-14 -37l-6 -49h58v-118h-74l-33 -248q-11 -84 -50.5 -126.5t-127.5 -42.5q-23 0 -55 5v116q16 -2 36 -2t31 11t14 37l33 250h-78v118h94l6 47q11 84 50.5 126.5t127.5 42.5q23 0 55 -5v-116z" />
    <glyph glyph-name="uni0218" unicode="&#x218;" horiz-adv-x="439" 
d="M228 -61q35 0 35 -32q0 -25 -19.5 -62t-38.5 -61h-48l25 155h46zM20 531q0 80 54 123.5t155.5 43.5t151.5 -21v-144q-61 26 -139 26q-40 0 -54 -12.5t-14 -35.5v-15q0 -28 9.5 -41.5t41.5 -30.5l114 -64q82 -45 82 -135v-62q0 -81 -60 -124.5t-168.5 -43.5t-163.5 23v145
q68 -29 154 -29t86 49v15q0 23 -9.5 34.5t-35.5 25.5l-107 58q-97 54 -97 152v63z" />
    <glyph glyph-name="uni0219" unicode="&#x219;" horiz-adv-x="388" 
d="M208 -61q35 0 35 -32q0 -25 -19.5 -62t-38.5 -61h-48l25 155h46zM22 434q0 80 48.5 120.5t156.5 40.5q74 0 122 -15v-133q-45 15 -98.5 15t-68 -9t-14.5 -29v-8q0 -12 7.5 -20.5t32.5 -25.5l81 -54q38 -25 58.5 -55t20.5 -75v-25q0 -166 -218 -166q-76 0 -130 13v135
q47 -14 104 -14t75.5 9.5t18.5 28.5v9q0 15 -10 24q-12 12 -115 80q-71 48 -71 128v26z" />
    <glyph glyph-name="uni021A" unicode="&#x21a;" horiz-adv-x="412" 
d="M407 693v-130h-125v-563h-152v563h-125v130h402zM215 -61q35 0 35 -32q0 -25 -19.5 -62t-38.5 -61h-48l25 155h46z" />
    <glyph glyph-name="uni021B" unicode="&#x21b;" horiz-adv-x="319" 
d="M198 -61q35 0 35 -32q0 -25 -19.5 -62t-38.5 -61h-48l25 155h46zM247 127q31 0 57 14v-134q-34 -16 -89 -16q-85 0 -121 40t-36 116v316h-53v127h60l46 102h98v-102h89v-127h-89v-300q0 -36 38 -36z" />
    <glyph glyph-name="circumflex" unicode="&#x2c6;" horiz-adv-x="350" 
d="M288 632h-73l-40 54l-41 -54h-73l60 115h107z" />
    <glyph glyph-name="caron" unicode="&#x2c7;" horiz-adv-x="350" 
d="M215 747h73l-60 -115h-107l-60 115h73l41 -54z" />
    <glyph glyph-name="uni02C9" unicode="&#x2c9;" horiz-adv-x="350" 
d="M41 728h267v-77h-267v77z" />
    <glyph glyph-name="breve" unicode="&#x2d8;" horiz-adv-x="350" 
d="M218 747h77q0 -52 -34 -83.5t-86 -31.5t-86 32t-34 83h77q0 -21 11 -34t32 -13t32 13t11 34z" />
    <glyph glyph-name="dotaccent" unicode="&#x2d9;" horiz-adv-x="350" 
d="M175 635q-58 0 -58 54.5t58 54.5t58 -54.5t-58 -54.5z" />
    <glyph glyph-name="ring" unicode="&#x2da;" horiz-adv-x="350" 
d="M203 689q0 12 -7.5 20t-20.5 8t-20.5 -8t-7.5 -20q0 -29 28 -29t28 29zM94 689q0 34 21.5 56.5t59.5 22.5t59.5 -22.5t21.5 -57t-21.5 -57t-59.5 -22.5t-59.5 23t-21.5 57z" />
    <glyph glyph-name="ogonek" unicode="&#x2db;" horiz-adv-x="350" 
d="M196 -95q0 -36 29 -36h11v-69h-24q-45 0 -70 21t-25 59q0 65 66 120h53q-40 -42 -40 -95z" />
    <glyph glyph-name="tilde" unicode="&#x2dc;" horiz-adv-x="350" 
d="M242 744h79v-5q-1 -49 -23 -77t-66 -28q-27 0 -61 19.5t-43 19.5q-21 0 -21 -37v-3h-79v2q2 108 89 108q29 0 62 -19.5t42 -19.5q21 0 21 36v4z" />
    <glyph glyph-name="hungarumlaut" unicode="&#x2dd;" horiz-adv-x="350" 
d="M89 747h100l-80 -115h-69zM209 747h100l-80 -115h-69z" />
    <glyph glyph-name="pi" unicode="&#x3c0;" horiz-adv-x="463" 
d="M45 590h438v-127h-60v-463h-153v463h-74v-463h-151v590z" />
    <glyph glyph-name="uni0901" unicode="&#x901;" horiz-adv-x="0" 
d="M-41 906h139v-5q0 -167 -210 -167t-210 167v5h140q0 -27 16.5 -39t54.5 -12q70 0 70 51zM-181 980q0 70 70 70t70 -70t-70 -70t-70 70z" />
    <glyph glyph-name="uni0902" unicode="&#x902;" horiz-adv-x="0" 
d="M-187 802q0 75 74.5 75t74.5 -75t-74.5 -75t-74.5 75z" />
    <glyph glyph-name="uni0903" unicode="&#x903;" horiz-adv-x="249" 
d="M49 75q0 75 75 75t75 -75t-74 -75q-76 0 -76 75zM49 418q0 75 75 75t75 -75t-75 -75t-75 75z" />
    <glyph glyph-name="uni0905" unicode="&#x905;" horiz-adv-x="608" 
d="M426 671h222v-117h-82v-554h-140v213h-70v-6q-1 -83 -50.5 -127t-159.5 -44q-67 0 -104 13v127q48 -13 95.5 -13t64 11.5t17.5 38.5v41q0 49 -53 49h-59v129h59q28 0 40.5 11t12.5 35v21q0 27 -16.5 38.5t-59.5 11.5t-87 -12v127q35 12 91 12q209 0 209 -171v-27
q0 -80 -43 -110q17 -11 28 -35h85v338z" />
    <glyph glyph-name="uni0906" unicode="&#x906;" horiz-adv-x="832" 
d="M872 671v-117h-82v-554h-140v554h-84v-554h-140v213h-70v-6q-1 -83 -50.5 -127t-159.5 -44q-67 0 -104 13v127q48 -13 95.5 -13t64 11.5t17.5 38.5v41q0 49 -53 49h-59v129h59q28 0 40.5 11t12.5 35v21q0 27 -16.5 38.5t-59.5 11.5t-87 -12v127q35 12 91 12
q209 0 209 -171v-27q0 -80 -43 -110q17 -11 28 -35h85v338h446z" />
    <glyph glyph-name="uni0907" unicode="&#x907;" horiz-adv-x="419" 
d="M236 -6q-24 0 -64 7v-83h-138v251h138v-44q23 -7 46 -7t32.5 9.5t9.5 29.5v17q0 37 -39 37h-26q-84 0 -126.5 33t-42.5 108v10q0 76 41 109t128 33h39v50h-274v117h498v-117h-84v-170h-179q-17 0 -23 -6t-6 -21v-2q0 -27 29 -27h26q92 0 135.5 -36t43.5 -113v-27
q0 -80 -37.5 -119t-126.5 -39z" />
    <glyph glyph-name="uni0908" unicode="&#x908;" horiz-adv-x="419" 
d="M346 906q52 0 80 -6v-124q-15 3 -34 3t-30.5 -7.5t-11.5 -34t20 -66.5h88v-117h-84v-170h-179q-17 0 -23 -6t-6 -21v-2q0 -27 29 -27h26q92 0 135.5 -36t43.5 -113v-27q0 -80 -37.5 -119t-126.5 -39q-24 0 -64 7v-83h-138v251h138v-44q23 -7 46 -7t32.5 9.5t9.5 29.5v17
q0 37 -39 37h-26q-84 0 -126.5 33t-42.5 108v10q0 76 41 109t128 33h39v50h-274v117h274q-25 59 -25 103q0 132 137 132z" />
    <glyph glyph-name="uni0909" unicode="&#x909;" horiz-adv-x="405" 
d="M225 507q0 32 -11 47h-254v117h484v-117h-90q11 -17 11 -47v-77q0 -73 -41 -100q41 -29 41 -102v-60q0 -173 -205 -173q-46 0 -121 13v127q69 -13 119 -13q67 0 67 49v47q0 49 -49 49h-61v129h71q23 0 31 10t8 29v72z" />
    <glyph glyph-name="uni090A" unicode="&#x90a;" horiz-adv-x="600" 
d="M225 507q0 32 -11 47h-254v117h680v-117h-286q11 -17 11 -47v-77q0 -25 -5 -47q34 9 66 9q157 0 157 -148v-81q0 -80 -38.5 -122.5t-111.5 -42.5l-29 2v129h9q19 1 24.5 8.5t5.5 30.5v48q0 25 -9.5 36t-33.5 11h-38q3 -17 3 -35v-60q0 -173 -205 -173q-46 0 -121 13v127
q69 -13 119 -13q67 0 67 49v47q0 49 -49 49h-61v129h71q23 0 31 10t8 29v72z" />
    <glyph glyph-name="uni090B" unicode="&#x90b;" horiz-adv-x="751" 
d="M791 554h-343v-116q47 -7 82 -7q55 0 55 47v13h136v-328h-47q-52 0 -52 -50.5t66 -50.5q30 0 57 5v-116q-32 -5 -75 -5q-184 0 -184 160q0 62 28 100t78 43v65q-24 -12 -60 -12t-84 8v-310h-131v26q0 87 10 147h-2q-26 -57 -72 -109l-54 -64h-173l-1 4l283 305v48
q-35 10 -75 10t-57 -15t-17 -47v-63h-134v73q0 88 45.5 134.5t147.5 46.5q50 0 90 -10v68h-348v117h831v-117z" />
    <glyph glyph-name="uni090C" unicode="&#x90c;" horiz-adv-x="649" 
d="M606 554v-541q-60 9 -102 9q-52 0 -52 -40t52 -40q42 0 103 9v-127q-54 -10 -106 -10q-92 0 -139.5 43.5t-47.5 120.5q0 156 152 170v212q-15 5 -35 5q-43 0 -43 -39v-104h-140v104q0 19 -8 29t-31 10t-31 -10t-8 -29v-138q0 -28 13 -43.5t40 -15.5t47 2v-128
q-24 -3 -41 -3q-103 0 -151 44.5t-48 137.5v149q0 78 45 120.5t129 42.5q45 0 72.5 -16.5t38.5 -38.5q36 54 103 54q25 0 48 -5v66h-506v117h729v-117h-83z" />
    <glyph glyph-name="uni090D" unicode="&#x90d;" horiz-adv-x="441" 
d="M251 -5q-110 0 -160 46t-50 143v370h-81v117h521v-117h-74v-150q0 -81 -35 -119.5t-124 -38.5q-6 0 -20 2v129h9q19 0 24.5 6.5t5.5 29.5v141h-86v-365q0 -34 16.5 -49.5t68.5 -15.5t114 18v-127q-60 -20 -129 -20zM294 901h140v-5q0 -167 -210.5 -167t-210.5 167v5h140
q0 -27 16.5 -39t54.5 -12q70 0 70 51z" />
    <glyph glyph-name="uni090E" unicode="&#x90e;" horiz-adv-x="441" 
d="M406 671h75v-117h-74v-150q0 -81 -35 -119.5t-124 -38.5q-6 0 -20 2v129h9q19 0 24.5 6.5t5.5 29.5v141h-86v-365q0 -34 16.5 -49.5t68.5 -15.5t114 18v-127q-60 -20 -129 -20q-110 0 -160 46t-50 143v370h-81v117h307q0 31 -14 45t-54 14q-107 0 -154 37t-47 134h140
q0 -31 14 -44.5t55 -13.5q104 0 151.5 -40t47.5 -132z" />
    <glyph glyph-name="uni090F" unicode="&#x90f;" horiz-adv-x="441" 
d="M251 -5q-110 0 -160 46t-50 143v370h-81v117h521v-117h-74v-150q0 -81 -35 -119.5t-124 -38.5q-6 0 -20 2v129h9q19 0 24.5 6.5t5.5 29.5v141h-86v-365q0 -34 16.5 -49.5t68.5 -15.5t114 18v-127q-60 -20 -129 -20z" />
    <glyph glyph-name="uni0910" unicode="&#x910;" horiz-adv-x="441" 
d="M481 671v-117h-74v-150q0 -81 -35 -119.5t-124 -38.5q-6 0 -20 2v129h9q19 0 24.5 6.5t5.5 29.5v141h-86v-365q0 -34 16.5 -49.5t68.5 -15.5t114 18v-127q-60 -20 -129 -20q-110 0 -160 46t-50 143v370h-81v117h301l-165 230h155l152 -230h78z" />
    <glyph glyph-name="uni0911" unicode="&#x911;" horiz-adv-x="833" 
d="M873 671v-117h-82v-554h-140v554h-85v-554h-140v213h-70v-6q-1 -83 -50.5 -127t-159.5 -44q-67 0 -104 13v127q48 -13 95.5 -13t64 11.5t17.5 38.5v41q0 49 -53 49h-59v129h59q28 0 40.5 11t12.5 35v21q0 27 -16.5 38.5t-59.5 11.5t-87 -12v127q35 12 91 12
q209 0 209 -171v-27q0 -80 -43 -110q17 -11 28 -35h85v338h447zM826 901v-5q0 -167 -209.5 -167t-209.5 167v5h139q0 -27 16.5 -39t53.5 -12q70 0 70 51h140z" />
    <glyph glyph-name="uni0912" unicode="&#x912;" horiz-adv-x="833" 
d="M791 671h82v-117h-82v-554h-140v554h-85v-554h-140v213h-70v-6q-1 -83 -50.5 -127t-159.5 -44q-67 0 -104 13v127q48 -13 95.5 -13t64 11.5t17.5 38.5v41q0 49 -53 49h-59v129h59q28 0 40.5 11t12.5 35v21q0 27 -16.5 38.5t-59.5 11.5t-87 -12v127q35 12 91 12
q209 0 209 -171v-27q0 -80 -43 -110q17 -11 28 -35h85v338h225q0 31 -13.5 45t-53.5 14q-107 0 -153.5 37t-46.5 134h139q0 -31 14 -44.5t55 -13.5q104 0 151.5 -40.5t47.5 -131.5z" />
    <glyph glyph-name="uni0913" unicode="&#x913;" horiz-adv-x="833" 
d="M873 671v-117h-82v-554h-140v554h-85v-554h-140v213h-70v-6q-1 -83 -50.5 -127t-159.5 -44q-67 0 -104 13v127q48 -13 95.5 -13t64 11.5t17.5 38.5v41q0 49 -53 49h-59v129h59q28 0 40.5 11t12.5 35v21q0 27 -16.5 38.5t-59.5 11.5t-87 -12v127q35 12 91 12
q209 0 209 -171v-27q0 -80 -43 -110q17 -11 28 -35h85v338h223l-52 72q-30 42 -76 42q-16 0 -26 -1v114q23 3 59.5 3t72.5 -18.5t70 -69.5l94 -142h82z" />
    <glyph glyph-name="uni0914" unicode="&#x914;" horiz-adv-x="833" 
d="M873 671v-117h-82v-554h-140v554h-85v-554h-140v213h-70v-6q-1 -83 -50.5 -127t-159.5 -44q-67 0 -104 13v127q48 -13 95.5 -13t64 11.5t17.5 38.5v41q0 49 -53 49h-59v129h59q28 0 40.5 11t12.5 35v21q0 27 -16.5 38.5t-59.5 11.5t-87 -12v127q35 12 91 12
q209 0 209 -171v-27q0 -80 -43 -110q17 -11 28 -35h85v338h92l-59 72q-35 42 -76 42q-16 0 -26 -1v114q23 3 45 3q46 0 80 -23t74 -76l98 -131h12l-26 72q-8 23 -16.5 32t-19.5 9t-16 -1v115q18 3 34 3q91 0 122 -99l41 -131h88z" />
    <glyph glyph-name="uni0915" unicode="&#x915;" horiz-adv-x="632" 
d="M172 176.5q9 -10.5 32 -10.5t43 8v380h-287v117h711v-117h-288v-54q27 5 61 5q81 0 118.5 -39t37.5 -118v-133q0 -80 -35 -118t-117 -38l-21 2v131q27 -4 33.5 5.5t6.5 31.5v114q0 21 -9 31.5t-33 10.5l-42 -5v-380h-137v59q-28 -8 -60 -8q-82 0 -119 36.5t-37 114.5v146
q0 79 37.5 118t118.5 39l29 -3v-118q-5 1 -19.5 1t-23.5 -10.5t-9 -31.5v-135q0 -21 9 -31.5z" />
    <glyph glyph-name="uni0916" unicode="&#x916;" horiz-adv-x="793" 
d="M240 507q0 31 -10 47h-270v117h872v-117h-83v-554h-136v105q-18 -6 -52 -6q-89 0 -124 38t-35 119v78q0 83 32.5 122.5t119.5 39.5l59 -5v63h-250q6 -16 6 -47v-121q0 -79 -37.5 -119.5t-120.5 -40.5q-15 0 -45 4v-35q0 -36 21.5 -55t80 -19t113.5 23v-130
q-54 -19 -132 -19q-111 0 -163.5 54t-52.5 144v258h133v-100q24 -2 40 -2q34 0 34 39v119zM573 375q-46 0 -46 -40v-79q0 -40 46 -40l40 5v149q-17 5 -40 5z" />
    <glyph glyph-name="uni0917" unicode="&#x917;" horiz-adv-x="494" 
d="M533 671v-117h-81v-554h-140v554h-78v-219q0 -84 -45 -125.5t-124 -41.5l-55 3v135q18 -2 34 -2q50 0 50 43v207h-134v117h573z" />
    <glyph glyph-name="uni0918" unicode="&#x918;" horiz-adv-x="505" 
d="M323 554h-132q-10 -13 -10 -47v-37q0 -19 8 -29t31 -10h44v-129h-50q-23 0 -31 -10t-8 -29v-28q0 -29 18 -41t57 -12t73 10v362zM41 507q0 27 6 47h-87v117h584v-117h-81v-554h-140v67q-46 -10 -96 -10q-95 0 -143.5 44t-48.5 116v51q0 76 44 102q-38 29 -38 95v42z" />
    <glyph glyph-name="uni0919" unicode="&#x919;" horiz-adv-x="554" 
d="M396 318q0 75 75 75t75 -75t-75 -75t-75 75zM408 163v-7q0 -85 -52.5 -126t-161.5 -41q-64 0 -143 17v127q79 -17 124.5 -17t59 2t23.5 11t10 27v4q0 17 -8 26t-31 9h-25q-84 0 -126.5 33t-42.5 108v26q0 76 41 109t128 33h34v50h-278v117h634v-117h-216v-170h-174
q-29 0 -29 -31v-10q0 -31 29 -31h25q92 0 135.5 -36t43.5 -113z" />
    <glyph glyph-name="uni091A" unicode="&#x91a;" horiz-adv-x="489" 
d="M67 316q0 27 6 49h-60v126h258v-120h-53q-11 -14 -11 -56v-91q0 -48 54 -48q25 0 46 7v371h-347v117h568v-117h-81v-554h-140v61q-32 -8 -73 -8q-86 0 -126.5 40.5t-40.5 125.5v97z" />
    <glyph glyph-name="uni091B" unicode="&#x91b;" horiz-adv-x="555" 
d="M364.5 371.5q-14.5 14.5 -46 14.5t-51.5 -9v114q26 10 64 10v53h-140q-11 -13 -11 -47v-133q0 -19 8 -29t31 -10h77v-122h-72q-27 0 -37.5 -8t-10.5 -34v-3q0 -29 18 -37.5t82 -8.5t83.5 13.5t19.5 46.5v140q0 35 -14.5 49.5zM40 507q0 25 11 47h-91v117h634v-117h-133
v-75q54 -28 54 -132v-172q0 -95 -52.5 -136.5t-184 -41.5t-187.5 38.5t-56 124.5v23q0 64 44 91q-39 26 -39 94v139z" />
    <glyph glyph-name="uni091C" unicode="&#x91c;" horiz-adv-x="594" 
d="M200 315q0 29 -11 47h-99v129h322v63h-452v117h673v-117h-81v-554h-140v371h-81q9 -17 9 -47v-102q0 -87 -51.5 -130.5t-147.5 -43.5q-47 0 -88 10v126q43 -9 82 -9q65 0 65 52v88z" />
    <glyph glyph-name="uni091D" unicode="&#x91d;" horiz-adv-x="648" 
d="M209 328h257v226h-78v-170h-179q-16 0 -22.5 -6t-6.5 -20v-2q0 -15 6 -21.5t23 -6.5zM220 211h-11q-84 0 -126.5 33t-42.5 108v10q0 76 41 109t128 33h39v50h-288v117h727v-117h-81v-554h-140v220h-78q13 -20 13 -51v-25q0 -82 -39.5 -115.5t-115.5 -33.5l-70 6v-82h-138
v250h138v-49q21 -4 45 -4t33.5 9.5t9.5 29.5v15q0 21 -9.5 31t-34.5 10z" />
    <glyph glyph-name="uni091E" unicode="&#x91e;" horiz-adv-x="605" 
d="M210 226v106q0 28 -15.5 42t-56 14t-78.5 -10v124q39 13 83 13q110 0 158.5 -44.5t48.5 -127.5v-5h73v216h-463v117h684v-117h-81v-554h-140v218h-73v-5q0 -83 -48.5 -126.5t-158.5 -43.5q-38 0 -83 13v124q42 -10 80.5 -10t54 14t15.5 42z" />
    <glyph glyph-name="uni091F" unicode="&#x91f;" horiz-adv-x="418" 
d="M175 304v-123q0 -34 20.5 -46.5t69 -12.5t116.5 11v-125q-69 -13 -131 -13q-105 0 -160 46.5t-55 136.5v137q0 86 46.5 131t139.5 45h6v63h-267v117h497v-117h-90v-190h-129q-30 0 -46.5 -15.5t-16.5 -44.5z" />
    <glyph glyph-name="uni0920" unicode="&#x920;" horiz-adv-x="428" 
d="M258 156v193q0 42 -44 42t-44 -42v-193q0 -42 44 -42t44 42zM393 354v-196q0 -163 -179 -163t-179 163v196q0 123 109 148v52h-184v117h507v-117h-183v-52q109 -25 109 -148z" />
    <glyph glyph-name="uni0921" unicode="&#x921;" horiz-adv-x="429" 
d="M378 384h-174q-29 0 -29 -31v-10q0 -31 29 -31h25q92 0 135.5 -36t43.5 -113v-7q0 -85 -52.5 -126t-161.5 -41q-66 0 -143 17v127q83 -17 132 -17t67 8.5t18 34.5q0 36 -39 36h-25q-84 0 -126.5 33t-42.5 108v26q0 76 41 109t128 33h34v50h-278v117h509v-117h-91v-170z
" />
    <glyph glyph-name="uni0922" unicode="&#x922;" horiz-adv-x="435" 
d="M209 499h36v55h-285v117h514v-117h-91v-182h-174q-23 0 -30 -8.5t-7 -28.5v-163q0 -25 10 -37t40 -12t40 11t10 36v3q0 33 -37 33l-25 -3v123q20 3 46 3q76 0 113 -35t37 -117v-15q0 -86 -44 -126.5t-140 -40.5q-188 0 -188 172v173q0 85 41 122t134 37z" />
    <glyph glyph-name="uni0923" unicode="&#x923;" horiz-adv-x="651" 
d="M251 554h-76v-287q0 -20 7.5 -29.5t30.5 -9.5t30.5 9.5t7.5 29.5v287zM391 266q0 -163 -178 -163t-178 163v288h-75v117h731v-117h-82v-554h-140v554h-78v-288z" />
    <glyph glyph-name="uni0924" unicode="&#x924;" horiz-adv-x="463" 
d="M210 496q39 0 71 -6v64h-321v117h543v-117h-82v-554h-140v362q-27 5 -50 5q-56 0 -56 -49v-150q0 -23 11 -30.5t38 -7.5v-132h-30q-89 0 -124 37.5t-35 118.5v169q0 81 43 127t132 46z" />
    <glyph glyph-name="uni0925" unicode="&#x925;" horiz-adv-x="598" 
d="M416 671h222v-117h-82v-554h-140v85q-51 -11 -117 -11q-121 0 -192.5 57.5t-71.5 159.5v131h133q41 0 56.5 14t15.5 47v32q0 19 -6 27.5t-24 8.5q-30 0 -30 -39l3 -31h-133q-3 14 -3 32q0 163 159.5 163t159.5 -160v-58q0 -157 -177 -157h-11v-5q0 -50 29.5 -72t98.5 -22
t110 10v459z" />
    <glyph glyph-name="uni0926" unicode="&#x926;" horiz-adv-x="430" 
d="M30 217v119q0 88 43 123.5t138 35.5h32v59h-283v117h510v-117h-87v-186h-172q-25 0 -33 -8.5t-8 -28.5v-109q0 -19 9 -28.5t31 -9.5t42 6v88h140v-278h-140v67q-24 -6 -61 -6q-83 0 -122 38.5t-39 117.5z" />
    <glyph glyph-name="uni0927" unicode="&#x927;" horiz-adv-x="505" 
d="M41 507q0 25 11 47h-92v117h293v-117h-56q-16 -13 -16 -47v-37q0 -19 8 -29t31 -10h44v-129h-50q-23 0 -31 -10t-8 -29v-28q0 -53 74 -53q34 0 74 10v479h222v-117h-82v-554h-140v67q-40 -10 -94 -10q-96 0 -145 42.5t-49 117.5v51q0 76 44 102q-38 29 -38 95v42z" />
    <glyph glyph-name="uni0928" unicode="&#x928;" horiz-adv-x="608" 
d="M199 362q-22 0 -29 -9.5t-7 -29.5v-107q0 -20 7 -29.5t29 -9.5t29 9.5t7 29.5v85q0 43 -7 61h-29zM426 362h-66q6 -21 6 -56v-91q0 -81 -39 -122t-128 -41t-129 41.5t-40 121.5v113q0 80 40 121.5t129 41.5h227v63h-466v117h688v-117h-82v-554h-140v362z" />
    <glyph glyph-name="uni0928093C" unicode="&#x929;" horiz-adv-x="613" 
d="M-28 -53q0 75 75 75t75 -75t-75 -75t-75 75zM204 362q-22 0 -29 -9.5t-7 -29.5v-107q0 -20 7 -29.5t29 -9.5t29 9.5t7 29.5v85q0 43 -7 61h-29zM431 362h-66q6 -21 6 -56v-91q0 -81 -39 -122t-128 -41t-129 41.5t-40 121.5v113q0 80 40 121.5t129 41.5h227v63h-471v117
h693v-117h-82v-554h-140v362z" />
    <glyph glyph-name="uni092A" unicode="&#x92a;" horiz-adv-x="445" 
d="M222 238q18 0 41 7v309h-86v-276q0 -40 45 -40zM263 0v122q-26 -8 -65 -8q-86 0 -123.5 39t-37.5 119v282h-77v117h525v-117h-82v-554h-140z" />
    <glyph glyph-name="uni092B" unicode="&#x92b;" horiz-adv-x="644" 
d="M256 554h-78v-290q0 -40 45 -40q19 0 33 4v326zM432 372q-18 0 -36 -6v-366h-140v106q-30 -6 -57 -6q-86 0 -123.5 39t-37.5 119v296h-78v117h724v-117h-288v-61q22 8 56 8q162 0 162 -163v-124q0 -79 -38 -117.5t-121 -38.5q-11 0 -17 1v130q22 0 29 8t7 31v105
q0 39 -42 39z" />
    <glyph glyph-name="uni092C" unicode="&#x92c;" horiz-adv-x="470" 
d="M-40 671h550v-117h-82v-554h-133v61q-27 -8 -72 -8q-97 0 -145 37.5t-48 130.5v117q0 93 45.5 130.5t141.5 37.5q45 0 78 -11v59h-335v117zM295 380q-31 11 -63.5 11t-50.5 -13l114 -113v115zM163 227q0 -59 70 -59q22 0 56 4l-126 125v-70z" />
    <glyph glyph-name="uni092D" unicode="&#x92d;" horiz-adv-x="648" 
d="M248 434v74q0 20 -6.5 29.5t-29.5 9.5t-29.5 -9.5t-6.5 -29.5l4 -32h-140q-4 22 -4 37q0 163 176 163t176 -163v-79h78v237h222v-117h-82v-554h-140v316h-84v-109q0 -153 -173 -153t-173 153v75q0 152 173 152h39zM248 212v104h-39q-23 0 -31 -10t-8 -29v-65q0 -19 8 -29
t31 -10t31 10t8 29z" />
    <glyph glyph-name="uni092E" unicode="&#x92e;" horiz-adv-x="624" 
d="M445 0v328h-74v-120q0 -153 -173 -153t-173 153v86q0 152 173 152h39v108h-277v117h704v-117h-82v-554h-137zM371 446h74v108h-74v-108zM237 213v115h-39q-23 0 -31 -10t-8 -29v-76q0 -19 8 -29t31 -10t31 10t8 29z" />
    <glyph glyph-name="uni092F" unicode="&#x92f;" horiz-adv-x="527" 
d="M143 507q0 33 -7 47h-176v117h607v-117h-82v-554h-140v95q-31 -9 -83 -9q-106 0 -169 48.5t-63 135.5v126h24q52 0 70.5 13t18.5 50v48zM279 507v-77q0 -116 -112 -122v-18q0 -74 103 -74q44 0 75 8v330h-72q6 -20 6 -47z" />
    <glyph glyph-name="uni0930" unicode="&#x930;" horiz-adv-x="438" 
d="M240 242q-20 0 -60 7v-70q0 -58 92 -58q70 0 132 26v-130q-63 -22 -160.5 -22t-150.5 49t-53 130v277h140v-81q18 -5 40 -5t30 10t8 29v103q0 31 -10 47h-288v117h517v-117h-85q6 -16 6 -47v-105q0 -79 -37.5 -119.5t-120.5 -40.5z" />
    <glyph glyph-name="uni0930093C" unicode="&#x931;" horiz-adv-x="446" 
d="M249 242q-20 0 -60 7v-70q0 -58 92 -58q70 0 132 26v-130q-63 -22 -160.5 -22t-150.5 49t-53 130v277h140v-81q18 -5 40 -5t30 10t8 29v103q0 31 -10 47h-297v117h526v-117h-85q6 -16 6 -47v-105q0 -79 -37.5 -119.5t-120.5 -40.5zM-48 -96q0 75 73 75q75 0 75 -75
t-75 -75q-73 0 -73 75z" />
    <glyph glyph-name="uni0932" unicode="&#x932;" horiz-adv-x="653" 
d="M35 182v149q0 78 45 120.5t128.5 42.5t111.5 -55q36 54 103 54l48 -5v66h-511v117h733v-117h-82v-554h-140v360q-15 5 -35 5q-43 0 -43 -39v-114h-140v114q0 19 -8 29t-31 10t-31 -10t-8 -29v-138q0 -29 14.5 -44t51.5 -15t64 3v-128q-32 -4 -67 -4q-106 0 -154.5 44.5
t-48.5 137.5z" />
    <glyph glyph-name="uni0933" unicode="&#x933;" horiz-adv-x="624" 
d="M381 331v-171q0 -21 8.5 -31.5t32.5 -10.5t32.5 10.5t8.5 31.5v171q0 21 -8.5 31.5t-32.5 10.5t-32.5 -10.5t-8.5 -31.5zM167 331v-171q0 -21 8.5 -31.5t32.5 -10.5t32.5 10.5t8.5 31.5v171q0 21 -8.5 31.5t-32.5 10.5t-32.5 -10.5t-8.5 -31.5zM589 333v-175
q0 -80 -38 -121.5t-117 -41.5t-118 45q-42 -45 -113 -45q-168 0 -168 163v179q0 159 168 159q72 0 113 -46q19 22 43 32v72h-399v117h704v-117h-165v-68q90 -30 90 -153z" />
    <glyph glyph-name="uni0933093C" unicode="&#x934;" horiz-adv-x="624" 
d="M241 -124q0 75 75 75t75 -75t-75 -75t-75 75zM381 331v-171q0 -21 8.5 -31.5t32.5 -10.5t32.5 10.5t8.5 31.5v171q0 21 -8.5 31.5t-32.5 10.5t-32.5 -10.5t-8.5 -31.5zM167 331v-171q0 -21 8.5 -31.5t32.5 -10.5t32.5 10.5t8.5 31.5v171q0 21 -8.5 31.5t-32.5 10.5
t-32.5 -10.5t-8.5 -31.5zM589 333v-175q0 -80 -38 -121.5t-117 -41.5t-118 45q-42 -45 -113 -45q-168 0 -168 163v179q0 159 168 159q72 0 113 -46q19 22 43 32v72h-399v117h704v-117h-165v-68q90 -30 90 -153z" />
    <glyph glyph-name="uni0935" unicode="&#x935;" horiz-adv-x="447" 
d="M224 388q-53 0 -53 -43v-131q0 -44 54 -44q28 0 47 7v206q-25 5 -48 5zM265 554h-305v117h527v-117h-82v-554h-140v59q-35 -7 -66 -7q-89 0 -126.5 39t-37.5 120v135q0 80 38.5 120t125.5 40q31 0 66 -7v55z" />
    <glyph glyph-name="uni0936" unicode="&#x936;" horiz-adv-x="641" 
d="M235 231q-29 0 -55 7v-42q0 -68 81 -68q59 0 121 26v-130q-63 -22 -154 -22t-139.5 52.5t-48.5 136.5v212h140v-44q18 -5 40 -5t30 9.5t8 28.5v116q0 19 -8 29t-31 10q-39 0 -39 -42q0 -22 4 -38h-140q-4 28 -4 46q0 163 179 163t179 -163v-126q0 -156 -163 -156z
M459 671h222v-117h-82v-554h-140v671z" />
    <glyph glyph-name="uni0937" unicode="&#x937;" horiz-adv-x="469" 
d="M-42 671h551v-117h-82v-554h-140v124q-40 -10 -87 -10q-87 0 -126 39.5t-39 118.5v282h-77v117zM287 554h-112v-61l112 -97v158zM175 278q0 -40 52 -40q29 0 60 10v51l-112 98v-119z" />
    <glyph glyph-name="uni0938" unicode="&#x938;" horiz-adv-x="642" 
d="M245 507q0 31 -10 47h-275v117h722v-117h-82v-554h-140v261h-115q-37 -39 -118 -39q-28 0 -51 5v-48q0 -58 92 -58q59 0 121 26v-130q-63 -22 -155 -22t-145 49t-53 130v277h140v-102q16 -4 34 -4q35 0 35 39v123zM460 381v173h-84q6 -16 6 -47v-126h78z" />
    <glyph glyph-name="uni0939" unicode="&#x939;" horiz-adv-x="448" 
d="M38 158v17q0 68 43 97q-43 25 -44 87v18q0 70 41 100.5t128 30.5h47v46h-293v117h528v-117h-95v-166h-187q-29 0 -29 -23v-8q0 -23 29 -23h73q75 0 107 -33.5t32 -103.5v-31h-123v18q0 20 -7 27.5t-27 7.5h-44q-23 0 -31 -10t-8 -29v-13q0 -53 86 -53q73 0 139 20v-121
q-71 -20 -161.5 -20t-147 42t-56.5 123z" />
    <glyph glyph-name="uni093C" unicode="&#x93c;" horiz-adv-x="0" 
d="M-279 -124q0 75 75 75t75 -75t-75 -75t-75 75z" />
    <glyph glyph-name="uni093D" unicode="&#x93d;" horiz-adv-x="421" 
d="M396 189v-21q0 -173 -177 -173h-18q-179 0 -179 173v55h140v-60q0 -38 44 -38h6q44 0 44 38v29q0 25 -7.5 38.5t-28.5 28.5l-125 89q-72 52 -72 137v26q0 80 39 120t129 40h180v-130h-169q-23 0 -31 -10t-8 -28v-11q0 -21 8 -33.5t29 -27.5l121 -86q46 -33 60.5 -66.5
t14.5 -89.5z" />
    <glyph glyph-name="uni093E" unicode="&#x93e;" 
d="M42 554h-82v117h304v-117h-82v-554h-140v554z" />
    <glyph glyph-name="uni093F" unicode="&#x93f;" 
d="M45 671v16q0 109 68.5 162.5t188.5 53.5q74 0 146.5 -11.5t143.5 -33.5v-124q-142 40 -278 40q-73 0 -101 -20t-28 -70v-13h79v-117h-82v-554h-140v554h-82v117h85z" />
    <glyph glyph-name="uni0940" unicode="&#x940;" 
d="M42 671v70q0 39 -43 39t-43 -39v-18h-139v20q0 82 48 122.5t135 40.5t134.5 -40.5t47.5 -122.5v-72h82v-117h-82v-554h-140v554h-82v117h82z" />
    <glyph glyph-name="uni0941" unicode="&#x941;" horiz-adv-x="0" 
d="M-114.5 -95q-9.5 7 -43.5 7t-70 -8v108q35 8 102.5 8t105 -32.5t37.5 -106.5t-32 -107t-103 -33h-93q-55 0 -94.5 19t-81.5 74l-92 121h153l44 -56q26 -33 41.5 -42.5t47.5 -9.5h47q22 0 31.5 7t9.5 25.5t-9.5 25.5z" />
    <glyph glyph-name="uni0942" unicode="&#x942;" horiz-adv-x="0" 
d="M-128 -269q-76 0 -115.5 32.5t-39.5 106.5t32 107t103 33h60q54 0 95.5 -20t82.5 -76l115 -157h-149l-73 95q-26 33 -41.5 42.5t-47.5 9.5h-14q-22 0 -31.5 -7t-9.5 -26q0 -32 43 -32q28 0 63 5v-108q-40 -5 -73 -5z" />
    <glyph glyph-name="uni0943" unicode="&#x943;" horiz-adv-x="0" 
d="M-146 -127q-50 0 -50 -40t51 -40q36 0 104 9v-127q-50 -10 -106 -10q-92 0 -139.5 43.5t-47.5 124.5t47.5 124.5t139.5 43.5q39 0 105 -10v-127q-54 9 -104 9z" />
    <glyph glyph-name="uni0944" unicode="&#x944;" horiz-adv-x="0" 
d="M-191 -320v-4q0 -17 11 -22t55 -5t84 5v-126q-43 -7 -109 -7q-181 0 -181 158q0 54 25 85q-26 32 -26 87q0 77 43.5 113t135.5 36q55 0 110 -5v-119q-60 5 -90.5 5t-38 -1t-14 -8t-6.5 -20v-2q0 -19 9 -24t30 -5h81v-112h-80q-14 0 -21 -1t-12.5 -8t-5.5 -20z" />
    <glyph glyph-name="uni0945" unicode="&#x945;" horiz-adv-x="0" 
d="M-41 906h139v-5q0 -167 -210 -167t-210 167v5h140q0 -27 16.5 -39t54.5 -12q70 0 70 51z" />
    <glyph glyph-name="uni0946" unicode="&#x946;" horiz-adv-x="0" 
d="M-181 671q0 31 -14 45t-54 14q-107 0 -154 37t-47 134h140q0 -31 14 -44.5t55 -13.5q104 0 151.5 -40t47.5 -132h-139z" />
    <glyph glyph-name="uni0947" unicode="&#x947;" horiz-adv-x="0" 
d="M-338 898q23 3 59.5 3t72.5 -18.5t70 -69.5l94 -142h-142l-52 72q-30 42 -76 42q-16 0 -26 -1v114z" />
    <glyph glyph-name="uni0948" unicode="&#x948;" horiz-adv-x="0" 
d="M-205 901q91 0 122 -99l41 -131h-119l-26 72q-8 23 -16.5 32t-19.5 9t-16 -1v115q18 3 34 3zM-425 901q46 0 80 -23t74 -76l98 -131h-136l-59 72q-35 42 -76 42q-16 0 -26 -1v114q23 3 45 3z" />
    <glyph glyph-name="uni0949" unicode="&#x949;" 
d="M187 901h140v-5q0 -167 -209.5 -167t-209.5 167v5h139q0 -27 16.5 -39t53.5 -12q70 0 70 51zM42 554h-82v117h304v-117h-82v-554h-140v554z" />
    <glyph glyph-name="uni094A" unicode="&#x94a;" 
d="M42 554h-82v117h82q0 31 -13.5 45t-53.5 14q-107 0 -153.5 37t-46.5 134h139q0 -31 14 -44.5t55 -13.5q104 0 151.5 -40.5t47.5 -131.5h82v-117h-82v-554h-140v554z" />
    <glyph glyph-name="uni094B" unicode="&#x94b;" 
d="M264 671v-117h-82v-554h-140v554h-82v117h80l-52 72q-30 42 -76 42q-16 0 -26 -1v114q22 3 59 3t73 -18.5t70 -69.5l94 -142h82z" />
    <glyph glyph-name="uni094C" unicode="&#x94c;" 
d="M264 671v-117h-82v-554h-140v554h-178v117h45l-59 72q-35 42 -76 42q-16 0 -26 -1v114q22 3 45 3q46 0 80 -23t74 -76l98 -131h12l-26 72q-8 23 -16.5 32t-19.5 9t-16 -1v115q18 3 34 3q91 0 122 -99l41 -131h88z" />
    <glyph glyph-name="uni094D" unicode="&#x94d;" horiz-adv-x="0" 
d="M83 -229h-144l-111 171h126z" />
    <glyph glyph-name="uni0950" unicode="&#x950;" horiz-adv-x="827" 
d="M426 309v204q0 163 173 163t173 -161v-329q0 -96 -52.5 -143.5t-162.5 -47.5q-52 0 -100 11v127q46 -9 96 -9t67 16t17 57v311q0 20 -7.5 29.5t-30.5 9.5t-30.5 -9.5t-7.5 -29.5v-255q0 -34 -11 -49t-47 -15h-147v-23q-1 -83 -50.5 -127t-159.5 -44q-67 0 -104 13v127
q48 -13 95.5 -13t64 11.5t17.5 38.5v52q0 49 -53 49h-59v129h59q28 0 40.5 11t12.5 35v51q0 27 -16.5 38.5t-59.5 11.5t-87 -12v127q35 12 91 12q209 0 209 -171v-57q0 -80 -43 -110q16 -11 25 -29h88zM596 851v-5q0 -167 -210.5 -167t-210.5 167v5h140q0 -27 16.5 -39
t54.5 -12q70 0 70 51h140zM386 855q-70 0 -70 70t70 70t70 -70t-70 -70z" />
    <glyph glyph-name="uni0951" unicode="&#x951;" horiz-adv-x="0" 
d="M-182 981h140v-260h-140v260z" />
    <glyph glyph-name="uni0952" unicode="&#x952;" horiz-adv-x="0" 
d="M-54 -199h-447v118h447v-118z" />
    <glyph glyph-name="uni0953" unicode="&#x953;" horiz-adv-x="337" 
d="M25 981h148l130 -260h-148z" />
    <glyph glyph-name="uni0954" unicode="&#x954;" horiz-adv-x="335" 
d="M155 981h148l-130 -260h-148z" />
    <glyph glyph-name="uni0915093C" unicode="&#x958;" horiz-adv-x="630" 
d="M61 -55q0 75 75 75t75 -75t-75 -75t-75 75zM172 176.5q9 -10.5 32 -10.5t43 8v380h-287v117h711v-117h-288v-54q27 5 61 5q81 0 118.5 -39t37.5 -118v-133q0 -80 -35 -118t-117 -38l-21 2v131q27 -4 33.5 5.5t6.5 31.5v114q0 21 -9 31.5t-33 10.5l-42 -5v-380h-137v59
q-28 -8 -60 -8q-82 0 -119 36.5t-37 114.5v146q0 79 37.5 118t118.5 39l29 -3v-118q-5 1 -19.5 1t-23.5 -10.5t-9 -31.5v-135q0 -21 9 -31.5z" />
    <glyph glyph-name="uni0916093C" unicode="&#x959;" horiz-adv-x="796" 
d="M245 507q0 31 -10 47h-275v117h876v-117h-82v-554h-136v105q-18 -6 -52 -6q-89 0 -124 38t-35 119v78q0 83 32.5 122.5t119.5 39.5l59 -5v63h-250q6 -16 6 -47v-121q0 -79 -37.5 -119.5t-120.5 -40.5q-15 0 -45 4v-35q0 -36 21.5 -55t80 -19t113.5 23v-130
q-54 -19 -132 -19q-111 0 -163.5 54t-52.5 144v258h133v-100q24 -2 41 -2q33 0 33 39v119zM578 375q-46 0 -46 -40v-79q0 -40 46 -40l40 5v149q-17 5 -40 5zM50 4q75 0 75 -75t-75 -75q-73 0 -73 75t73 75z" />
    <glyph glyph-name="uni0917093C" unicode="&#x95a;" horiz-adv-x="502" 
d="M541 671v-117h-81v-554h-140v554h-78v-219q0 -84 -45 -125.5t-124 -41.5l-55 3v135q18 -2 34 -2q50 0 50 43v207h-134v117h573zM127 109q75 0 75 -75t-75 -75t-75 75t75 75z" />
    <glyph glyph-name="uni091C093C" unicode="&#x95b;" horiz-adv-x="594" 
d="M200 315q0 29 -11 47h-99v129h322v63h-452v117h673v-117h-81v-554h-140v371h-81q9 -17 9 -47v-102q0 -87 -51.5 -130.5t-147.5 -43.5q-47 0 -88 10v126q43 -9 82 -9q65 0 65 52v88zM-11 -64q0 75 76 75q74 0 74 -75t-75 -75t-75 75z" />
    <glyph glyph-name="uni0921093C" unicode="&#x95c;" horiz-adv-x="430" 
d="M378 384h-174q-29 0 -29 -31v-10q0 -31 29 -31h25q92 0 135.5 -36t43.5 -113v-7q0 -85 -52.5 -126t-161.5 -41q-66 0 -143 17v127q83 -17 132 -17t67 8.5t18 34.5q0 36 -39 36h-25q-84 0 -126.5 33t-42.5 108v26q0 76 41 109t128 33h34v50h-278v117h509v-117h-91v-170z
M225 -49q75 0 75 -75t-75 -75t-75 75t75 75z" />
    <glyph glyph-name="uni0922093C" unicode="&#x95d;" horiz-adv-x="435" 
d="M150 -124q0 75 75 75t75 -75t-75 -75t-75 75zM239 206q-17 0 -29 -8v123q19 8 48 8q76 0 112 -35t36 -117v-15q0 -86 -44 -126.5t-140 -40.5q-188 0 -188 172v173q0 85 41 122t134 37h36v55h-285v117h514v-117h-91v-182h-174q-23 0 -30 -8.5t-7 -28.5v-163q0 -25 10 -37
t40 -12t40 11t10 36v2q0 20 -8 27t-25 7z" />
    <glyph glyph-name="uni092B093C" unicode="&#x95e;" horiz-adv-x="656" 
d="M268 554h-78v-290q0 -40 45 -40q19 0 33 4v326zM444 372q-18 0 -36 -6v-366h-140v106q-30 -6 -57 -6q-86 0 -123.5 39t-37.5 119v296h-90v117h736v-117h-288v-61q22 8 56 8q162 0 162 -163v-124q0 -79 -38 -117.5t-121 -38.5q-11 0 -17 1v130q22 0 29 8t7 31v105
q0 39 -42 39zM21 -24q0 75 75 75t75 -75t-75 -75t-75 75z" />
    <glyph glyph-name="uni092F093C" unicode="&#x95f;" horiz-adv-x="535" 
d="M151 507q0 33 -7 47h-184v117h615v-117h-82v-554h-140v95q-31 -9 -83 -9q-106 0 -169 48.5t-63 135.5v126h24q52 0 70.5 13t18.5 50v48zM287 507v-77q0 -116 -112 -122v-18q0 -74 103 -74q44 0 75 8v330h-72q6 -20 6 -47zM-19 8q0 75 73 75q75 0 75 -75t-75 -75
q-73 0 -73 75z" />
    <glyph glyph-name="uni0960" unicode="&#x960;" horiz-adv-x="775" 
d="M814 554h-366v-113q53 -10 96 -10q55 0 55 47v13h136v-328h-66q-28 0 -31 -19q-2 -8 -2 -21t1.5 -20.5t9 -14t22.5 -6.5h47v-116h-45q-19 0 -27 -8t-8 -31.5t11.5 -32t42.5 -8.5t70 7v-119q-46 -7 -85 -7q-178 0 -178 141q0 69 35 107q-32 34 -32 101q0 122 106 133v65
q-24 -12 -59.5 -12t-98.5 10v-312h-131v26q0 87 10 147h-2q-26 -57 -72 -109l-54 -64h-173l-1 4l283 305v48q-35 10 -75 10t-57 -15t-17 -47v-63h-134v73q0 88 45.5 134.5t147.5 46.5q50 0 90 -10v68h-348v117h854v-117z" />
    <glyph glyph-name="uni0961" unicode="&#x961;" horiz-adv-x="653" 
d="M611 124h-110q-14 0 -21 -2q-18 -3 -18 -25.5t9 -27.5t30 -5h81v-119h-80q-14 0 -21 -1q-18 -4 -18 -26.5t11 -27.5t55 -5t84 5v-126q-43 -7 -109 -7q-181 0 -181 158q0 56 27 89q-28 32 -28 96q0 132 149 142v118q-15 5 -35 5q-43 0 -43 -39v-64h-140v64q0 19 -8 29
t-31 10t-31 -10t-8 -29v-138q0 -29 14.5 -44t56.5 -15h15v-129h-23q-106 0 -154.5 44.5t-48.5 137.5v149q0 78 45 120.5t128.5 42.5t111.5 -55q36 54 103 54l48 -5v66h-511v117h733v-117h-82v-430z" />
    <glyph glyph-name="uni0964" unicode="&#x964;" horiz-adv-x="322" 
d="M140 0v671h140v-671h-140z" />
    <glyph glyph-name="uni0965" unicode="&#x965;" horiz-adv-x="442" 
d="M260 0v671h140v-671h-140zM42 0v671h140v-671h-140z" />
    <glyph glyph-name="uni0966" unicode="&#x966;" horiz-adv-x="469" 
d="M284 518q0 25 -10.5 37.5t-39.5 12.5t-39 -12t-10 -38v-343q0 -25 10 -37.5t39 -12.5t39.5 12.5t10.5 37.5v343zM35 524q0 84 48.5 131.5t150.5 47.5t151 -48t49 -131v-355q0 -83 -49 -131t-151 -48t-150.5 47.5t-48.5 131.5v355z" />
    <glyph glyph-name="uni0967" unicode="&#x967;" horiz-adv-x="321" 
d="M276 693v-693h-152v511l-109 -80v165l131 97h130z" />
    <glyph glyph-name="uni0968" unicode="&#x968;" horiz-adv-x="442" 
d="M190 698q217 0 217 -168v-59q0 -97 -74 -152l-90 -76q-38 -32 -46.5 -48t-8.5 -50v-13h210v-132h-363v163q0 99 83 163l100 86q22 17 29.5 34.5t7.5 50.5v14q0 23 -14.5 35.5t-52.5 12.5q-76 0 -139 -27v144q60 22 141 22z" />
    <glyph glyph-name="uni0969" unicode="&#x969;" horiz-adv-x="421" 
d="M163 699q111 0 166 -44t55 -124v-69q0 -43 -18.5 -71t-49.5 -36q70 -7 70 -97v-96q0 -80 -54 -124t-155.5 -44t-151.5 21v142q61 -26 135.5 -26t74.5 48v58q0 24 -11 32.5t-40 8.5h-78v140h76q51 0 51 49v47q0 48 -72.5 48t-119.5 -18v141q42 14 122 14z" />
    <glyph glyph-name="uni096A" unicode="&#x96a;" horiz-adv-x="463" 
d="M458 248v-131h-65v-117h-141v117h-242v139l192 437h191v-445h65zM258 248v285l-121 -285h121z" />
    <glyph glyph-name="uni096B" unicode="&#x96b;" horiz-adv-x="441" 
d="M258 261q0 43 -45 43q-19 0 -168 -9v398h341v-140h-192v-117q17 1 54 1q76 0 118.5 -38.5t42.5 -114.5v-122q0 -168 -216 -168q-81 0 -153 23v140q83 -26 150.5 -26t67.5 48v82z" />
    <glyph glyph-name="uni096C" unicode="&#x96c;" horiz-adv-x="464" 
d="M235 327q-26 0 -50 -6v-149q0 -25 10 -37.5t39 -12.5t39.5 12.5t10.5 37.5v110q0 45 -49 45zM35 510q0 85 53 136.5t169 51.5q92 0 142 -21v-142q-56 24 -135 24t-79 -66v-46q27 9 82 9q81 0 124 -42t43 -117v-128q0 -83 -49 -131t-151 -48t-150.5 47.5t-48.5 131.5v341z
" />
    <glyph glyph-name="uni096D" unicode="&#x96d;" horiz-adv-x="386" 
d="M5 693h366v-121l-87 -261q-31 -91 -31 -207v-104h-152v117q0 131 33 219l68 218h-197v139z" />
    <glyph glyph-name="uni096E" unicode="&#x96e;" horiz-adv-x="475" 
d="M440 528v-70q0 -76 -46 -112q46 -37 46 -113v-68q0 -82 -50 -128.5t-152.5 -46.5t-152.5 46t-50 129v68q0 76 46 113q-46 36 -46 112v70q0 83 50 129t152.5 46t152.5 -46.5t50 -128.5zM183 526v-73q0 -50 54.5 -50t54.5 50v73q0 48 -55 48q-30 0 -42 -12t-12 -36z
M292 167v71q0 50 -54.5 50t-54.5 -50v-71q0 -48 54.5 -48t54.5 48z" />
    <glyph glyph-name="uni096F" unicode="&#x96f;" horiz-adv-x="464" 
d="M227 356q29 0 52 9v156q0 25 -10 37.5t-39 12.5t-39.5 -12.5t-10.5 -37.5v-116q0 -49 47 -49zM30 524q0 83 49 131t151 48t150.5 -47.5t48.5 -131.5v-361q0 -80 -55.5 -124t-161.5 -44t-156 21v142q61 -26 142 -26t81 48v59q-30 -12 -100 -12t-109.5 42t-39.5 118v137z
" />
    <glyph glyph-name="uni0970" unicode="&#x970;" horiz-adv-x="440" 
d="M178 374q-12 -15 -12 -49.5t12 -49.5t41.5 -15t41.5 15t12 49t-12.5 49.5t-41.5 15.5t-41 -15zM85 194q-43 47 -43 130.5t43 130.5t134 47t134.5 -47.5t43.5 -130.5t-43.5 -130t-134.5 -47t-134 47z" />
    <glyph glyph-name="uni0972" unicode="&#x972;" horiz-adv-x="608" 
d="M569 906h139v-5q0 -167 -210 -167t-210 167v5h140q0 -27 16.5 -39t54.5 -12q70 0 70 51zM426 333v338h222v-117h-82v-554h-140v213h-70v-6q-1 -83 -50.5 -127t-159.5 -44q-67 0 -104 13v127q48 -13 95.5 -13t64 11.5t17.5 38.5v41q0 49 -53 49h-59v129h59q28 0 40.5 11
t12.5 35v21q0 27 -16.5 38.5t-59.5 11.5t-87 -12v127q35 12 91 12q209 0 209 -171v-27q0 -80 -43 -110q17 -11 28 -35h85z" />
    <glyph glyph-name="uni097D" unicode="&#x97d;" horiz-adv-x="462" 
d="M41 461v103q0 79 47.5 121t141.5 42t141.5 -42t47.5 -121v-214q0 -80 -31 -117t-107 -44v-189h-130v312h79q28 1 38.5 12t10.5 36v199q0 38 -49 38t-49 -38v-98h-140z" />
    <glyph glyph-name="uni200B" unicode="&#x200b;" horiz-adv-x="0" 
 />
    <glyph glyph-name="uni200C" unicode="&#x200c;" horiz-adv-x="0" 
d="M24 -230h-47v1041h47v-1041z" />
    <glyph glyph-name="uni200D" unicode="&#x200d;" horiz-adv-x="0" 
d="M24 -230h-47v865l-69 -73l-33 33l93 93l-95 95l33 33l95 -95l96 95l32 -32l-96 -96l96 -95l-33 -33l-72 75v-865z" />
    <glyph glyph-name="endash" unicode="&#x2013;" horiz-adv-x="625" 
d="M41 397h526v-130h-526v130z" />
    <glyph glyph-name="emdash" unicode="&#x2014;" horiz-adv-x="865" 
d="M41 397h776v-130h-776v130z" />
    <glyph glyph-name="quoteleft" unicode="&#x2018;" horiz-adv-x="205" 
d="M86 485q-61 0 -61 57q0 38 29.5 93t61.5 98h64l-42 -248h-52z" />
    <glyph glyph-name="quoteright" unicode="&#x2019;" horiz-adv-x="205" 
d="M119 733q61 0 61 -57q0 -38 -29.5 -93t-61.5 -98h-64l42 248h52z" />
    <glyph glyph-name="quotesinglbase" unicode="&#x201a;" horiz-adv-x="205" 
d="M119 145q61 0 61 -57q0 -38 -29.5 -93t-61.5 -98h-64l42 248h52z" />
    <glyph glyph-name="quotedblleft" unicode="&#x201c;" horiz-adv-x="369" 
d="M86 485q-61 0 -61 57q0 38 29.5 93t61.5 98h58l-42 -248h-46zM256 485q-61 0 -61 57q0 38 29.5 93t61.5 98h58l-42 -248h-46z" />
    <glyph glyph-name="quotedblright" unicode="&#x201d;" horiz-adv-x="369" 
d="M113 733q61 0 61 -57q0 -38 -29.5 -93t-61.5 -98h-58l42 248h46zM283 733q61 0 61 -57q0 -38 -29.5 -93t-61.5 -98h-58l42 248h46z" />
    <glyph glyph-name="quotedblbase" unicode="&#x201e;" horiz-adv-x="369" 
d="M113 145q61 0 61 -57q0 -38 -29.5 -93t-61.5 -98h-58l42 248h46zM283 145q61 0 61 -57q0 -38 -29.5 -93t-61.5 -98h-58l42 248h46z" />
    <glyph glyph-name="dagger" unicode="&#x2020;" horiz-adv-x="390" 
d="M127 833h140q0 -72 -10 -172q53 10 118 10v-117q-58 0 -118 10q10 -92 10 -201v-393h-140v393q0 97 10 201q-53 -10 -118 -10v117q58 0 118 -10q-10 91 -10 172z" />
    <glyph glyph-name="daggerdbl" unicode="&#x2021;" horiz-adv-x="391" 
d="M126 833h140q0 -72 -10 -172q53 10 118 10v-117q-58 0 -118 10q2 -47 2 -160t-2 -165q53 10 118 10v-117q-58 0 -118 10q10 -57 10 -172h-140q0 102 10 172q-53 -10 -118 -10v117q58 0 118 -10q-2 52 -2 164.5t2 160.5q-53 -10 -118 -10v117q58 0 118 -10q-10 91 -10 172
z" />
    <glyph glyph-name="bullet" unicode="&#x2022;" horiz-adv-x="252" 
d="M24 338q0 100 100 100t100 -100t-100 -100t-100 100z" />
    <glyph glyph-name="ellipsis" unicode="&#x2026;" horiz-adv-x="738" 
d="M278 70q0 75 75 75t75 -75t-75 -75t-75 75zM32 70q0 75 75 75t75 -75t-75 -75t-75 75zM524 70q0 75 75 75t75 -75t-75 -75t-75 75z" />
    <glyph glyph-name="perthousand" unicode="&#x2030;" horiz-adv-x="1040" 
d="M863 -6q-144 0 -144 172t144 172t144 -172t-144 -172zM862 88q42 0 42 78t-42 78t-42 -78t42 -78zM542 -6q-144 0 -144 172t144 172t144 -172t-144 -172zM541 88q42 0 42 78t-42 78t-42 -78t42 -78zM179 355q-144 0 -144 172t144 172t144 -172t-144 -172zM178 449
q42 0 42 78t-42 78t-42 -78t42 -78zM472 693h100l-323 -693h-100z" />
    <glyph glyph-name="guilsinglleft" unicode="&#x2039;" horiz-adv-x="504" 
d="M235 505h150l-122 -183l122 -183h-150l-121 183z" />
    <glyph glyph-name="guilsinglright" unicode="&#x203a;" horiz-adv-x="472" 
d="M114 505h150l121 -183l-121 -183h-150l122 183z" />
    <glyph glyph-name="fraction" unicode="&#x2044;" horiz-adv-x="343" 
d="M326 693h95l-403 -693h-95z" />
    <glyph glyph-name="foursuperior" unicode="&#x2074;" horiz-adv-x="320" 
d="M181 448v208l-72 -208h72zM275 737v-289h42v-84h-42v-76h-94v76h-159v89l106 284h147z" />
    <glyph glyph-name="Euro" unicode="&#x20ac;" horiz-adv-x="472" 
d="M224 231v-53q0 -48 75.5 -48t124.5 15v-135q-54 -15 -131 -15q-112 0 -166.5 44t-54.5 124v68h-52v98h52v40h-52v98h52v62q0 80 55.5 124.5t167.5 44.5q73 0 126 -14v-138q-56 17 -110.5 17t-70.5 -12.5t-16 -36.5v-47h100v-98h-100v-40h100v-98h-100z" />
    <glyph glyph-name="uni20B9" unicode="&#x20b9;" horiz-adv-x="495" 
d="M388 403v-13q0 -78 -41.5 -114.5t-133.5 -36.5h-11l196 -239h-164l-188 237v116h162q44 0 44 42v8h-206v101h206v11q0 19 -8 29t-31 10h-168v117h416v-117h-86q13 -15 13 -44v-6h74v-101h-74z" />
    <glyph glyph-name="uni2113" unicode="&#x2113;" horiz-adv-x="531" 
d="M294 125q31 0 57 14v-132q-34 -16 -89 -16q-84 0 -119.5 39t-36.5 113l-85 -21v150q37 7 85 25v269q0 88 45 139.5t140 51.5t146.5 -54t51.5 -155q0 -219 -236 -345v-42q0 -36 41 -36zM253 567v-189q88 74 88 171q0 71 -46 71q-42 0 -42 -53z" />
    <glyph glyph-name="trademark" unicode="&#x2122;" horiz-adv-x="650" 
d="M608 721v-273h-67v157l15 106l-62 -263h-59l-62 263l15 -106v-157h-67v273h110l28 -152l6 -43l5 43l28 152h110zM95 666v55h205v-55h-65v-218h-73v218h-67z" />
    <glyph glyph-name="uni2126" unicode="&#x2126;" horiz-adv-x="600" 
d="M91 524q0 82 53.5 130.5t156.5 48.5t156.5 -48.5t53.5 -130.5v-325q0 -49 -18 -69h56v-130h-220v125q32 10 32 52v339q0 50 -60 50t-60 -50v-339q0 -42 32 -52v-125h-220v130h56q-18 20 -18 69v325z" />
    <glyph glyph-name="estimated" unicode="&#x212e;" horiz-adv-x="690" 
d="M476 462q-35 37 -117 37t-122 -42v-120h239v125zM145 72q-80 82 -80 208.5t80.5 211t207 84.5t203 -72.5t76.5 -195.5q0 -26 -2 -45h-393v-151q46 -40 127 -40q128 0 188 96l68 -44q-82 -134 -259 -134q-136 0 -216 82z" />
    <glyph glyph-name="partialdiff" unicode="&#x2202;" horiz-adv-x="453" 
d="M229 353q-45 0 -45 -39v-149q0 -40 45 -40t45 38v183q-19 7 -45 7zM418 310v-150q0 -79 -48 -122t-141.5 -43t-141 42.5t-47.5 121.5v160q0 73 34 109.5t107 36.5q55 0 76 -38q-33 117 -163 266h169q64 -73 109.5 -174t45.5 -209z" />
    <glyph glyph-name="uni2206" unicode="&#x2206;" horiz-adv-x="485" 
d="M337 693l130 -693h-422l130 693h162zM197 133h118l-59 367z" />
    <glyph glyph-name="product" unicode="&#x220f;" horiz-adv-x="512" 
d="M45 693h422v-693h-152v560h-118v-560h-152v693z" />
    <glyph glyph-name="summation" unicode="&#x2211;" horiz-adv-x="425" 
d="M24 693h377v-127h-214l107 -219l-107 -220h214v-127h-377v121l111 226l-111 225v121z" />
    <glyph glyph-name="minus" unicode="&#x2212;" horiz-adv-x="498" 
d="M41 396h414v-130h-414v130z" />
    <glyph glyph-name="uni2215" unicode="&#x2215;" horiz-adv-x="343" 
d="M283 693h100l-323 -693h-100z" />
    <glyph glyph-name="uni2219" unicode="&#x2219;" horiz-adv-x="246" 
d="M38 345.5q0 78.5 83.5 78.5t83.5 -78.5t-83.5 -78.5t-83.5 78.5z" />
    <glyph glyph-name="radical" unicode="&#x221a;" horiz-adv-x="485" 
d="M21 254v128h177l42 -242l98 553h142l-137 -693h-206l-48 254h-68z" />
    <glyph glyph-name="infinity" unicode="&#x221e;" horiz-adv-x="735" 
d="M537 515q168 0 168 -177.5t-168 -177.5q-95 0 -170 90q-75 -90 -167.5 -90t-131 46t-38.5 131t38.5 131.5t131 46.5t167.5 -90q75 90 170 90zM207 281q48 0 93 57q-47 56 -93 56q-28 0 -37.5 -13t-9.5 -44t10 -43.5t37 -12.5zM527 281q31 0 39.5 12t8.5 43.5t-10.5 44.5
t-37.5 13q-48 0 -93 -57q46 -56 93 -56z" />
    <glyph glyph-name="integral" unicode="&#x222b;" horiz-adv-x="295" 
d="M62 690q0 89 54.5 132.5t151.5 38.5v-130q-31 0 -42.5 -8t-11.5 -29v-690q0 -89 -54.5 -132.5t-151.5 -38.5v130q31 0 42.5 8t11.5 29v690z" />
    <glyph glyph-name="approxequal" unicode="&#x2248;" horiz-adv-x="625" 
d="M591 545q6 -26 6 -67t-18 -73t-49 -45q-61 -26 -148 3l-142 48q-35 15 -58.5 3.5t-16.5 -51.5h-135q-5 29 -5 68.5t18 71.5t49 45q61 26 148 -3l142 -48q35 -15 58.5 -3.5t16.5 51.5h134zM591 315q6 -26 6 -67t-18 -73t-49 -45q-61 -26 -148 3l-142 48q-35 15 -58.5 3.5
t-16.5 -51.5h-135q-5 29 -5 68.5t18 71.5t49 45q61 26 148 -3l142 -48q35 -15 58.5 -3.5t16.5 51.5h134z" />
    <glyph glyph-name="notequal" unicode="&#x2260;" horiz-adv-x="484" 
d="M446 369h-132l-27 -74h159v-130h-207l-38 -101h-124l38 101h-83v130h131l27 74h-158v130h207l38 103h124l-38 -103h83v-130z" />
    <glyph glyph-name="lessequal" unicode="&#x2264;" horiz-adv-x="471" 
d="M442 638v-135l-261 -80l261 -80v-135l-414 150v130zM28 50v130h414v-130h-414z" />
    <glyph glyph-name="greaterequal" unicode="&#x2265;" horiz-adv-x="471" 
d="M28 638l414 -150v-130l-414 -150v135l261 80l-261 80v135zM28 50v130h414v-130h-414z" />
    <glyph glyph-name="lozenge" unicode="&#x25ca;" horiz-adv-x="456" 
d="M291 295l-63 162l-63 -162l63 -163zM145 590h166l130 -295l-130 -295h-166l-130 295z" />
    <glyph glyph-name="uni25CC" unicode="&#x25cc;" horiz-adv-x="660" 
d="M257 560q0 20 12.5 32t31.5 12t31.5 -12t12.5 -32t-12.5 -32t-31.5 -12t-31.5 12t-12.5 32zM396 514q-13 13 -13 31.5t12.5 31.5t32 13t31.5 -12.5t12 -31.5t-12.5 -32t-31 -13t-31.5 13zM478 477q0 19 12.5 32t31.5 13t31.5 -12.5t12.5 -32t-12.5 -32t-31.5 -12.5
t-31.5 12.5t-12.5 31.5zM528 359q0 19 12 31.5t31.5 12.5t32 -12.5t12.5 -31.5t-12.5 -31.5t-32 -12.5t-31.5 12.5t-12 31.5zM518 225q0 19 13 32t31.5 13t31 -13t12.5 -32t-12.5 -31.5t-31 -12.5t-31.5 12.5t-13 31.5zM445 127q0 19 12.5 31.5t31.5 12.5t32 -12.5t13 -31.5
t-13 -31.5t-32 -12.5t-31.5 12.5t-12.5 31.5zM324 74q0 20 12 32t32 12t32.5 -12.5t12.5 -31.5t-12.5 -31.5t-32.5 -12.5t-32 12t-12 32zM210 57q-13 13 -13 32t13 32t32 13t31.5 -13t12.5 -32t-12.5 -32t-31.5 -13t-32 13zM96 165q0 19 12.5 31.5t31.5 12.5t31.5 -12.5
t12.5 -31.5t-12.5 -31.5t-32 -12.5t-31.5 12.5t-12 31.5zM44 281q0 19 12.5 32t31.5 13t31.5 -12.5t12.5 -32t-12.5 -31.5t-31.5 -12t-31.5 12t-12.5 31zM57 407q0 19 13 31.5t32 12.5t32 -12.5t13 -31.5t-13 -31.5t-32 -12.5t-32 12.5t-13 31.5zM151.5 484.5
q-12.5 12.5 -12.5 32t12.5 32t31.5 12.5t31.5 -12.5t12.5 -32t-12.5 -32t-31.5 -12.5t-31.5 12.5z" />
    <glyph glyph-name="commaaccent" unicode="&#xf6c3;" horiz-adv-x="350" 
d="M193 -61q35 0 35 -32q0 -25 -19.5 -62t-38.5 -61h-48l25 155h46z" />
    <glyph glyph-name="itfLogo" horiz-adv-x="1734" 
d="M1396 237v196h207v-196h-207zM1396 475v196h207v-196h-207zM1146 0v671h208v-671h-208zM896 475v196h208v-196h-208zM647 0v671h207v-671h-207zM397 475v196h207v-196h-207zM147 0v671h207v-671h-207z" />
    <glyph glyph-name="uni0915094D" horiz-adv-x="423" 
d="M172 176.5q9 -10.5 32 -10.5t43 8v380h-287v117h711v-117h-288v-54q16 5 49 5q87 0 122.5 -39.5t35.5 -117.5v-9h-123v4q0 23 -10 32.5t-33.5 9.5t-40.5 -5v-380h-137v59q-28 -8 -60 -8q-82 0 -119 36.5t-37 114.5v146q0 79 37.5 118t118.5 39l29 -3v-118q-5 1 -19.5 1
t-23.5 -10.5t-9 -31.5v-135q0 -21 9 -31.5z" />
    <glyph glyph-name="uni0916094D" horiz-adv-x="579" 
d="M240 507q0 31 -10 47h-270v117h780v-117h-377q6 -16 6 -47v-121q0 -79 -37.5 -119.5t-120.5 -40.5q-15 0 -45 4v-35q0 -36 21.5 -55t80 -19t113.5 23v-130q-54 -19 -132 -19q-111 0 -163.5 54t-52.5 144v258h133v-100q24 -2 40 -2q34 0 34 39v119zM404 256v79
q0 82 36 119.5t132 37.5t132 -37.5t36 -119.5v-79q0 -82 -36 -119.5t-132 -37.5t-132 37.5t-36 119.5zM615 256v79q0 20 -9 30t-34 10t-34 -10t-9 -30v-79q0 -20 9 -30t34 -10t34 10t9 30z" />
    <glyph glyph-name="uni0917094D" horiz-adv-x="259" 
d="M234 554v-219q0 -84 -45 -125.5t-124 -41.5l-55 3v135q18 -2 34 -2q50 0 50 43v207h-134v117h339v-117h-65z" />
    <glyph glyph-name="uni0918094D" horiz-adv-x="282" 
d="M41 507q0 27 6 47h-87v117h362v-117h-131q-10 -13 -10 -47v-37q0 -19 8 -29t31 -10h44v-129h-50q-23 0 -31 -10t-8 -29v-28q0 -29 18 -41t62 -12t78 10v-125q-46 -10 -106 -10q-95 0 -143.5 44t-48.5 116v51q0 76 44 102q-38 29 -38 95v42z" />
    <glyph glyph-name="uni0919094D" horiz-adv-x="546" 
d="M388 318q0 75 75 75t75 -75t-75 -75t-75 75zM400 163v-7q0 -85 -52.5 -126t-161.5 -41q-64 0 -143 17v127q79 -17 124.5 -17t59 2t23.5 11t10 27v4q0 17 -8 26t-31 9h-25q-84 0 -126.5 33t-42.5 108v26q0 76 41 109t128 33h34v50h-278v117h634v-117h-216v-170h-174
q-29 0 -29 -31v-10q0 -31 29 -31h25q92 0 135.5 -36t43.5 -113zM414 -229h-144l-111 171h126z" />
    <glyph glyph-name="uni091A094D" horiz-adv-x="275" 
d="M67 316q0 27 6 49h-60v126h258v-120h-53q-11 -14 -11 -56v-91q0 -48 58 -48q35 0 56 7v-122q-32 -8 -83 -8q-171 0 -171 166v97zM315 671v-117h-355v117h355z" />
    <glyph glyph-name="uni091B094D" horiz-adv-x="555" 
d="M368.5 371.5q-15.5 14.5 -46 14.5t-50.5 -9v114q34 10 74 10q81 0 127.5 -37.5t46.5 -116.5v-172q0 -95 -52.5 -136.5t-184 -41.5t-187.5 38.5t-56 124.5v23q0 64 44 91q-39 26 -39 94v130q0 33 16 56h-101v117h635v-117h-359q-33 0 -42 -14t-9 -45v-121q0 -19 8 -29
t31 -10h77v-122h-72q-27 0 -37.5 -8t-10.5 -34v-2q0 -29 18 -38t82 -9t83.5 13.5t19.5 46.5v140q0 35 -15.5 49.5z" />
    <glyph glyph-name="uni091C094D" horiz-adv-x="365" 
d="M200 315q0 29 -11 47h-99v129h325v-120h-84q9 -17 9 -47v-102q0 -87 -51.5 -130.5t-147.5 -43.5q-47 0 -88 10v126q43 -9 82 -9q65 0 65 52v88zM415 671v-117h-455v117h455z" />
    <glyph glyph-name="uni091D094D" horiz-adv-x="442" 
d="M176 -81h-138v250h138v-49q21 -4 45 -4t33.5 9.5t9.5 29.5v19q0 35 -34 37h-11q-88 0 -133.5 33t-45.5 108v10q0 76 42.5 109t136.5 33h29v50h-288v117h527v-117h-99v-170h-169q-38 0 -39 -22v-5q0 -15 8 -22t31 -7h268v-108h-95q12 -22 12 -51v-25q0 -82 -40.5 -115.5
t-117.5 -33.5l-70 6v-82z" />
    <glyph glyph-name="uni091E094D" horiz-adv-x="375" 
d="M452 671v-117h-492v117h492zM452 338v-120h-102v-5q0 -83 -48.5 -126.5t-158.5 -43.5q-38 0 -83 13v124q42 -10 80.5 -10t54 14t15.5 42v106q0 28 -15.5 42t-56 14t-78.5 -10v124q39 13 83 13q110 0 158.5 -44.5t48.5 -127.5v-5h102z" />
    <glyph glyph-name="uni091F094D" horiz-adv-x="418" 
d="M175 304v-123q0 -34 20.5 -46.5t69 -12.5t116.5 11v-125q-69 -13 -131 -13q-105 0 -160 46.5t-55 136.5v137q0 86 46.5 131t139.5 45h6v63h-267v117h497v-117h-90v-190h-129q-30 0 -46.5 -15.5t-16.5 -44.5zM411 -229h-144l-111 171h126z" />
    <glyph glyph-name="uni0920094D" horiz-adv-x="428" 
d="M258 156v193q0 42 -44 42t-44 -42v-193q0 -42 44 -42t44 42zM393 354v-196q0 -163 -179 -163t-179 163v196q0 123 109 148v52h-184v117h507v-117h-183v-52q109 -25 109 -148zM415 -229h-144l-111 171h126z" />
    <glyph glyph-name="uni0921094D" horiz-adv-x="430" 
d="M-40 671h509v-117h-91v-170h-174q-29 0 -29 -31v-10q0 -31 29 -31h25q92 0 135.5 -36t43.5 -113v-7q0 -85 -52.5 -126t-161.5 -41q-66 0 -143 17v127q83 -17 132 -17t67 8.5t18 34.5q0 36 -39 36h-25q-84 0 -126.5 33t-42.5 108v26q0 76 41 109t128 33h34v50h-278v117z
M172 -58h126l129 -171h-144z" />
    <glyph glyph-name="uni0922094D" horiz-adv-x="435" 
d="M209 499h36v55h-285v117h514v-117h-91v-182h-174q-23 0 -30 -8.5t-7 -28.5v-163q0 -25 10 -37t40 -12t40 11t10 36v3q0 33 -37 33l-25 -3v123q20 3 46 3q76 0 113 -35t37 -117v-15q0 -86 -44 -126.5t-140 -40.5q-188 0 -188 172v173q0 85 41 122t134 37zM426 -229h-144
l-111 171h126z" />
    <glyph glyph-name="uni0923094D" horiz-adv-x="426" 
d="M213 228q23 0 30.5 9.5t7.5 29.5v287h-76v-287q0 -20 7.5 -29.5t30.5 -9.5zM466 671v-117h-75v-288q0 -163 -178 -163t-178 163v288h-75v117h506z" />
    <glyph glyph-name="uni0924094D" horiz-adv-x="243" 
d="M231 367q-56 0 -56 -49v-150q0 -23 11 -30.5t38 -7.5v-132h-30q-89 0 -124 37.5t-35 118.5v169q0 81 43 127t132 46l81 -6v-128q-37 5 -60 5zM290 671v-117h-330v117h330z" />
    <glyph glyph-name="uni0925094D" horiz-adv-x="398" 
d="M206.5 224q29.5 -22 109 -22t130.5 12v-126q-59 -14 -148 -14q-121 0 -192.5 57.5t-71.5 159.5v131h133q41 0 56.5 14t15.5 47v32q0 19 -6 27.5t-24 8.5t-24 -8.5t-6 -27.5v-34h-133v29q0 166 159.5 166t159.5 -160v-58q0 -157 -177 -157h-11v-5q0 -50 29.5 -72z" />
    <glyph glyph-name="uni0926094D" horiz-adv-x="430" 
d="M30 217v119q0 88 43 123.5t138 35.5h32v59h-283v117h510v-117h-87v-186h-172q-25 0 -33 -8.5t-8 -28.5v-109q0 -19 9 -28.5t31 -9.5t42 6v88h140v-278h-140v67q-24 -6 -61 -6q-83 0 -122 38.5t-39 117.5zM523 -229h-144l-111 171h126z" />
    <glyph glyph-name="uni0927094D" horiz-adv-x="282" 
d="M41 507q0 27 6 47h-87v117h269v-117h-38q-10 -13 -10 -47v-37q0 -19 8 -29t31 -10h44v-129h-50q-23 0 -31 -10t-8 -29v-28q0 -53 75 -53q59 0 93 10v-125q-46 -10 -112 -10q-95 0 -145.5 44t-50.5 116v51q0 76 44 102q-38 29 -38 95v42z" />
    <glyph glyph-name="uni0928094D" horiz-adv-x="401" 
d="M199 362q-22 0 -29 -9.5t-7 -29.5v-107q0 -20 7 -29.5t29 -9.5t29 9.5t7 29.5v85q0 43 -7 61h-29zM467 671v-117h-507v117h507zM467 491v-129h-107q6 -21 6 -56v-91q0 -81 -39 -122t-128 -41t-129 41.5t-40 121.5v113q0 80 40 121.5t129 41.5h268z" />
    <glyph glyph-name="uni092A094D" horiz-adv-x="244" 
d="M207 114q-92 0 -131 39t-39 119v282h-77v117h334v-117h-117v-276q0 -40 52 -40q39 0 64 7v-123q-42 -8 -86 -8z" />
    <glyph glyph-name="uni092B094D" horiz-adv-x="468" 
d="M256 554h-78v-290q0 -40 45 -40q19 0 33 4v326zM396 554v-60q28 5 69 5q168 0 168 -157v-9h-123v4q0 42 -58 42q-33 0 -56 -5v-374h-140v106q-30 -6 -57 -6q-86 0 -123.5 39t-37.5 119v296h-78v117h724v-117h-288z" />
    <glyph glyph-name="uni092C094D" horiz-adv-x="0" 
 />
    <glyph glyph-name="uni092D094D" horiz-adv-x="437" 
d="M518 434v-118h-137v-109q0 -153 -173 -153t-173 153v75q0 152 173 152h39v74q0 20 -6.5 29.5t-29.5 9.5t-29.5 -9.5t-6.5 -29.5l4 -32h-140q-4 16 -4 37q0 163 176 163t176 -163v-79h131zM247 212v104h-39q-23 0 -31 -10t-8 -29v-65q0 -19 8 -29t31 -10t31 10t8 29z" />
    <glyph glyph-name="uni092E094D" horiz-adv-x="429" 
d="M515 446v-118h-144v-120q0 -153 -173 -153t-173 153v86q0 152 173 152h39v108h-277v117h554v-117h-143v-108h144zM237 213v115h-39q-23 0 -31 -10t-8 -29v-76q0 -19 8 -29t31 -10t31 10t8 29z" />
    <glyph glyph-name="uni092F094D" horiz-adv-x="322" 
d="M143 507q0 33 -7 47h-176v117h412v-117h-99q6 -20 6 -47v-77q0 -116 -112 -122v-18q0 -74 103 -74q51 0 97 12v-129q-45 -13 -105 -13q-106 0 -169 48.5t-63 135.5v126h24q52 0 70.5 13t18.5 50v48z" />
    <glyph glyph-name="uni0930094D" horiz-adv-x="428" 
d="M240 242q-20 0 -60 7v-70q0 -58 92 -58q70 0 132 26v-130q-63 -22 -160.5 -22t-150.5 49t-53 130v277h140v-81q18 -5 40 -5t30 10t8 29v103q0 31 -10 47h-288v117h517v-117h-85q6 -16 6 -47v-105q0 -79 -37.5 -119.5t-120.5 -40.5zM420 -229h-144l-111 171h126z" />
    <glyph glyph-name="uni0932094D" horiz-adv-x="454" 
d="M442 365q-49 0 -49 -39v-114h-140v114q0 19 -8 29t-31 10t-31 -10t-8 -29v-138q0 -29 14.5 -44t51.5 -15t64 3v-128q-32 -4 -67 -4q-106 0 -154.5 44.5t-48.5 137.5v149q0 78 45 120.5t128.5 42.5t111.5 -55q36 54 108 54q32 0 73 -6v-128q-30 6 -59 6zM501 671v-117
h-541v117h541z" />
    <glyph glyph-name="uni0933094D" horiz-adv-x="442" 
d="M-40 671h668v-117h-668v117zM42 158v179q1 79 41 119t120 40t120 -45q39 45 118 45q155 0 155 -163v-175q0 -80 -38 -121.5t-117 -41.5t-118 45q-40 -45 -113 -45q-168 0 -168 163zM249 159v173q0 20 -8 30.5t-32 10.5t-32.5 -10.5t-8.5 -30.5v-173q0 -20 8.5 -30.5
t32.5 -10.5t32 10.5t8 30.5zM470 160v171q0 21 -8.5 31.5t-32.5 10.5t-32.5 -10.5t-8.5 -31.5v-171q0 -21 8.5 -31.5t32.5 -10.5t32.5 10.5t8.5 31.5z" />
    <glyph glyph-name="uni0935094D" horiz-adv-x="255" 
d="M205 52q-90 0 -130 39.5t-40 119.5v135q0 80 40 120t132 40q59 0 94 -7v-116q-30 5 -74 5q-56 0 -56 -43v-131q0 -44 54 -44t84 11v-118q-41 -11 -104 -11zM301 671v-117h-341v117h341z" />
    <glyph glyph-name="uni0936094D" horiz-adv-x="437" 
d="M235 231q-29 0 -55 7v-42q0 -68 81 -68q59 0 121 26v-130q-63 -22 -154 -22t-139.5 52.5t-48.5 136.5v212h140v-44q18 -5 40 -5t30 9.5t8 28.5v116q0 19 -8 29t-31 10q-39 0 -39 -42q0 -22 4 -38h-140q-4 28 -4 46q0 163 179 163t179 -163v-126q0 -156 -163 -156z" />
    <glyph glyph-name="uni0937094D" horiz-adv-x="280" 
d="M188 251q13 -13 56 -13t70 17l-139 141v-105q0 -27 13 -40zM228 115q-107 0 -150 43.5t-43 126.5v269h-75v117h484v-117h-269v-43l253 -259v-67q-72 -70 -200 -70z" />
    <glyph glyph-name="uni0938094D" horiz-adv-x="415" 
d="M245 507q0 31 -10 47h-275v117h504v-117h-88q6 -16 6 -47v-126h82v-120h-119q-37 -39 -118 -39q-28 0 -51 5v-48q0 -58 92 -58q59 0 121 26v-130q-63 -22 -155 -22t-145 49t-53 130v277h140v-102q16 -4 34 -4q35 0 35 39v123z" />
    <glyph glyph-name="uni0939094D" horiz-adv-x="448" 
d="M521 334v-115h-304q-23 0 -31 -10t-8 -29v-20q0 -25 15.5 -35.5t50.5 -10.5q92 0 159 14v-118q-73 -17 -169 -17q-196 0 -196 158v24q0 68 43 97q-43 25 -44 87v18q0 70 41 100.5t128 30.5h47v46h-293v117h561v-117h-128v-166h-187q-29 0 -29 -23v-8q0 -23 29 -23h315z
" />
    <glyph glyph-name="uni0915093C094D" horiz-adv-x="424" 
d="M62 -54q0 75 76 75q74 0 74 -75t-75 -75t-75 75zM172 176.5q9 -10.5 32 -10.5t43 8v380h-287v117h711v-117h-288v-54q16 5 49 5q87 0 122.5 -39.5t35.5 -117.5v-9h-123v4q0 23 -10 32.5t-33.5 9.5t-40.5 -5v-380h-137v59q-28 -8 -60 -8q-82 0 -119 36.5t-37 114.5v146
q0 79 37.5 118t118.5 39l29 -3v-118q-5 1 -19.5 1t-23.5 -10.5t-9 -31.5v-135q0 -21 9 -31.5z" />
    <glyph glyph-name="uni0916093C094D" horiz-adv-x="579" 
d="M240 507q0 31 -10 47h-270v117h780v-117h-377q6 -16 6 -47v-121q0 -79 -37.5 -119.5t-120.5 -40.5q-15 0 -45 4v-35q0 -36 21.5 -55t80 -19t113.5 23v-130q-54 -19 -132 -19q-111 0 -163.5 54t-52.5 144v258h133v-100q24 -2 40 -2q34 0 34 39v119zM404 256v79
q0 82 36 119.5t132 37.5t132 -37.5t36 -119.5v-79q0 -82 -36 -119.5t-132 -37.5t-132 37.5t-36 119.5zM615 256v79q0 20 -9 30t-34 10t-34 -10t-9 -30v-79q0 -20 9 -30t34 -10t34 10t9 30zM48 4q74 0 74 -75t-75 -75t-75 75t76 75z" />
    <glyph glyph-name="uni0917093C094D" horiz-adv-x="259" 
d="M52 34q0 75 75 75t75 -75t-75 -75t-75 75zM234 554v-219q0 -84 -45 -125.5t-124 -41.5l-55 3v135q18 -2 34 -2q50 0 50 43v207h-134v117h339v-117h-65z" />
    <glyph glyph-name="uni091C093C094D" horiz-adv-x="365" 
d="M200 315q0 29 -11 47h-99v129h325v-120h-84q9 -17 9 -47v-102q0 -87 -51.5 -130.5t-147.5 -43.5q-47 0 -88 10v126q43 -9 82 -9q65 0 65 52v88zM415 671v-117h-455v117h455zM40 -75q0 75 76 75q74 0 74 -75t-75 -75t-75 75z" />
    <glyph glyph-name="uni0928093C094D" horiz-adv-x="406" 
d="M204 362q-22 0 -29 -9.5t-7 -29.5v-107q0 -20 7 -29.5t29 -9.5t29 9.5t7 29.5v85q0 43 -7 61h-29zM467 491v-129h-102q6 -21 6 -56v-91q0 -81 -39 -122t-128 -41t-129 41.5t-40 121.5v113q0 80 40 121.5t129 41.5h263zM-28 -53q0 75 75 75t75 -75t-75 -75t-75 75z
M467 671v-117h-507v117h507z" />
    <glyph glyph-name="uni092B093C094D" horiz-adv-x="469" 
d="M256 554h-78v-290q0 -40 45 -40q19 0 33 4v326zM396 554v-60q28 5 69 5q168 0 168 -157v-9h-123v4q0 42 -58 42q-33 0 -56 -5v-374h-140v106q-30 -6 -57 -6q-86 0 -123.5 39t-37.5 119v296h-78v117h724v-117h-288zM21 -24q0 75 75 75t75 -75t-75 -75t-75 75z" />
    <glyph glyph-name="uni092F093C094D" horiz-adv-x="322" 
d="M143 507q0 33 -7 47h-176v117h412v-117h-99q6 -20 6 -47v-77q0 -116 -112 -122v-18q0 -74 103 -74q51 0 97 12v-129q-45 -13 -105 -13q-106 0 -169 48.5t-63 135.5v126h24q52 0 70.5 13t18.5 50v48zM-19 8q0 75 73 75q75 0 75 -75t-75 -75q-73 0 -73 75z" />
    <glyph glyph-name="itfStar" horiz-adv-x="672" 
d="M686 472l-233 -150q33 -81 100 -264l-218 180q-30 -22 -219 -180l102 264q-17 10 -121 77t-114 73l278 -9q46 174 74 264l71 -264q25 2 139 5.5t141 3.5z" />
    <glyph glyph-name="uni09080902" horiz-adv-x="422" 
d="M454.5 815q55.5 0 55.5 -55.5t-55.5 -55.5t-55.5 55.5t55.5 55.5zM359 966q39 0 67 -6v-113q-16 2 -36 2t-36.5 -15.5t-16.5 -46.5q0 -64 33 -116h88v-117h-84v-170h-179q-17 0 -23 -6t-6 -21v-2q0 -27 29 -27h26q92 0 135.5 -36t43.5 -113v-27q0 -80 -37.5 -119
t-126.5 -39q-24 0 -64 7v-83h-138v251h138v-44q23 -7 46 -7t32.5 9.5t9.5 29.5v17q0 37 -39 37h-26q-84 0 -126.5 33t-42.5 108v10q0 76 41 109t128 33h39v50h-274v117h274q-38 65 -38 148q0 147 163 147z" />
    <glyph glyph-name="uni09300941" horiz-adv-x="641" 
d="M258 507q0 31 -10 47h-288v117h721v-117h-287q4 -24 4 -39v-83q21 12 46 12h15q72 0 114.5 -37t42.5 -111v-53q0 -168 -178 -168h-1v129h2q23 0 30 7.5t7 31.5v25q0 25 -9.5 36t-33.5 11h-5q-40 0 -76 -31.5t-112 -31.5q-30 0 -60 7v-80q0 -58 92 -58q64 0 115 19v-128
q-61 -17 -138 -17q-103 0 -156 49t-53 130v297h140v-91q18 -5 40 -5t30 10t8 29v93z" />
    <glyph glyph-name="uni09300942" horiz-adv-x="641" 
d="M258 507q0 31 -10 47h-288v117h721v-117h-289q6 -16 6 -47v-61q32 4 51 4q73 0 120 -37.5t47 -111.5v-66q0 -168 -177 -168h-2v129h2q23 0 30 7.5t7 31.5v44q0 41 -38 41q-36 0 -36 -41q0 -21 5 -69h-140q-4 26 -5 52q-7 -1 -29.5 -1t-52.5 7v-89q0 -58 92 -58
q70 0 132 26v-130q-63 -22 -160.5 -22t-150.5 49t-53 130v296h140v-81q18 -5 40 -5t30 10t8 29v84z" />
    <glyph glyph-name="uni09390941" horiz-adv-x="448" 
d="M260 -7h-16q-206 -3 -206 158v24q0 68 43 97q-43 25 -44 87v18q0 70 41 100.5t128 30.5h47v46h-293v117h528v-117h-95v-166h-187q-29 0 -29 -23v-8q0 -23 29 -23h73q75 0 107 -33.5t32 -103.5v-31h-123v18q0 20 -7 27.5t-27 7.5h-44q-23 0 -31 -10t-8 -29v-20
q0 -25 15.5 -35.5t50.5 -10.5h40q79 0 116 -36.5t37 -125t-36.5 -125.5t-116.5 -37h-103q-50 0 -90 23.5t-85 81.5l-59 76h154q31 -41 48.5 -52t49.5 -11h60q26 0 37 8.5t11 34t-10.5 34t-36.5 8.5z" />
    <glyph glyph-name="uni09390942" horiz-adv-x="441" 
d="M218 -7q-27 0 -27 -32.5t31 -32.5l66 5v-108q-46 -5 -80 -5q-71 0 -106 32.5t-35 106.5q0 52 26 79q-62 27 -62 113v24q0 68 43 97q-43 25 -44 87v18q0 70 41 100.5t128 30.5h47v46h-286v117h521v-117h-95v-166h-187q-29 0 -29 -23v-8q0 -23 29 -23h73q75 0 107 -33.5
t32 -103.5v-31h-123v18q0 20 -7 27.5t-27 7.5h-44q-23 0 -31 -10t-8 -29v-20q0 -25 15.5 -35.5t50.5 -10.5h23q54 0 93 -19t83 -74l151 -191h-154q-104 132 -110 138q-23 23 -35.5 24t-27.5 1h-42z" />
    <glyph glyph-name="uni09260943" horiz-adv-x="430" 
d="M178 223q8 -9 28 -9t46 7v57h140v-360q-70 8 -97 8t-42 -8.5t-15 -31.5t15 -31.5t51 -8.5t89 8v-128q-48 -8 -100 -8q-92 0 -142.5 43.5t-50.5 124.5q0 157 154 167v46q-27 -8 -63 -8q-83 0 -122 38.5t-39 117.5v89q0 88 43 123.5t138 35.5h32v59h-283v117h510v-117h-87
v-186h-172q-25 0 -33 -8.5t-8 -28.5v-79q0 -20 8 -29z" />
    <glyph glyph-name="uni09390943" horiz-adv-x="542" 
d="M169 200v-257q0 -81 106 -81q73 0 139 19v-108q-71 -20 -149 -20q-104 0 -165 47t-61 138v267q0 55 38 77q-38 22 -39 77v18q0 70 41 100.5t128 30.5h107v46h-354v117h622v-117h-128v-166h-252q-29 0 -29 -23v-3q0 -23 29 -23h160q74 0 109.5 -31t35.5 -99
q0 -135 -145 -135h-9q-20 0 -20 -20q0 -17 15.5 -22t67 -5t104.5 11v-111q-50 -13 -109.5 -13t-88.5 4.5t-58 17.5q-59 28 -59 118q0 75 39 105t109 30h1q14 0 19 4t5 16t-5 16t-19 4h-156q-29 0 -29 -29z" />
    <glyph glyph-name="uni094D0930" horiz-adv-x="0" 
d="M-33 -99h-143l-38 101l-37 -101h-143l59 129h243z" />
    <glyph glyph-name="uni0930094D.1" horiz-adv-x="275" 
d="M458 352v-121h-218q-221 0 -221 157v15h140q0 -32 18.5 -41.5t61.5 -9.5h219zM-40 554v117h498v-117h-498z" />
    <glyph glyph-name="uni0930094D.2" horiz-adv-x="0" 
d="M0 791q-65 0 -65 -61q0 -30 23 -59h-124q-29 33 -29 97.5t46.5 102.5t123.5 38l68 -3v-118q-19 3 -43 3z" />
    <glyph glyph-name="uni0930094D0902" horiz-adv-x="0" 
d="M-166 671q-39 53 -39 130.5t54 117.5t136 40l68 -3v-118q-19 3 -50.5 3t-54.5 -20t-23 -51q0 -52 25 -88l8 -11h-124zM25 699q-54 0 -54 55.5t54 55.5q56 0 56 -55.5t-56 -55.5z" />
    <glyph glyph-name="uni0930094D.aMatraI" horiz-adv-x="0" 
d="M0 723h-79v51q0 76 37.5 115.5t99.5 39.5l50 -3v-118q-19 3 -46 3t-44.5 -15t-17.5 -43v-30z" />
    <glyph glyph-name="uni0902.aMatraI" horiz-adv-x="0" 
d="M47 812q0 75 74.5 75t74.5 -75t-74.5 -75t-74.5 75z" />
    <glyph glyph-name="uni0930094D0902.aMatraI" horiz-adv-x="0" 
d="M81 814q56 0 56 -55.5t-56 -55.5q-54 0 -54 55.5t54 55.5zM-79 723v82q0 76 37.5 115.5t99.5 39.5q30 0 50 -3v-118q-21 3 -47 3t-43.5 -15t-17.5 -43v-61h-79z" />
    <glyph glyph-name="uni09400930094D" 
d="M264 671v-117h-82v-554h-140v554h-82v117h82v67q0 39 -39 39h-8q-39 0 -39 -39v-15h-139v20q0 163 157 163h9q89 0 121 -60q31 63 117 63l32 -2v-117q-8 1 -17 1q-55 0 -55 -58l1 -62h82z" />
    <glyph glyph-name="uni09400902" 
d="M227 793q0 75 74.5 75t74.5 -75t-74.5 -75t-74.5 75zM42 671v67q0 39 -39 39h-8q-39 0 -39 -39v-15h-139v20q0 78 45.5 120.5t132.5 42.5h8q88 0 133.5 -42.5t45.5 -120.5v-72h82v-117h-82v-554h-140v554h-82v117h82z" />
    <glyph glyph-name="uni09400930094D0902" 
d="M273.5 810q55.5 0 55.5 -55.5t-55.5 -55.5t-55.5 55.5t55.5 55.5zM183 743v-72h81v-117h-82v-554h-140v554h-82v117h82v67q0 39 -39 39h-8q-39 0 -39 -39v-15h-139v20q0 163 157 163h9q79 0 115 -49q31 100 155 100l42 -2v-117q-18 1 -27 1q-49 0 -67 -25t-18 -71z" />
    <glyph glyph-name="uni0940.aLong" 
d="M182 687v-16h82v-117h-82v-554h-140v554h-82v117h82v13q0 50 -28 70t-101 20h-62q-46 0 -68.5 -11t-22.5 -40h-141v13q0 74 56 120.5t164 46.5h94q117 0 183 -53.5t66 -162.5z" />
    <glyph glyph-name="uni09400930094D.aLong" 
d="M264 671v-117h-82v-554h-140v554h-82v117h82v13q0 50 -28 70t-101 20h-62q-46 0 -68.5 -11t-22.5 -40h-141v13q0 74 56 120.5t164 46.5h94q125 0 167 -67q27 73 121 73l32 -2v-117q-8 1 -17 1q-55 0 -55 -58l1 -62h82z" />
    <glyph glyph-name="uni09400902.aLong" 
d="M243 802q0 75 74.5 75t74.5 -75t-74.5 -75t-74.5 75zM182 687v-16h82v-117h-82v-554h-140v554h-82v117h82v13q0 50 -28 70t-101 20h-62q-46 0 -68.5 -11t-22.5 -40h-141v13q0 74 56 120.5t164 46.5h94q117 0 183 -53.5t66 -162.5z" />
    <glyph glyph-name="uni09400930094D0902.aLong" 
d="M272.5 810q55.5 0 55.5 -55.5t-55.5 -55.5t-55.5 55.5t55.5 55.5zM182 743v-72h82v-117h-82v-554h-140v554h-82v117h82v13q0 50 -28 70t-101 20h-62q-46 0 -68.5 -11t-22.5 -40h-141v13q0 74 56 120.5t164 46.5h94q116 0 161 -58q28 112 158 112l42 -2v-117q-18 1 -27 1
q-49 0 -67 -25t-18 -71z" />
    <glyph glyph-name="uni09470930094D" horiz-adv-x="0" 
d="M-55 733q0 -32 13 -62h-142l-52 72q-30 42 -76 42q-16 0 -26 -1v114q23 3 58 3t61.5 -17t61.5 -71l6 -8q18 104 136 104l31 -2v-117q-8 1 -16 1q-55 0 -55 -58z" />
    <glyph glyph-name="uni09470902" horiz-adv-x="0" 
d="M-34 799q0 75 74.5 75t74.5 -75t-74.5 -75t-74.5 75zM-338 898q23 3 59.5 3t72.5 -18.5t70 -69.5l94 -142h-142l-52 72q-30 42 -76 42q-16 0 -26 -1v114z" />
    <glyph glyph-name="uni09470901" horiz-adv-x="0" 
d="M231 896h139v-5q0 -167 -210 -167t-210 167v5h140q0 -27 16.5 -39t54.5 -12q70 0 70 51zM91 970q0 70 70 70t70 -70t-70 -70t-70 70zM-338 898q23 3 59.5 3t72.5 -18.5t70 -69.5l94 -142h-142l-52 72q-30 42 -76 42q-16 0 -26 -1v114z" />
    <glyph glyph-name="uni09470930094D0902" horiz-adv-x="0" 
d="M35 810q56 0 56 -55.5t-56 -55.5q-54 0 -54 55.5t54 55.5zM19 839q-79 0 -79 -86q0 -42 18 -82h-142l-52 72q-30 42 -76 42q-16 0 -26 -1v114q23 3 58 3t61.5 -17t61.5 -71q6 68 49 106t112 38l52 -2v-118q-17 2 -37 2z" />
    <glyph glyph-name="uni09480930094D" horiz-adv-x="0" 
d="M-40.5 777q-14.5 -14 -14.5 -45t13 -61h-123l-26 72q-8 23 -16.5 32t-19.5 9t-16 -1v115q18 3 34 3q37 0 58 -18.5t38 -67.5q6 48 31 71t77 23l41 -2v-117q-18 1 -27 1q-35 0 -49.5 -14zM-425 901q45 0 73.5 -21.5t70.5 -77.5l98 -131h-126l-59 72q-35 42 -76 42
q-16 0 -26 -1v114q23 3 45 3z" />
    <glyph glyph-name="uni09480902" horiz-adv-x="0" 
d="M-25 789q0 75 74.5 75t74.5 -75t-74.5 -75t-74.5 75zM-205 901q91 0 122 -99l41 -131h-119l-26 72q-8 23 -16.5 32t-19.5 9t-16 -1v115q18 3 34 3zM-425 901q46 0 80 -23t74 -76l98 -131h-136l-59 72q-35 42 -76 42q-16 0 -26 -1v114q23 3 45 3z" />
    <glyph glyph-name="uni09480901" horiz-adv-x="0" 
d="M269 896h139v-5q0 -167 -210 -167t-210 167v5h140q0 -27 16.5 -39t54.5 -12q70 0 70 51zM129 970q0 70 70 70t70 -70t-70 -70t-70 70zM-205 901q91 0 122 -99l41 -131h-119l-26 72q-8 23 -16.5 32t-19.5 9t-16 -1v115q18 3 34 3zM-425 901q46 0 80 -23t74 -76l98 -131
h-136l-59 72q-35 42 -76 42q-16 0 -26 -1v114q23 3 45 3z" />
    <glyph glyph-name="uni09480930094D0902" horiz-adv-x="0" 
d="M29 810q56 0 56 -55.5t-56 -55.5q-54 0 -54 55.5t54 55.5zM-37 814q-18 -25 -18 -66.5t13 -76.5h-131l-26 72q-8 23 -16.5 32t-19.5 9t-16 -1v115q18 3 44 3t47 -17.5t37 -63.5q17 137 137 137l42 -2v-117q-18 1 -27 1q-48 0 -66 -25zM-478 898q22 3 56 3t62.5 -21.5
t70.5 -77.5l98 -131h-126l-59 72q-35 42 -76 42q-16 0 -26 -1v114z" />
    <glyph glyph-name="uni094A0902" 
d="M206 802q0 75 74.5 75t74.5 -75t-74.5 -75t-74.5 75zM42 554h-82v117h82q0 31 -13.5 45t-53.5 14q-107 0 -153.5 37t-46.5 134h139q0 -31 14 -44.5t55 -13.5q104 0 151.5 -40.5t47.5 -131.5h82v-117h-82v-554h-140v554z" />
    <glyph glyph-name="uni094B0930094D" 
d="M169 733q0 -32 13 -62h79v-117h-79v-554h-140v554h-82v117h80l-52 72q-30 42 -76 42q-16 0 -26 -1v114q22 3 57.5 3t62 -17t61.5 -71l5 -7q20 103 137 103l32 -2v-117q-8 1 -17 1q-55 0 -55 -58z" />
    <glyph glyph-name="uni094B0902" 
d="M180 802q0 75 74.5 75t74.5 -75t-74.5 -75t-74.5 75zM264 671v-117h-82v-554h-140v554h-82v117h80l-52 72q-30 42 -76 42q-16 0 -26 -1v114q22 3 59 3t73 -18.5t70 -69.5l94 -142h82z" />
    <glyph glyph-name="uni094B0930094D0902" 
d="M260.5 810q55.5 0 55.5 -55.5t-55.5 -55.5t-55.5 55.5t55.5 55.5zM244 839q-80 0 -80 -86q0 -42 18 -82h82v-117h-82v-554h-140v554h-82v117h75l-52 72q-30 42 -76 42q-16 0 -26 -1v114q22 3 57.5 3t61.5 -17q31 -20 65 -76q4 70 48.5 109.5t115.5 39.5l52 -2v-118
q-17 2 -37 2z" />
    <glyph glyph-name="uni094C0930094D" 
d="M183.5 777q-14.5 -14 -14.5 -45t13 -61h82v-117h-82v-554h-140v554h-178v117h48l-59 72q-35 42 -76 42q-16 0 -26 -1v114q22 3 56 3t62.5 -21.5t70.5 -77.5l98 -131h18l-26 72q-8 23 -16.5 32t-19.5 9t-16 -1v115q18 3 34 3q38 0 59 -19.5t38 -71.5q6 51 31 75t79 24
l42 -2v-117q-18 1 -27 1q-36 0 -50.5 -14z" />
    <glyph glyph-name="uni094C0902" 
d="M196 792q0 75 74.5 75t74.5 -75t-74.5 -75t-74.5 75zM264 671v-117h-82v-554h-140v554h-178v117h45l-59 72q-35 42 -76 42q-16 0 -26 -1v114q22 3 45 3q46 0 80 -23t74 -76l98 -131h12l-26 72q-8 23 -16.5 32t-19.5 9t-16 -1v115q18 3 34 3q91 0 122 -99l41 -131h88z" />
    <glyph glyph-name="uni094C0930094D0902" 
d="M254.5 810q55.5 0 55.5 -55.5t-55.5 -55.5t-55.5 55.5t55.5 55.5zM187 814q-18 -25 -18 -66.5t13 -76.5h82v-117h-82v-554h-140v554h-178v117h47l-59 72q-35 42 -76 42q-16 0 -26 -1v114q22 3 56 3t62.5 -21.5t70.5 -77.5l98 -131h8l-26 72q-8 23 -16.5 32t-19.5 9
t-16 -1v115q18 3 34 3q38 0 59.5 -20t38.5 -73q14 149 140 149l42 -2v-117q-18 1 -27 1q-49 0 -67 -25z" />
    <glyph glyph-name="uni0915094D0937" horiz-adv-x="653" 
d="M264 469v47q0 20 -6.5 30t-28.5 10t-28.5 -10t-6.5 -30v-47q0 -20 6.5 -30t28.5 -10t28.5 10t6.5 30zM396 517v-30q0 -40 -6 -52h81v236h222v-117h-82v-554h-140v320h-248q-29 0 -37 -13t-8 -43v-51q0 -39 41 -39l41 5v72h133v-251h-133v57q-21 -5 -62 -5
q-163 0 -163 163v70q0 77 53 102q-30 20 -30 101v29q0 159 171 159q87 0 127 -40t40 -119z" />
    <glyph glyph-name="uni0915094D0937094D" horiz-adv-x="432" 
d="M264 469v47q0 20 -6.5 30t-28.5 10t-28.5 -10t-6.5 -30v-47q0 -20 6.5 -30t28.5 -10t28.5 10t6.5 30zM555 435v-115h-332q-29 0 -37 -13t-8 -43v-51q0 -39 41 -39l41 5v72h133v-251h-133v57q-21 -5 -62 -5q-163 0 -163 163v70q0 77 53 102q-30 20 -30 101v29
q0 159 171 159q87 0 127 -40t40 -119v-30q0 -40 -6 -52h165z" />
    <glyph glyph-name="uni0915094D0937094D092E" horiz-adv-x="1058" 
d="M464 671h634v-117h-82v-554h-137v328h-74v-120q0 -153 -173 -153t-173 153v86q0 18 1 26h-237q-29 0 -37 -13t-8 -43v-51q0 -39 41 -39l41 5v72h133v-251h-133v57q-21 -5 -62 -5q-163 0 -163 163v70q0 77 53 102q-30 20 -30 101v29q0 159 171 159q87 0 127 -40t40 -119
v-30q0 -40 -6 -52h162q35 11 80 11h39v108h-207v117zM264 469v47q0 20 -6.5 30t-28.5 10t-28.5 -10t-6.5 -30v-47q0 -20 6.5 -30t28.5 -10t28.5 10t6.5 30zM671 213v115h-39q-23 0 -31 -10t-8 -29v-76q0 -19 8 -29t31 -10t31 10t8 29zM879 446v108h-74v-108h74z" />
    <glyph glyph-name="uni0915094D0937094D092E094D" horiz-adv-x="864" 
d="M805 446h144v-118h-144v-120q0 -153 -173 -153t-173 153v86q0 18 1 26h-237q-29 0 -37 -13t-8 -43v-51q0 -39 41 -39l41 5v72h133v-251h-133v57q-21 -5 -62 -5q-163 0 -163 163v70q0 77 53 102q-30 20 -30 101v29q0 159 171 159q87 0 127 -40t40 -119v-30q0 -40 -6 -52
h162q35 11 80 11h39v108h-207v117h484v-117h-143v-108zM264 469v47q0 20 -6.5 30t-28.5 10t-28.5 -10t-6.5 -30v-47q0 -20 6.5 -30t28.5 -10t28.5 10t6.5 30zM671 213v115h-39q-23 0 -31 -10t-8 -29v-76q0 -19 8 -29t31 -10t31 10t8 29z" />
    <glyph glyph-name="uni0915094D0937094D092E094D092F" horiz-adv-x="1372" 
d="M1412 671v-117h-82v-554h-140v95q-32 -9 -83 -9q-106 0 -169 48.5t-63 135.5v33q0 15 -8 20t-31 5h-38v-120q0 -153 -173 -153t-173 153v86q0 18 1 26h-230q-29 0 -37 -13t-8 -43v-51q0 -39 41 -39l41 5v72h133v-251h-133v57q-21 -5 -62 -5q-163 0 -163 163v70
q0 77 53 102q-30 20 -30 101v29q0 159 171 159q87 0 127 -40t40 -119v-30q0 -40 -6 -52h155q35 11 80 11h39v108h-214v117h962zM264 469v47q0 20 -6.5 30t-28.5 10t-28.5 -10t-6.5 -30v-47q0 -20 6.5 -30t28.5 -10t28.5 10t6.5 30zM664 213v115h-39q-23 0 -31 -10t-8 -29
v-76q0 -19 8 -29t31 -10t31 10t8 29zM988 507q0 28 -7 47h-183v-108h53q85 0 118 -38q19 14 19 51v48zM1190 554h-72q6 -20 6 -47v-77q0 -116 -112 -122v-18q0 -74 103 -74q44 0 75 8v330z" />
    <glyph glyph-name="uni0915094D0937094D092F" horiz-adv-x="961" 
d="M577 507q0 33 -7 47h-106v117h537v-117h-82v-554h-140v95q-31 -9 -83 -9q-106 0 -169 48.5t-63 135.5v50h-241q-29 0 -37 -13t-8 -43v-51q0 -39 41 -39l41 5v72h133v-251h-133v57q-21 -5 -62 -5q-163 0 -163 163v70q0 77 53 102q-30 20 -30 101v29q0 159 171 159
q87 0 127 -40t40 -119v-30q0 -40 -6 -52h98q52 0 70.5 13t18.5 50v9zM264 469v47q0 20 -6.5 30t-28.5 10t-28.5 -10t-6.5 -30v-47q0 -20 6.5 -30t28.5 -10t28.5 10t6.5 30zM779 554h-72q6 -20 6 -47v-38q0 -116 -112 -122v-57q0 -74 103 -74q44 0 75 8v330z" />
    <glyph glyph-name="uni0915094D0937094D0935" horiz-adv-x="882" 
d="M465 671h457v-117h-82v-554h-140v59q-35 -7 -66 -7q-89 0 -126.5 39t-37.5 120v109h-247q-29 0 -37 -13t-8 -43v-51q0 -39 41 -39l41 5v72h133v-251h-133v57q-21 -5 -62 -5q-163 0 -163 163v70q0 77 53 102q-30 20 -30 101v29q0 159 171 159q87 0 127 -40t40 -119v-30
q0 -40 -6 -52h97q34 71 147 71q31 0 66 -7v55h-235v117zM264 469v47q0 20 -6.5 30t-28.5 10t-28.5 -10t-6.5 -30v-47q0 -20 6.5 -30t28.5 -10t28.5 10t6.5 30zM659 388q-53 0 -53 -43v-131q0 -44 54 -44q28 0 47 7v206q-25 5 -48 5z" />
    <glyph glyph-name="uni091C094D091E" horiz-adv-x="642" 
d="M-40 671h722v-117h-82v-554h-140v371h-79q7 -15 7 -50v-89q0 -80 -40.5 -119.5t-110.5 -39.5q-36 0 -67 8v-81h-135v283h135v-77q15 -5 39.5 -5t31.5 9.5t7 29.5v83q0 35 -6 48h-112v120h330v63h-500v117z" />
    <glyph glyph-name="uni091C094D091E094D" horiz-adv-x="438" 
d="M-40 671h604v-117h-604v117zM130 371v120h434v-120h-183q7 -15 7 -50v-89q0 -80 -40.5 -119.5t-110.5 -39.5q-36 0 -67 8v-81h-135v283h135v-77q15 -5 39.5 -5t31.5 9.5t7 29.5v83q0 35 -6 48h-112z" />
    <glyph glyph-name="uni091C094D091E094D092F" horiz-adv-x="957" 
d="M573 507q0 33 -7 47h-606v117h1037v-117h-82v-554h-140v95q-31 -9 -83 -9q-106 0 -169 48.5t-63 135.5v56q-1 25 -14 35t-54 10h-11q7 -15 7 -50v-89q0 -80 -40.5 -119.5t-110.5 -39.5q-36 0 -67 8v-81h-135v283h135v-77q15 -5 39.5 -5t31.5 9.5t7 29.5v83q0 35 -6 48
h-112v120h272q137 0 161 -74q10 14 10 42v48zM775 554h-72q6 -20 6 -47v-77q0 -116 -112 -122v-18q0 -74 103 -74q44 0 75 8v330z" />
    <glyph glyph-name="uni0915094D0928" horiz-adv-x="1045" 
d="M171 176.5q9 -10.5 32 -10.5t43 8v380h-286v117h1125v-117h-82v-554h-140v362h-66q6 -21 6 -56v-91q0 -81 -39 -122t-128 -41t-129 41.5t-40 121.5v127q0 42 -58 42q-15 0 -27 -2v-382h-137v59q-28 -8 -60 -8q-82 0 -119 36.5t-37 114.5v146q0 79 37.5 118t118.5 39
l29 -3v-118q-5 1 -19.5 1t-23.5 -10.5t-9 -31.5v-135q0 -21 9 -31.5zM672 216v85q0 43 -7 61h-29q-22 0 -29 -9.5t-7 -29.5v-107q0 -20 7 -29.5t29 -9.5t29 9.5t7 29.5zM863 491v63h-481v-54q16 4 40 4q76 0 118 -31q36 18 96 18h227z" />
    <glyph glyph-name="uni0916094D0928" horiz-adv-x="1193" 
d="M240 507q0 31 -10 47h-270v117h1273v-117h-82v-554h-140v362h-66q6 -21 6 -56v-91q0 -81 -39 -122t-135 -41t-135 57q-27 -10 -70 -10q-96 0 -132 37.5t-36 119.5v79q0 82 36 119.5t121 37.5t118 -24q40 23 105 23h227v63h-648q6 -16 6 -47v-121q0 -79 -37.5 -119.5
t-120.5 -40.5q-15 0 -45 4v-35q0 -36 21.5 -55t80 -19t113.5 23v-130q-54 -19 -132 -19q-111 0 -163.5 54t-52.5 144v258h133v-100q24 -2 40 -2q34 0 34 39v119zM529 335v-79q0 -20 9 -30t34 -10t34 10t9 30v79q0 20 -9 30t-34 10t-34 -10t-9 -30zM820 216v85q0 43 -7 61
h-29q-22 0 -29 -9.5t-7 -29.5v-107q0 -20 7 -29.5t29 -9.5t29 9.5t7 29.5z" />
    <glyph glyph-name="uni0917094D0928" horiz-adv-x="874" 
d="M914 671v-117h-82v-554h-140v362h-66q6 -21 6 -56v-91q0 -81 -39 -122t-128 -41t-129 41.5t-40 121.5v113q0 80 40 121.5t129 41.5h227v63h-458v-219q0 -84 -45 -125.5t-124 -41.5l-55 3v135q18 -2 34 -2q50 0 50 43v207h-134v117h954zM501 216v85q0 43 -7 61h-29
q-22 0 -29 -9.5t-7 -29.5v-107q0 -20 7 -29.5t29 -9.5t29 9.5t7 29.5z" />
    <glyph glyph-name="uni0918094D0928" horiz-adv-x="916" 
d="M41 507q0 27 6 47h-87v117h996v-117h-82v-554h-140v362h-66q6 -21 6 -56v-91q0 -81 -39 -122t-121 -41t-123 30q-75 -25 -144 -25q-108 0 -160 43.5t-52 116.5v51q0 76 44 102q-38 29 -38 95v42zM543 216v85q0 43 -7 61h-29q-22 0 -29 -9.5t-7 -29.5v-107q0 -20 7 -29.5
t29 -9.5t29 9.5t7 29.5zM734 491v63h-543q-10 -13 -10 -47v-37q0 -19 8 -29t31 -10h44v-129h-50q-23 0 -31 -10t-8 -29v-28q0 -30 19 -41.5t58.5 -11.5t86.5 9q-1 8 -1 24v113q0 80 40 121.5t129 41.5h227z" />
    <glyph glyph-name="uni091A094D0928" horiz-adv-x="897" 
d="M67 316q0 27 6 49h-60v126h258v-120h-53q-11 -14 -11 -56v-91q0 -48 68 -48q18 0 46 4q-2 22 -2 35v113q0 80 40 121.5t129 41.5h227v63h-755v117h977v-117h-82v-554h-140v362h-66q6 -21 6 -56v-91q0 -81 -39 -122t-128 -41q-62 0 -103 22q-53 -21 -133.5 -21t-132.5 42
t-52 124v97zM524 216v85q0 43 -7 61h-29q-22 0 -29 -9.5t-7 -29.5v-107q0 -20 7 -29.5t29 -9.5t29 9.5t7 29.5z" />
    <glyph glyph-name="uni091B094D0928" horiz-adv-x="555" 
d="M594 554h-133v-75q54 -28 54 -132v-172q0 -73 -29 -112v-423h-119v200h-54q5 -9 5 -31q0 -70 -32.5 -106t-107.5 -36t-107 36.5t-32 105.5t32 105t107 36h189v53q-39 -6 -90 -6q-130 0 -186 38.5t-56 124.5v23q0 64 44 91q-39 26 -39 94v130q0 33 16 56h-96v117h634v-117
zM178 -155q-20 0 -25 -8.5t-5 -26t2 -24.5q4 -17 27 -17t28.5 8.5t5.5 32.5t-7 35h-26zM364.5 371.5q-14.5 14.5 -47 14.5t-50.5 -9v114q24 10 64 10v53h-100q-33 0 -42 -14t-9 -45v-121q0 -19 8 -29t31 -10h77v-122h-72q-27 0 -37.5 -8t-10.5 -34v-2q0 -29 18 -38t82 -9
t83.5 13.5t19.5 46.5v140q0 35 -14.5 49.5z" />
    <glyph glyph-name="uni091C094D0928" horiz-adv-x="990" 
d="M200 315q0 29 -11 47h-99v129h258q80 0 121 -28q40 28 112 28h227v63h-848v117h1070v-117h-82v-554h-140v362h-66q6 -21 6 -56v-91q0 -81 -39 -122t-128 -41t-129 41.5t-40 121.5v113q0 14 2 38q-15 5 -33 5h-50q9 -17 9 -47v-102q0 -87 -51.5 -130.5t-147.5 -43.5
q-47 0 -88 10v126q43 -9 82 -9q65 0 65 52v88zM617 216v85q0 43 -7 61h-29q-22 0 -29 -9.5t-7 -29.5v-107q0 -20 7 -29.5t29 -9.5t29 9.5t7 29.5z" />
    <glyph glyph-name="uni091D094D0928" horiz-adv-x="1054" 
d="M1094 671v-117h-82v-554h-140v362h-66q6 -21 6 -56v-91q0 -81 -39 -122t-128 -41t-129 41.5t-40 121.5v5h-84q12 -22 12 -51v-25q0 -82 -40.5 -115.5t-117.5 -33.5l-70 6v-82h-138v250h138v-49q21 -4 45 -4t33.5 9.5t9.5 29.5v19q0 35 -34 37h-11q-88 0 -133.5 33
t-45.5 108v10q0 76 42.5 109t136.5 33h29v50h-288v117h1134zM681 216v85q0 43 -7 61h-29q-22 0 -29 -9.5t-7 -29.5v-107q0 -20 7 -29.5t29 -9.5t29 9.5t7 29.5zM872 491v63h-484v-170h-169q-38 0 -39 -22v-5q0 -15 8 -22t31 -7h257q0 80 40 121.5t129 41.5h227z" />
    <glyph glyph-name="uni091F094D0928" horiz-adv-x="1036" 
d="M1076 671v-117h-82v-554h-140v362h-66q6 -21 6 -56v-91q0 -81 -39 -122t-128 -41t-129 41.5t-40 121.5v113q0 80 40 121.5t129 41.5h227v63h-487v-190h-129q-30 0 -46.5 -15.5t-16.5 -44.5v-123q0 -34 20.5 -46.5t69 -12.5t116.5 11v-125q-69 -13 -131 -13
q-105 0 -160 46.5t-55 136.5v137q0 86 46.5 131t139.5 45h6v63h-267v117h1116zM663 216v85q0 43 -7 61h-29q-22 0 -29 -9.5t-7 -29.5v-107q0 -20 7 -29.5t29 -9.5t29 9.5t7 29.5zM156 -58h126l129 -171h-144z" />
    <glyph glyph-name="uni0920094D0928" horiz-adv-x="1046" 
d="M1086 671v-117h-82v-554h-140v362h-66q6 -21 6 -56v-91q0 -81 -39 -122t-128 -41t-129 41.5t-40 121.5v113q0 80 40 121.5t129 41.5h227v63h-580v-52q109 -25 109 -148v-196q0 -163 -179 -163t-179 163v196q0 123 109 148v52h-184v117h1126zM258 156v193q0 42 -44 42
t-44 -42v-193q0 -42 44 -42t44 42zM673 216v85q0 43 -7 61h-29q-22 0 -29 -9.5t-7 -29.5v-107q0 -20 7 -29.5t29 -9.5t29 9.5t7 29.5zM160 -58h126l129 -171h-144z" />
    <glyph glyph-name="uni0921094D0928" horiz-adv-x="1048" 
d="M1088 671v-117h-82v-554h-140v362h-66q6 -21 6 -56v-91q0 -81 -39 -122t-128 -41t-129 41.5t-40 121.5v113q0 80 40 121.5t129 41.5h227v63h-488v-170h-174q-29 0 -29 -31v-10q0 -31 29 -31h25q92 0 135.5 -36t43.5 -113v-7q0 -85 -52.5 -126t-161.5 -41q-66 0 -143 17
v127q83 -17 132 -17t67 8.5t18 34.5q0 36 -39 36h-25q-84 0 -126.5 33t-42.5 108v26q0 76 41 109t128 33h34v50h-278v117h1128zM675 216v85q0 43 -7 61h-29q-22 0 -29 -9.5t-7 -29.5v-107q0 -20 7 -29.5t29 -9.5t29 9.5t7 29.5zM172 -58h126l129 -171h-144z" />
    <glyph glyph-name="uni0924094D0928" horiz-adv-x="855" 
d="M895 671v-117h-82v-554h-140v362h-66q6 -21 6 -56v-91q0 -81 -39 -122t-128 -41t-129 41.5t-40 121.5v113q0 19 1 28q-15 6 -42 6h-8q-53 0 -53 -49v-145q0 -23 11 -30.5t38 -7.5l1 -130q-22 -2 -31 -2q-89 0 -124 37.5t-35 118.5v164q0 88 44.5 130.5t148.5 42.5h28
q54 0 89 -20q40 20 101 20h227v63h-713v117h935zM482 216v85q0 43 -7 61h-29q-22 0 -29 -9.5t-7 -29.5v-107q0 -20 7 -29.5t29 -9.5t29 9.5t7 29.5z" />
    <glyph glyph-name="uni0925094D0928" horiz-adv-x="1000" 
d="M422 671h618v-117h-82v-554h-140v362h-66q6 -21 6 -56v-91q0 -81 -39 -122t-128 -41t-129 42q-67 -20 -164 -20q-121 0 -192.5 57.5t-71.5 159.5v131h133q41 0 56.5 14t15.5 47v32q0 19 -6 27.5t-24 8.5t-24 -8.5t-6 -27.5v-34h-133v29q0 166 159.5 166t159.5 -160v-58
q0 -157 -177 -157h-11v-5q0 -50 29.5 -72t96.5 -22t119 9v117q0 80 40 121.5t129 41.5h227v63h-396v117zM627 216v85q0 43 -7 61h-29q-22 0 -29 -9.5t-7 -29.5v-107q0 -20 7 -29.5t29 -9.5t29 9.5t7 29.5z" />
    <glyph glyph-name="uni0926094D0928" horiz-adv-x="431" 
d="M383 368h-172q-25 0 -33 -8.5t-8 -28.5v-99q0 -19 9 -28.5t31 -9.5t42 6v78h140v-278h-140v93l-89 -80q-41 -37 -8 -72q16 -16 41 -21l-86 -77q-43 -1 -77 35q-40 39 -29 94t73 107l27 23q-74 23 -74 125v109q0 88 43 123.5t138 35.5h32v59h-283v117h510v-117h-87v-186z
" />
    <glyph glyph-name="uni0927094D0928" horiz-adv-x="916" 
d="M41 507q0 27 6 47h-87v117h269v-117h-38q-10 -13 -10 -47v-37q0 -19 8 -29t31 -10h44v-129h-50q-23 0 -31 -10t-8 -29v-28q0 -30 19 -41.5t58.5 -11.5t86.5 9q-1 8 -1 24v113q0 80 40 121.5t129 41.5h227v63h-426v117h648v-117h-82v-554h-140v362h-66q6 -21 6 -56v-91
q0 -81 -39 -122t-121 -41t-123 30q-75 -25 -144 -25q-108 0 -160 43.5t-52 116.5v51q0 76 44 102q-38 29 -38 95v42zM543 216v85q0 43 -7 61h-29q-22 0 -29 -9.5t-7 -29.5v-107q0 -20 7 -29.5t29 -9.5t29 9.5t7 29.5z" />
    <glyph glyph-name="uni0928094D0928" horiz-adv-x="1010" 
d="M1050 671v-117h-82v-554h-140v362h-66q6 -21 6 -56v-91q0 -81 -39 -122t-128 -41t-129 41.5t-40 121.5v113q0 12 2 34h-74q6 -21 6 -56v-91q0 -81 -39 -122t-128 -41t-129 41.5t-40 121.5v113q0 80 40 121.5t129 41.5h629v63h-868v117h1090zM235 216v85q0 43 -7 61h-29
q-22 0 -29 -9.5t-7 -29.5v-107q0 -20 7 -29.5t29 -9.5t29 9.5t7 29.5zM637 216v85q0 43 -7 61h-29q-22 0 -29 -9.5t-7 -29.5v-107q0 -20 7 -29.5t29 -9.5t29 9.5t7 29.5z" />
    <glyph glyph-name="uni092A094D0928" horiz-adv-x="840" 
d="M880 671v-117h-82v-554h-140v362h-66q6 -21 6 -56v-91q0 -81 -39 -122t-128 -41q-112 0 -149 68q-42 -6 -75 -6q-92 0 -131 39t-39 119v282h-77v117h920zM467 216v85q0 43 -7 61h-29q-22 0 -29 -9.5t-7 -29.5v-107q0 -20 7 -29.5t29 -9.5t29 9.5t7 29.5zM658 491v63h-481
v-276q0 -40 52 -40q11 0 33 2v88q0 80 40 121.5t129 41.5h227z" />
    <glyph glyph-name="uni092B094D0928" horiz-adv-x="1052" 
d="M1092 671v-117h-82v-554h-140v362h-66q6 -21 6 -56v-91q0 -81 -39 -122t-128 -41t-129 41.5t-40 121.5v119q0 42 -58 42q-14 0 -20 -1v-375h-140v106q-30 -6 -57 -6q-86 0 -123.5 39t-37.5 119v296h-78v117h1132zM256 554h-78v-290q0 -40 45 -40q19 0 33 4v326zM679 216
v85q0 43 -7 61h-29q-22 0 -29 -9.5t-7 -29.5v-107q0 -20 7 -29.5t29 -9.5t29 9.5t7 29.5zM870 491v63h-474v-61q21 3 33 3q72 0 111 -27q41 22 103 22h227z" />
    <glyph glyph-name="uni092C094D0928" horiz-adv-x="863" 
d="M903 671v-117h-82v-554h-140v362h-66q6 -21 6 -56v-91q0 -81 -39 -122t-122 -41t-123 31q-43 -30 -115 -30q-104 0 -148 44.5t-44 133.5v82q0 89 44 133.5t148 44.5q75 0 115 -31q42 31 117 31h227v63h-721v117h943zM285 307q0 38 -12 53.5t-47.5 15.5t-50.5 -17l110 -88
v36zM163 237q0 -36 13 -52.5t50 -16.5t49 22l-112 90v-43zM490 216v85q0 43 -7 61h-29q-22 0 -29 -9.5t-7 -29.5v-107q0 -20 7 -29.5t29 -9.5t29 9.5t7 29.5z" />
    <glyph glyph-name="uni092D094D0928" horiz-adv-x="1035" 
d="M449 671h626v-117h-82v-554h-140v362h-66q6 -21 6 -56v-91q0 -81 -39 -122t-128 -41t-129 41.5t-40 121.5v101h-76v-109q0 -153 -173 -153t-173 153v75q0 152 173 152h39v74q0 20 -6.5 29.5t-29.5 9.5t-29.5 -9.5t-6.5 -29.5l4 -32h-140q-4 16 -4 37q0 163 176 163
t176 -163v-79h97q39 57 142 57h227v63h-404v117zM247 212v104h-39q-23 0 -31 -10t-8 -29v-65q0 -19 8 -29t31 -10t31 10t8 29zM662 216v85q0 43 -7 61h-29q-22 0 -29 -9.5t-7 -29.5v-107q0 -20 7 -29.5t29 -9.5t29 9.5t7 29.5z" />
    <glyph glyph-name="uni092E094D0928" horiz-adv-x="1021" 
d="M1061 671v-117h-82v-554h-140v362h-66q6 -21 6 -56v-91q0 -81 -39 -122t-128 -41t-129 41.5t-40 121.5v113h-72v-120q0 -153 -173 -153t-173 153v86q0 152 173 152h39v108h-277v117h1101zM237 213v115h-39q-23 0 -31 -10t-8 -29v-76q0 -19 8 -29t31 -10t31 10t8 29z
M648 216v85q0 43 -7 61h-29q-22 0 -29 -9.5t-7 -29.5v-107q0 -20 7 -29.5t29 -9.5t29 9.5t7 29.5zM839 491v63h-468v-108h108q42 45 133 45h227z" />
    <glyph glyph-name="uni092F094D0928" horiz-adv-x="917" 
d="M143 507q0 33 -7 47h-176v117h997v-117h-82v-554h-140v362h-66q6 -21 6 -56v-91q0 -81 -39 -122t-131.5 -41t-132.5 49q-52 -15 -110 -15q-106 0 -169 48.5t-63 135.5v126h24q52 0 70.5 13t18.5 50v48zM544 216v85q0 43 -7 61h-29q-22 0 -29 -9.5t-7 -29.5v-107
q0 -20 7 -29.5t29 -9.5t29 9.5t7 29.5zM735 491v63h-462q6 -20 6 -47v-77q0 -116 -112 -122v-18q0 -74 103 -74q23 0 69 6v106q0 80 40 121.5t129 41.5h227z" />
    <glyph glyph-name="uni0935094D0928" horiz-adv-x="864" 
d="M251 387l-24 1q-56 0 -56 -43v-131q0 -44 57 -44q25 0 61 6q-3 18 -3 39v113q0 80 40 121.5t129 41.5h227v63h-722v117h944v-117h-82v-554h-140v362h-66q6 -21 6 -56v-91q0 -81 -39 -122t-117.5 -41t-117.5 24q-61 -24 -134 -24q-179 0 -179 159v135q0 80 40 120t132 40
q27 0 44 -2v-117zM491 216v85q0 43 -7 61h-29q-22 0 -29 -9.5t-7 -29.5v-107q0 -20 7 -29.5t29 -9.5t29 9.5t7 29.5z" />
    <glyph glyph-name="uni0936094D0928" horiz-adv-x="633" 
d="M451 671h222v-117h-82v-554h-130v108l-69 50l-72 -79q-38 -40 -2 -72q15 -13 43 -17l-78 -85q-43 -5 -80 27q-44 34 -43.5 89t53.5 114l85 93l-63 47l-82 -86l-152 22l134 139q-52 39 -69.5 72.5t-17.5 88.5v6q0 159 171 159q87 0 127 -40t40 -119v-6q0 -49 -13.5 -78
t-50.5 -68l129 -95v401zM254 501v15q0 20 -6.5 30t-28.5 10t-28.5 -10t-6.5 -30v-15q0 -26 16 -41q6 -5 19 -16q14 12 19 16q16 15 16 41z" />
    <glyph glyph-name="uni0938094D0928" horiz-adv-x="1051" 
d="M245 507q0 31 -10 47h-275v117h1131v-117h-82v-554h-140v362h-66q6 -21 6 -56v-91q0 -81 -39 -122t-128 -41t-129 41.5t-40 121.5v46h-128q-37 -39 -118 -39q-28 0 -51 5v-48q0 -58 92 -58q59 0 121 26v-130q-63 -22 -155 -22t-145 49t-53 130v277h140v-102q16 -4 34 -4
q35 0 35 39v123zM678 216v85q0 43 -7 61h-29q-22 0 -29 -9.5t-7 -29.5v-107q0 -20 7 -29.5t29 -9.5t29 9.5t7 29.5zM869 491v63h-493q6 -16 6 -47v-126h96q24 110 164 110h227z" />
    <glyph glyph-name="uni0939094D0928" horiz-adv-x="1061" 
d="M1102 671v-117h-82v-554h-140v362h-66q6 -21 6 -56v-91q0 -81 -39 -122t-128 -41t-129 41.5t-40 121.5v4h-267q-23 0 -31 -10t-8 -29v-20q0 -25 15.5 -35.5t50.5 -10.5q92 0 159 14v-118q-73 -17 -169 -17q-196 0 -196 158v24q0 68 43 97q-43 25 -44 87v18q0 70 41 100.5
t128 30.5h47v46h-293v117h1142zM689 216v85q0 43 -7 61h-29q-22 0 -29 -9.5t-7 -29.5v-107q0 -20 7 -29.5t29 -9.5t29 9.5t7 29.5zM880 491v63h-487v-166h-187q-29 0 -29 -23v-8q0 -23 29 -23h278q2 77 41.5 117t127.5 40h227z" />
    <glyph glyph-name="uni0915094D0930" horiz-adv-x="642" 
d="M184 212.5q9 -10.5 32 -10.5t43 8v344h-299v117h722v-117h-287v-54q27 5 61 5q81 0 118.5 -39t37.5 -118v-133q0 -80 -35 -118t-117 -38l-21 2v131q27 -4 33.5 5.5t6.5 31.5v114q0 21 -9 31.5t-33 10.5l-42 -5v-380h-137v95l-79 -137h-151l87 142q-73 30 -73 138v110
q0 79 37.5 118t118.5 39l29 -3v-118q-5 1 -19.5 1t-23.5 -10.5t-9 -31.5v-99q0 -21 9 -31.5z" />
    <glyph glyph-name="uni0916094D0930" horiz-adv-x="791" 
d="M240 507q0 31 -10 47h-270v117h872v-117h-83v-554h-136v105q-18 -6 -52 -6q-89 0 -124 38t-35 119v78q0 83 32.5 122.5t119.5 39.5l59 -5v63h-250q6 -16 6 -47v-121q0 -79 -37.5 -119.5t-120.5 -40.5q-15 0 -45 4v-35q0 -36 21.5 -55t80 -19t113.5 23v-130l-106 -113
l-181 14v4l119 97q-180 14 -180 177v258h133v-100q24 -2 40 -2q34 0 34 39v119zM573 375q-46 0 -46 -40v-79q0 -40 46 -40l40 5v149q-17 5 -40 5z" />
    <glyph glyph-name="uni0917094D0930" horiz-adv-x="494" 
d="M534 671v-117h-82v-554h-132v25q0 86 16 154h-2q-21 -43 -81 -120l-45 -59h-162l266 342v212h-78v-188q0 -84 -45 -125.5t-124 -41.5l-55 3v135q18 -2 34 -2q50 0 50 43v176h-134v117h574z" />
    <glyph glyph-name="uni0918094D0930" horiz-adv-x="509" 
d="M45 507q0 27 6 47h-91v117h589v-117h-82v-554h-140v112l-141 -162h-173l139 162q-56 16 -84.5 55.5t-28.5 94.5v16q0 76 44 102q-38 29 -38 95v32zM179 273v-18q0 -29 18 -41t57 -12t73 10v342h-132q-10 -13 -10 -47v-27q0 -19 8 -29t31 -10h44v-129h-50q-23 0 -31 -10
t-8 -29z" />
    <glyph glyph-name="uni0919094D0930" horiz-adv-x="546" 
d="M81 -2q-28 5 -38 8v127q79 -17 124.5 -17t59 2t23.5 11t10 27v4q0 17 -8 26t-31 9h-25q-84 0 -126.5 33t-42.5 108v26q0 76 41 109t128 33h34v50h-278v117h634v-117h-216v-170h-174q-29 0 -29 -31v-10q0 -31 29 -31h25q92 0 135.5 -36t43.5 -113v-7q0 -90 -60 -131
l57 -124h-143l-33 89h-9l-33 -89h-143zM463 393q75 0 75 -75t-75 -75t-75 75t75 75z" />
    <glyph glyph-name="uni091A094D0930" horiz-adv-x="492" 
d="M70 316q0 27 6 49h-50v126h248v-120h-53q-11 -14 -11 -56v-40q0 -48 54 -48q25 0 46 7v320h-350v117h572v-117h-82v-554h-140v125l-110 -135h-162l114 141q-82 32 -82 152v33z" />
    <glyph glyph-name="uni091B094D0930" horiz-adv-x="555" 
d="M40 507q0 25 11 47h-91v117h634v-117h-133v-75q54 -28 54 -132v-172q0 -67 -25 -106t-83 -57l51 -111h-143l-36 96h-3l-36 -96h-143l50 110q-112 31 -112 149v23q0 64 44 91q-39 26 -39 94v139zM364.5 371.5q-14.5 14.5 -46 14.5t-51.5 -9v114q26 10 64 10v53h-140
q-11 -13 -11 -47v-133q0 -19 8 -29t31 -10h77v-122h-72q-27 0 -37.5 -8t-10.5 -34v-3q0 -29 18 -37.5t82 -8.5t83.5 13.5t19.5 46.5v140q0 35 -14.5 49.5z" />
    <glyph glyph-name="uni091C094D0930" horiz-adv-x="622" 
d="M200 315q0 29 -11 47h-99v129h350v63h-480v117h702v-117h-82v-554h-140v5q0 53 6 95h-2q-15 -40 -62 -98l-52 -62h-162v4l272 319v108h-109q9 -17 9 -47v-52q0 -87 -51.5 -130.5t-147.5 -43.5q-47 0 -88 10v126q43 -9 82 -9q65 0 65 52v38z" />
    <glyph glyph-name="uni091D094D0930" horiz-adv-x="739" 
d="M388 169v-22q0 -82 -40.5 -115.5t-117.5 -33.5l-54 6v-82h-138v250h138v-49q13 -4 33 -4q39 0 39 39v16q0 37 -36 37h-2q-158 0 -158 141v10q0 76 41 109t128 33h119v50h-380v117h820v-117h-83v-564h-126v5q0 61 7 110h-2q-20 -56 -62 -113l-53 -73h-156l226 301h-155
q12 -22 12 -51zM480 384h-259q-29 0 -29 -26v-4q0 -26 29 -26h337v226h-78v-170z" />
    <glyph glyph-name="uni091E094D0930" horiz-adv-x="545" 
d="M357 243h-77v-6q0 -74 -49 -112.5t-135 -38.5q-36 0 -60 5v129q25 -5 56 -5q48 0 48 49v78q0 49 -49 49q-30 0 -55 -5v129q24 5 60 5q184 0 184 -153v-6h83v193h-403v117h625v-117h-82v-564h-140v5q0 45 6 100h-4q-18 -63 -60 -113l-52 -62h-160l264 318v5z" />
    <glyph glyph-name="uni091F094D0930" horiz-adv-x="418" 
d="M367 364h-129q-30 0 -46.5 -15.5t-16.5 -44.5v-123q0 -34 20.5 -46.5t69 -12.5t116.5 11v-125q-19 -4 -31 -5l46 -102h-143l-35 95l-4 1l-36 -96h-143l59 129h11q-70 46 -70 148v137q0 86 46.5 131t139.5 45h6v63h-267v117h497v-117h-90v-190z" />
    <glyph glyph-name="uni0920094D0930" horiz-adv-x="428" 
d="M218 -5h-5l-35 -94h-143l57 125q-57 41 -57 132v196q0 123 109 148v52h-184v117h507v-117h-183v-52q109 -25 109 -148v-196q0 -88 -55 -130l58 -127h-143zM170 349v-193q0 -42 44 -42t44 42v193q0 42 -44 42t-44 -42z" />
    <glyph glyph-name="uni0921094D0930" horiz-adv-x="430" 
d="M89 -2l-38 8v127q83 -17 132 -17t67 8.5t18 34.5q0 36 -39 36h-25q-84 0 -126.5 33t-42.5 108v26q0 76 41 109t128 33h34v50h-278v117h509v-117h-91v-170h-174q-29 0 -29 -31v-10q0 -31 29 -31h25q92 0 135.5 -36t43.5 -113v-7q0 -90 -60 -131l57 -124h-143l-33 89h-9
l-33 -89h-143z" />
    <glyph glyph-name="uni0922094D0930" horiz-adv-x="435" 
d="M383 372h-174q-23 0 -30 -8.5t-7 -28.5v-163q0 -25 10 -37t40 -12t40 11t10 36v3q0 33 -37 33l-25 -3v123q20 3 46 3q76 0 113 -35t37 -117v-15q0 -98 -58 -137l57 -124h-143l-35 94h-5l-35 -94h-143l56 122q-66 41 -66 144v173q0 85 41 122t134 37h36v55h-285v117h514
v-117h-91v-182z" />
    <glyph glyph-name="uni0923094D0930" horiz-adv-x="654" 
d="M216 334q23 0 30.5 9.5t7.5 29.5v181h-76v-181q0 -20 7.5 -29.5t30.5 -9.5zM472 554h-78v-186q0 -163 -178 -163t-178 163v186h-78v117h734v-117h-82v-554h-140v25q0 78 16 146h-2q-22 -45 -78 -117l-45 -54h-162l271 329v225z" />
    <glyph glyph-name="uni0924094D0930" horiz-adv-x="490" 
d="M308 357q-35 10 -75 10t-57 -15t-17 -47v-63h-134v73q0 88 45.5 134.5t147.5 46.5q50 0 90 -10v68h-348v117h570v-117h-82v-554h-131v26q0 87 10 147h-2q-26 -57 -72 -109l-54 -64h-173l282 309v48z" />
    <glyph glyph-name="uni0925094D0930" horiz-adv-x="605" 
d="M423 671h222v-117h-82v-554h-140v120h-1l-189 -171h-197v4l168 147q-162 29 -162 191v131h133q41 0 56.5 14t15.5 47v32q0 19 -6 27.5t-24 8.5t-24 -8.5t-6 -27.5v-34h-133v29q0 166 159.5 166t159.5 -160v-58q0 -157 -177 -157h-11v-5q0 -50 29.5 -72t98.5 -22t110 10
v459z" />
    <glyph glyph-name="uni0926094D0930" horiz-adv-x="438" 
d="M391 368h-172q-25 0 -33 -8.5t-8 -28.5v-99q0 -19 9 -28.5t31 -9.5t42 6v78h140v-278h-140v97l-89 -160h-150l91 165q-74 23 -74 125v109q0 88 43 123.5t138 35.5h32v59h-291v117h518v-117h-87v-186z" />
    <glyph glyph-name="uni0927094D0930" horiz-adv-x="509" 
d="M45 507q0 27 6 47h-91v117h299v-117h-64q-10 -13 -10 -47v-27q0 -19 8 -29t31 -10h44v-129h-50q-23 0 -31 -10t-8 -29v-18q0 -29 18 -41t57 -12t73 10v459h222v-117h-82v-554h-140v112l-141 -162h-175l141 162q-56 16 -84.5 55.5t-28.5 94.5v16q0 76 44 102
q-38 29 -38 95v32z" />
    <glyph glyph-name="uni0928094D0930" horiz-adv-x="629" 
d="M199 362q-22 0 -29 -9.5t-7 -29.5v-13q0 -20 7 -29.5t29 -9.5t29 9.5t7 29.5v5q0 29 -7 47h-29zM447 362h-87q6 -21 6 -42v-11q0 -81 -39 -122t-128 -41t-129 41.5t-40 121.5v19q0 80 40 121.5t129 41.5h248v63h-487v117h709v-117h-82v-554h-130v5q0 81 6 124h-2
q-11 -43 -62 -104l-52 -62h-161l261 317v82z" />
    <glyph glyph-name="uni092A094D0930" horiz-adv-x="450" 
d="M-40 671h530v-117h-82v-554h-140v188l-105 -188h-153l108 194q-76 31 -76 144v216h-82v117zM227 294q18 0 41 7v253h-86v-220q0 -40 45 -40z" />
    <glyph glyph-name="uni092B094D0930" horiz-adv-x="651" 
d="M439 372q-18 0 -36 -6v-366h-140v176h-1l-98 -176h-153l104 187q-70 32 -70 141v226h-85v117h731v-117h-288v-61q22 8 56 8q162 0 162 -163v-124q0 -79 -38 -117.5t-121 -38.5q-11 0 -17 1v130q22 0 29 8t7 31v105q0 39 -42 39zM185 554v-240q0 -40 45 -40q19 0 33 4v276
h-78z" />
    <glyph glyph-name="uni092C094D0930" horiz-adv-x="471" 
d="M-40 671h551v-117h-82v-554h-133v93l-106 -130h-153l103 127q-56 8 -82.5 39t-26.5 100v109q0 93 45.5 130.5t141.5 37.5q45 0 78 -11v59h-336v117zM296 380q-31 11 -63.5 11t-50.5 -13l114 -113v115zM164 235q0 -59 70 -59q26 0 49 3l-119 118v-62z" />
    <glyph glyph-name="uni092D094D0930" horiz-adv-x="648" 
d="M248 278v57h-39q-23 0 -31 -10t-8 -29v-18q0 -19 8 -29t31 -10t31 10t8 29zM466 335h-84v-62q0 -72 -42.5 -112.5t-130.5 -40.5q-174 0 -174 153v27q0 153 174 153h39v55q0 20 -6.5 29.5t-29.5 9.5t-29.5 -9.5t-6.5 -29.5l2 -17h-140q-2 8 -2 22q0 163 176 163t176 -163
v-60h78v218h222v-117h-82v-562h-130v5q0 48 11 125h-2q-6 -20 -27.5 -58t-39.5 -60l-52 -62h-162l262 317v76z" />
    <glyph glyph-name="uni092E094D0930" horiz-adv-x="619" 
d="M440 -8v5q0 42 10 112h-2q-6 -20 -27 -57t-39 -59l-52 -62h-160l270 316v103h-74v-78q0 -153 -173 -153t-173 153v44q0 152 173 152h39v86h-272v117h699v-117h-82v-562h-137zM366 468h74v86h-74v-86zM232 277v73h-39q-23 0 -31 -10t-8 -29v-34q0 -19 8 -29t31 -10t31 10
t8 29z" />
    <glyph glyph-name="uni092F094D0930" horiz-adv-x="527" 
d="M143 507q0 33 -7 47h-176v117h607v-117h-82v-554h-140v144h-1l-130 -144h-174l139 144q-70 17 -109.5 62t-39.5 113v103h24q52 0 70.5 13t18.5 50v22zM167 327q0 -74 103 -74q44 0 75 8v293h-72q6 -20 6 -47v-51q0 -116 -112 -122v-7z" />
    <glyph glyph-name="uni0935094D0930" horiz-adv-x="454" 
d="M-40 671h534v-117h-82v-554h-140v114h-1l-113 -135h-149l118 139q-85 29 -85 148v80q0 80 38.5 120t125.5 40q31 0 66 -7v55h-312v117zM178 345v-95q0 -44 54 -44q28 0 47 7v170q-25 5 -48 5q-53 0 -53 -43z" />
    <glyph glyph-name="uni0936094D0930" horiz-adv-x="633" 
d="M451 671h222v-117h-82v-554h-140v190q-21 -46 -66 -91l-84 -92l-163 8l169 181l-72 53l-82 -86l-152 22l134 139q-52 39 -69.5 72.5t-17.5 88.5v32q0 159 171 159q87 0 127 -40t40 -119v-32q0 -49 -13.5 -78t-50.5 -68l70 -52l59 63v321zM254 475v41q0 20 -6.5 30
t-28.5 10t-28.5 -10t-6.5 -30v-41q0 -26 16 -41q6 -5 19 -16q14 12 19 16q16 15 16 41z" />
    <glyph glyph-name="uni0938094D0930" horiz-adv-x="693" 
d="M520 190q0 45 8 99h-2q-20 -29 -67 -70l-66 -57l-142 25l161 125h-83q-33 -24 -80 -24t-75 7v-95q0 -42 23.5 -60.5t86 -18.5t128.5 10v-126q-61 -10 -142 -10q-123 0 -178 47t-55 156v287h137v-69q15 -5 37 -5t28.5 9t6.5 29v66q0 39 -34 39h-252v117h773v-117h-82v-554
h-130v100zM383 432h128v122h-139q11 -15 11 -52v-70z" />
    <glyph glyph-name="uni0939094D0930" horiz-adv-x="543" 
d="M443 399h-237q-29 0 -29 -23v-7q0 -23 29 -23h173q76 0 107.5 -28.5t31.5 -96.5v-51h-123v38q0 19 -7 27l-68 -99l-115 12l66 95h-54q-23 0 -31 -10t-8 -29v-49q0 -35 24 -50t109.5 -15t191.5 22v-118q-71 -25 -211.5 -25t-197 44.5t-56.5 132.5v53q0 61 43 90
q-43 25 -44 91v8q0 70 40.5 97t128.5 27h97v42h-343v117h623v-117h-140v-155z" />
    <glyph glyph-name="uni0915093C094D0930" horiz-adv-x="642" 
d="M184 212.5q9 -10.5 32 -10.5t43 8v344h-299v117h722v-117h-287v-54q27 5 61 5q81 0 118.5 -39t37.5 -118v-133q0 -80 -35 -118t-117 -38l-21 2v131q27 -4 33.5 5.5t6.5 31.5v114q0 21 -9 31.5t-33 10.5l-42 -5v-380h-137v95l-79 -137h-151l87 142q-73 30 -73 138v110
q0 79 37.5 118t118.5 39l29 -3v-118q-5 1 -19.5 1t-23.5 -10.5t-9 -31.5v-99q0 -21 9 -31.5zM269 -49q75 0 75 -75t-75 -75t-75 75t75 75z" />
    <glyph glyph-name="uni0916093C094D0930" horiz-adv-x="797" 
d="M240 507q0 31 -10 47h-270v117h872v-117h-83v-554h-136v105q-18 -6 -52 -6q-89 0 -124 38t-35 119v78q0 83 32.5 122.5t119.5 39.5l59 -5v63h-250q6 -16 6 -47v-121q0 -79 -37.5 -119.5t-120.5 -40.5q-15 0 -45 4v-35q0 -36 21.5 -55t80 -19t113.5 23v-130l-106 -113
l-181 14v4l119 97q-180 14 -180 177v258h133v-100q24 -2 40 -2q34 0 34 39v119zM573 375q-46 0 -46 -40v-79q0 -40 46 -40l40 5v149q-17 5 -40 5zM505 -4q75 0 75 -75t-75 -75t-75 75t75 75z" />
    <glyph glyph-name="uni0917093C094D0930" horiz-adv-x="494" 
d="M534 671v-117h-82v-554h-132v25q0 86 16 154h-2q-21 -43 -81 -120l-45 -59h-162l266 342v212h-78v-188q0 -84 -45 -125.5t-124 -41.5l-55 3v135q18 -2 34 -2q50 0 50 43v176h-134v117h574zM262 -30q75 0 75 -75t-75 -75t-75 75t75 75z" />
    <glyph glyph-name="uni091C093C094D0930" horiz-adv-x="622" 
d="M-13 -6q0 75 75 75t75 -75t-75 -75t-75 75zM200 315q0 29 -11 47h-99v129h350v63h-480v117h702v-117h-82v-554h-140v5q0 53 6 95h-2q-15 -40 -62 -98l-52 -62h-162v4l272 319v108h-109q9 -17 9 -47v-52q0 -87 -51.5 -130.5t-147.5 -43.5q-47 0 -88 10v126q43 -9 82 -9
q65 0 65 52v38z" />
    <glyph glyph-name="uni0921093C094D0930" horiz-adv-x="585" 
d="M234 0l-31 6v127q83 -17 124 -17t50.5 0.5t21.5 3.5q21 7 21 34v4q0 37 -39 37h-25q-84 0 -126.5 33t-42.5 108v26q0 76 41 109t128 33h34v50h-430v117h665v-117h-95v-170h-174q-29 0 -29 -31v-10q0 -31 29 -31h25q92 0 135.5 -36t43.5 -113v-7q0 -95 -65 -135l55 -120
h-143l-33 89l-9 -1l-33 -88h-143zM106 81q75 0 75 -75t-75 -75t-75 75t75 75z" />
    <glyph glyph-name="uni0922093C094D0930" horiz-adv-x="599" 
d="M427 199q-8 7 -24 7t-30 -8v123q19 8 48 8q76 0 112 -35t36 -117v-15q0 -101 -61 -139l59 -129h-143l-37 101l-38 -101h-143l58 128q-67 41 -67 145v173q0 85 41 122t134 37h36v55h-448v117h679v-117h-93v-182h-174q-23 0 -30 -8.5t-7 -28.5v-163q0 -25 10 -37t40 -12
t40 11t10 36v2q0 20 -8 27zM112 88q75 0 75 -75t-75 -75t-75 75t75 75z" />
    <glyph glyph-name="uni0928093C094D0930" horiz-adv-x="629" 
d="M357 -121q0 75 75 75t75 -75t-75 -75t-75 75zM199 362q-22 0 -29 -9.5t-7 -29.5v-13q0 -20 7 -29.5t29 -9.5t29 9.5t7 29.5v5q0 29 -7 47h-29zM447 362h-87q6 -21 6 -42v-11q0 -81 -39 -122t-128 -41t-129 41.5t-40 121.5v19q0 80 40 121.5t129 41.5h248v63h-487v117h709
v-117h-82v-554h-130v5q0 81 6 124h-2q-11 -43 -62 -104l-52 -62h-161l261 317v82z" />
    <glyph glyph-name="uni092B093C094D0930" horiz-adv-x="651" 
d="M439 372q-18 0 -36 -6v-366h-140v176h-1l-98 -176h-153l104 187q-70 32 -70 141v226h-85v117h731v-117h-288v-61q22 8 56 8q162 0 162 -163v-124q0 -79 -38 -117.5t-121 -38.5q-11 0 -17 1v130q22 0 29 8t7 31v105q0 39 -42 39zM185 554v-240q0 -40 45 -40q19 0 33 4v276
h-78zM222 -37q75 0 75 -75t-75 -75t-75 75t75 75z" />
    <glyph glyph-name="uni092F093C094D0930" horiz-adv-x="527" 
d="M143 507q0 33 -7 47h-176v117h607v-117h-82v-554h-140v144h-1l-130 -144h-174l139 144q-70 17 -109.5 62t-39.5 113v103h24q52 0 70.5 13t18.5 50v22zM167 327q0 -74 103 -74q44 0 75 8v293h-72q6 -20 6 -47v-51q0 -116 -112 -122v-7zM287 -22q75 0 75 -75t-75 -75
t-75 75t75 75z" />
    <glyph glyph-name="uni0915094D0930094D" horiz-adv-x="460" 
d="M184 186.5q9 -10.5 32 -10.5t43 8v370h-299v117h673v-117h-238v-54q27 5 69 5q168 0 168 -157v-9h-123v4q0 42 -58 42q-33 0 -56 -5v-380h-137v94h-1l-78 -136h-151l87 141q-73 30 -73 138v111q0 79 37.5 118t118.5 39l29 -3v-118q-5 1 -19.5 1t-23.5 -10.5t-9 -31.5
v-125q0 -21 9 -31.5z" />
    <glyph glyph-name="uni0916094D0930094D" horiz-adv-x="579" 
d="M240 507q0 31 -10 47h-270v117h780v-117h-377q6 -16 6 -47v-121q0 -79 -37.5 -119.5t-120.5 -40.5q-15 0 -45 4v-35q0 -36 21.5 -55t80 -19t113.5 23v-130l-106 -113l-181 14v4l119 97q-180 14 -180 177v258h133v-100q24 -2 40 -2q34 0 34 39v119zM404 256v79
q0 82 36 119.5t132 37.5t132 -37.5t36 -119.5v-79q0 -82 -36 -119.5t-132 -37.5t-132 37.5t-36 119.5zM615 256v79q0 20 -9 30t-34 10t-34 -10t-9 -30v-79q0 -20 9 -30t34 -10t34 10t9 30z" />
    <glyph glyph-name="uni0917094D0930094D" horiz-adv-x="274" 
d="M234 554v-179q0 -84 -45 -125.5t-124 -41.5l-55 3v135q18 -2 34 -2q50 0 50 43v167h-134v117h339v-117h-65zM354 398v-177q-36 -79 -102 -162l-45 -59h-162z" />
    <glyph glyph-name="uni0918094D0930094D" horiz-adv-x="282" 
d="M41 507q0 27 6 47h-87v117h362v-117h-131q-10 -13 -10 -47v-20q0 -19 8 -29t31 -10h44v-129h-50q-23 0 -31 -10t-8 -29v-16q0 -29 18 -41t62 -12t78 10v-136l-144 -137h-173l160 142q-70 12 -105.5 53.5t-35.5 102.5v39q0 76 44 102q-38 29 -38 95v25z" />
    <glyph glyph-name="uni091A094D0930094D" horiz-adv-x="275" 
d="M67 316q0 27 6 49h-60v126h258v-120h-53q-11 -14 -11 -56v-61q0 -48 62 -48q34 0 61 9v-143l-141 -134h-173l168 150q-117 22 -117 161v67zM315 671v-117h-355v117h355z" />
    <glyph glyph-name="uni091C094D0930094D" horiz-adv-x="416" 
d="M200 315q0 29 -11 47h-99v129h414v-120h-173q9 -17 9 -47v-52q0 -87 -51.5 -130.5t-147.5 -43.5q-47 0 -88 10v126q43 -9 82 -9q65 0 65 52v38zM504 671v-117h-544v117h544zM188 -60v4l316 371v-136q-36 -97 -102 -177l-52 -62h-162z" />
    <glyph glyph-name="uni091D094D0930094D" horiz-adv-x="525" 
d="M221 328h355v-223q-20 -56 -62 -113l-53 -73h-156l226 301h-155q12 -22 12 -51v-25q0 -82 -40.5 -115.5t-117.5 -33.5l-54 6v-82h-138v250h138v-49q13 -4 33 -4q39 0 39 39v19q0 37 -36 37h-2q-158 0 -158 141v10q0 76 41 109t128 33h119v50h-380v117h612v-117h-92v-170
h-259q-29 0 -29 -26v-4q0 -26 29 -26z" />
    <glyph glyph-name="uni091E094D0930094D" horiz-adv-x="373" 
d="M-40 671h485v-117h-485v117zM280 343v-5h165v-182q-35 -94 -85 -155l-59 -71h-160l243 288h-104v-5q0 -74 -49 -112.5t-135 -38.5h-60v129h60q44 0 44 49v78q0 49 -44 49h-60v129h60q184 0 184 -153z" />
    <glyph glyph-name="uni091F094D0930094D" horiz-adv-x="418" 
d="M367 364h-129q-30 0 -46.5 -15.5t-16.5 -44.5v-123q0 -34 20.5 -46.5t69 -12.5t116.5 11v-125l-14 -3l50 -110h-143l-37 100h-1l-37 -100h-143l59 129q-80 44 -80 154v137q0 86 46.5 131t139.5 45h6v63h-267v117h497v-117h-90v-190zM161 -158h126l129 -171h-144z" />
    <glyph glyph-name="uni0920094D0930094D" horiz-adv-x="428" 
d="M216 -5h-3l-36 -97h-143l59 128q-58 42 -58 132v196q0 123 109 148v52h-184v117h507v-117h-183v-52q109 -25 109 -148v-196q0 -92 -57 -131l59 -129h-143zM170 349v-193q0 -42 44 -42t44 42v193q0 42 -44 42t-44 -42zM166 -159h126l129 -171h-144z" />
    <glyph glyph-name="uni0921094D0930094D" horiz-adv-x="425" 
d="M-48 671h509v-117h-91v-170h-174q-29 0 -29 -31v-10q0 -31 29 -31h25q92 0 135.5 -36t43.5 -113v-7q0 -97 -69 -137h7l59 -129h-143l-37 100h-1l-37 -100h-143l49 108q-14 2 -42 8v127q83 -17 132 -17t67 8.5t18 34.5q0 36 -39 36h-25q-84 0 -126.5 33t-42.5 108v26
q0 76 41 109t128 33h34v50h-278v117zM160 -159h126l129 -171h-144z" />
    <glyph glyph-name="uni0922094D0930094D" horiz-adv-x="435" 
d="M-40 671h514v-117h-91v-182h-174q-23 0 -30 -8.5t-7 -28.5v-163q0 -25 10 -37t40 -12t40 11t10 36v3q0 33 -37 33l-25 -3v123q20 3 46 3q76 0 113 -35t37 -117v-15q0 -101 -59 -138l58 -128h-143l-37 99h-1l-37 -99h-143l58 126q-68 39 -68 145v173q0 85 41 122t134 37
h36v55h-285v117zM175 -159h126l129 -171h-144z" />
    <glyph glyph-name="uni0923094D0930094D" horiz-adv-x="432" 
d="M216 334q23 0 30.5 9.5t7.5 29.5v181h-76v-181q0 -20 7.5 -29.5t30.5 -9.5zM201 0l320 388v-162q-42 -89 -113 -172l-45 -54h-162zM521 671v-117h-127v-186q0 -163 -178 -163t-178 163v186h-78v117h561z" />
    <glyph glyph-name="uni0924094D0930094D" horiz-adv-x="268" 
d="M308 357q-35 10 -75 10t-57 -15t-17 -47v-63h-134v73q0 88 45.5 134.5t150 46.5t214.5 -50v-165q-82 -114 -152 -197l-74 -84h-173l272 309v48zM488 671v-117h-528v117h528z" />
    <glyph glyph-name="uni0925094D0930094D" horiz-adv-x="405" 
d="M177 301v-5q0 -50 30.5 -72t105 -22t137.5 15v-137l-219 -184h-197l225 184q-105 8 -165 62.5t-60 148.5v131h133q41 0 56.5 14t15.5 47v32q0 19 -6 27.5t-24 8.5t-24 -8.5t-6 -27.5v-34h-133v29q0 166 159.5 166t159.5 -160v-58q0 -157 -177 -157h-11z" />
    <glyph glyph-name="uni0926094D0930094D" horiz-adv-x="438" 
d="M407 -63l129 -171h-144l-111 171h126zM400 0h-140v97l-89 -160h-150l88 158q-71 25 -71 124v117q0 88 43 123.5t138 35.5h32v59h-291v117h518v-117h-87v-186h-172q-25 0 -33 -8.5t-8 -28.5v-107q0 -20 8 -29t33 -9t33 9t8 29v54h140v-278z" />
    <glyph glyph-name="uni0927094D0930094D" horiz-adv-x="282" 
d="M41 507q0 27 6 47h-87v117h289v-117h-58q-10 -13 -10 -47v-20q0 -19 8 -29t31 -10h44v-129h-50q-23 0 -31 -10t-8 -29v-16q0 -29 18 -41t62 -12t78 10v-136l-144 -137h-173l160 142q-70 12 -105.5 53.5t-35.5 102.5v39q0 76 44 102q-38 29 -38 95v25z" />
    <glyph glyph-name="uni0928094D0930094D" horiz-adv-x="417" 
d="M-40 671h565v-117h-565v117zM30 309v19q0 80 40 121.5t129 41.5h326v-247q-5 -21 -49.5 -94.5t-86.5 -124.5l-52 -62h-161l329 399h-145q6 -21 6 -42v-11q0 -81 -39 -122t-128 -41t-129 41.5t-40 121.5zM235 310v5q0 29 -7 47h-29q-22 0 -29 -9.5t-7 -29.5v-13
q0 -20 7 -29.5t29 -9.5t29 9.5t7 29.5z" />
    <glyph glyph-name="uni092A094D0930094D" horiz-adv-x="244" 
d="M177 554v-226q0 -20 12.5 -30t59.5 -10t82 10v-100l-139 -229h-159l146 196q-76 6 -109 44.5t-33 112.5v232h-77v117h334v-117h-117z" />
    <glyph glyph-name="uni092B094D0930094D" horiz-adv-x="482" 
d="M637 554h-237v-60q28 5 69 5q168 0 168 -157v-9h-123v4q0 42 -58 42q-33 0 -56 -5v-374h-140v177h-1l-98 -177h-153l104 187q-70 34 -70 142v225h-82v117h677v-117zM182 554v-219q0 -40 45 -40q19 0 33 4v255h-78z" />
    <glyph glyph-name="uni092C094D0930094D" horiz-adv-x="271" 
d="M-40 671h491v-117h-491v117zM30 251v77q0 90 46 134t156 44q196 0 196 -178v-77q0 -34 -6 -49.5t-8 -23.5t-11.5 -21.5t-12.5 -19t-16.5 -20.5t-16.5 -19l-178 -184h-169l158 165q-138 27 -138 172zM305 322q0 36 -16 52.5t-55.5 16.5t-55.5 -18l127 -94v43zM163 257
q0 -36 16 -52.5t54.5 -16.5t55.5 17l-126 93v-41z" />
    <glyph glyph-name="uni092D094D0930094D" horiz-adv-x="462" 
d="M248 278v57h-39q-23 0 -31 -10t-8 -29v-18q0 -19 8 -29t31 -10t31 10t8 29zM520 324v-150q-7 -25 -34.5 -73.5t-60.5 -87.5l-59 -71h-162zM520 453v-118h-138v-62q0 -72 -42.5 -112.5t-130.5 -40.5q-174 0 -174 153v27q0 153 174 153h39v55q0 20 -6.5 29.5t-29.5 9.5
t-29.5 -9.5t-6.5 -29.5l2 -17h-140q-2 10 -2 22q0 163 176 163t176 -163v-60h132z" />
    <glyph glyph-name="uni092E094D0930094D" horiz-adv-x="429" 
d="M497 671v-117h-131v-86h131v-118h-131v-78q0 -153 -173 -153t-173 153v44q0 152 173 152h39v86h-272v117h537zM497 313v-137q-12 -31 -46 -86.5t-69 -96.5l-52 -62h-160zM232 277v73h-39q-23 0 -31 -10t-8 -29v-34q0 -19 8 -29t31 -10t31 10t8 29z" />
    <glyph glyph-name="uni092F094D0930094D" horiz-adv-x="322" 
d="M143 507q0 33 -7 47h-176v117h412v-117h-99q6 -20 6 -47v-51q0 -116 -112 -122v-9q0 -74 103 -74q51 0 97 12v-124l-160 -184h-174l179 179q-85 9 -133.5 52.5t-48.5 118.5v117h24q52 0 70.5 13t18.5 50v22z" />
    <glyph glyph-name="uni0935094D0930094D" horiz-adv-x="255" 
d="M171 345v-79q0 -23 16.5 -33.5t61 -10.5t73.5 11v-134l-105 -161h-150l123 166q-82 4 -118.5 43.5t-36.5 115.5v83q0 80 40 120t132 40q59 0 94 -7v-116q-30 5 -74 5q-56 0 -56 -43zM301 671v-117h-341v117h341z" />
    <glyph glyph-name="uni0938094D0930094D" horiz-adv-x="448" 
d="M174 485v-69q15 -5 37 -5t28.5 9t6.5 29v66q0 39 -34 39h-252v117h568v-117h-156q11 -15 11 -52v-70h145v-143q-22 -29 -69 -70l-66 -57l-142 25l161 125h-83q-33 -24 -80 -24t-75 7v-95q0 -42 23.5 -60.5t86 -18.5t128.5 10v-126q-61 -10 -142 -10q-123 0 -178 47
t-55 156v287h137z" />
    <glyph glyph-name="uni0915093C094D0930094D" horiz-adv-x="460" 
d="M184 186.5q9 -10.5 32 -10.5t43 8v370h-299v117h673v-117h-238v-54q27 5 69 5q168 0 168 -157v-9h-123v4q0 42 -58 42q-33 0 -56 -5v-380h-137v94h-1l-78 -136h-151l87 141q-73 30 -73 138v111q0 79 37.5 118t118.5 39l29 -3v-118q-5 1 -19.5 1t-23.5 -10.5t-9 -31.5
v-125q0 -21 9 -31.5zM269 -48q75 0 75 -75t-75 -75t-75 75t75 75z" />
    <glyph glyph-name="uni0916093C094D0930094D" horiz-adv-x="579" 
d="M240 507q0 31 -10 47h-270v117h780v-117h-377q6 -16 6 -47v-121q0 -79 -37.5 -119.5t-120.5 -40.5q-15 0 -45 4v-35q0 -36 21.5 -55t80 -19t113.5 23v-130l-106 -113l-181 14v4l119 97q-180 14 -180 177v258h133v-100q24 -2 40 -2q34 0 34 39v119zM404 256v79
q0 82 36 119.5t132 37.5t132 -37.5t36 -119.5v-79q0 -82 -36 -119.5t-132 -37.5t-132 37.5t-36 119.5zM615 256v79q0 20 -9 30t-34 10t-34 -10t-9 -30v-79q0 -20 9 -30t34 -10t34 10t9 30zM562 43q75 0 75 -75t-75 -75t-75 75t75 75z" />
    <glyph glyph-name="uni0917093C094D0930094D" horiz-adv-x="274" 
d="M274 -53q0 75 75 75t75 -75t-75 -75t-75 75zM234 554v-179q0 -84 -45 -125.5t-124 -41.5l-55 3v135q18 -2 34 -2q50 0 50 43v167h-134v117h339v-117h-65zM354 398v-177q-36 -79 -102 -162l-45 -59h-162z" />
    <glyph glyph-name="uni091C093C094D0930094D" horiz-adv-x="416" 
d="M200 315q0 29 -11 47h-99v129h414v-120h-173q9 -17 9 -47v-52q0 -87 -51.5 -130.5t-147.5 -43.5q-47 0 -88 10v126q43 -9 82 -9q65 0 65 52v38zM504 671v-117h-544v117h544zM188 -60v4l316 371v-136q-36 -97 -102 -177l-52 -62h-162zM10 -15q0 75 75 75t75 -75t-75 -75
t-75 75z" />
    <glyph glyph-name="uni0928093C094D0930094D" horiz-adv-x="417" 
d="M488 17q75 0 75 -75t-75 -75t-75 75t75 75zM525 491v-247q-5 -21 -49.5 -94.5t-86.5 -124.5l-52 -62h-161l329 399h-145q6 -21 6 -42v-11q0 -81 -39 -122t-128 -41t-129 41.5t-40 121.5v19q0 80 40 121.5t129 41.5h326zM235 310v5q0 29 -7 47h-29q-22 0 -29 -9.5
t-7 -29.5v-13q0 -20 7 -29.5t29 -9.5t29 9.5t7 29.5zM525 671v-117h-565v117h565z" />
    <glyph glyph-name="uni092B093C094D0930094D" horiz-adv-x="470" 
d="M637 554h-237v-60q28 5 69 5q168 0 168 -157v-9h-123v4q0 42 -58 42q-33 0 -56 -5v-374h-140v177h-1l-98 -177h-153l104 187q-70 34 -70 142v225h-82v117h677v-117zM182 554v-219q0 -40 45 -40q19 0 33 4v255h-78zM209 -41q75 0 75 -75t-75 -75t-75 75t75 75z" />
    <glyph glyph-name="uni092F093C094D0930094D" horiz-adv-x="312" 
d="M377 35q75 0 75 -75t-75 -75t-75 75t75 75zM143 507q0 33 -7 47h-176v117h412v-117h-99q6 -20 6 -47v-51q0 -116 -112 -122v-9q0 -74 103 -74q51 0 97 12v-124l-160 -184h-174l179 179q-85 9 -133.5 52.5t-48.5 118.5v117h24q52 0 70.5 13t18.5 50v22z" />
    <glyph glyph-name="uni0915094D0915" horiz-adv-x="1068" 
d="M172 176.5q9 -10.5 32 -10.5t43 8v380h-287v117h1148v-117h-288v-54q27 5 61 5q81 0 118.5 -39t37.5 -118v-133q0 -80 -35 -118t-117 -38l-21 2v131q27 -4 33.5 5.5t6.5 31.5v114q0 21 -9 31.5t-33 10.5l-42 -5v-380h-137v59q-28 -8 -60 -8q-82 0 -119 36.5t-37 114.5
v141q0 42 -50 42q-10 0 -34 -3v-382h-137v59q-28 -8 -60 -8q-82 0 -119 36.5t-37 114.5v146q0 79 37.5 118t118.5 39l29 -3v-118q-5 1 -19.5 1t-23.5 -10.5t-9 -31.5v-135q0 -21 9 -31.5zM609 176.5q9 -10.5 32 -10.5t43 8v380h-301v-54q20 5 47 5q58 0 97 -21q36 21 96 21
l29 -3v-118q-5 1 -19.5 1t-23.5 -10.5t-9 -31.5v-135q0 -21 9 -31.5z" />
    <glyph glyph-name="uni0915094D0916" horiz-adv-x="1225" 
d="M172 176.5q9 -10.5 32 -10.5t43 8v380h-287v117h1306v-117h-83v-554h-136v105q-18 -6 -52 -6q-89 0 -124 38t-35 119v78q0 83 32.5 122.5t119.5 39.5l59 -5v63h-250q6 -16 6 -47v-121q0 -79 -37.5 -119.5t-120.5 -40.5q-15 0 -45 4v-35q0 -36 21.5 -55t80 -19t113.5 23
v-130q-54 -19 -132 -19q-111 0 -163.5 54t-52.5 144v150q0 23 -10 32.5t-33.5 9.5t-40.5 -5v-380h-137v59q-28 -8 -60 -8q-82 0 -119 36.5t-37 114.5v146q0 79 37.5 118t118.5 39l29 -3v-118q-5 1 -19.5 1t-23.5 -10.5t-9 -31.5v-135q0 -21 9 -31.5zM674 507q0 31 -10 47
h-281v-54q16 5 49 5q166 0 168 -154q22 -2 40 -2q34 0 34 39v119zM1007 375q-46 0 -46 -40v-79q0 -40 46 -40l40 5v149q-17 5 -40 5z" />
    <glyph glyph-name="uni0915094D091A" horiz-adv-x="920" 
d="M172 176.5q9 -10.5 32 -10.5t43 8v380h-287v117h999v-117h-81v-554h-140v61q-32 -8 -73 -8q-86 0 -126.5 40.5t-40.5 125.5v35q0 27 6 49h-37v40q0 23 -10 32.5t-33.5 9.5t-40.5 -5v-380h-137v59q-28 -8 -60 -8q-82 0 -119 36.5t-37 114.5v146q0 79 37.5 118t118.5 39
l29 -3v-118q-5 1 -19.5 1t-23.5 -10.5t-9 -31.5v-135q0 -21 9 -31.5zM738 554h-355v-54q16 5 49 5q116 0 145 -76h125v-120h-53q-11 -14 -11 -56v-29q0 -48 54 -48q25 0 46 7v371z" />
    <glyph glyph-name="uni0915094D091C" horiz-adv-x="1150" 
d="M172 176.5q9 -10.5 32 -10.5t43 8v380h-287v117h1229v-117h-81v-554h-140v371h-81q9 -17 9 -47v-102q0 -87 -51.5 -130.5t-147.5 -43.5q-47 0 -88 10v126q43 -9 82 -9q65 0 65 52v88q0 29 -11 47h-62v129h285v63h-585v-54q16 5 49 5q176 0 176 -157v-86h-141v81
q0 23 -10 32.5t-33.5 9.5t-40.5 -5v-380h-137v59q-28 -8 -60 -8q-82 0 -119 36.5t-37 114.5v146q0 79 37.5 118t118.5 39l29 -3v-118q-5 1 -19.5 1t-23.5 -10.5t-9 -31.5v-135q0 -21 9 -31.5z" />
    <glyph glyph-name="uni0915094D091F" horiz-adv-x="850" 
d="M172 176.5q9 -10.5 32 -10.5t43 8v380h-287v117h929v-117h-90v-190h-129q-30 0 -46.5 -15.5t-16.5 -44.5v-123q0 -34 20.5 -46.5t69 -12.5t116.5 11v-125q-69 -13 -131 -13q-105 0 -160 46.5t-55 136.5v137q0 16 1 24h-1v4q0 23 -10 32.5t-33.5 9.5t-40.5 -5v-380h-137
v59q-28 -8 -60 -8q-82 0 -119 36.5t-37 114.5v146q0 79 37.5 118t118.5 39l29 -3v-118q-5 1 -19.5 1t-23.5 -10.5t-9 -31.5v-135q0 -21 9 -31.5zM383 554v-54q16 5 49 5q79 0 117 -35q42 21 104 21h6v63h-276z" />
    <glyph glyph-name="uni0915094D0923" horiz-adv-x="1113" 
d="M172 176.5q9 -10.5 32 -10.5t43 8v380h-287v117h1193v-117h-82v-554h-140v554h-78v-288q0 -163 -178 -163t-178 163v47q0 42 -58 42q-39 0 -56 -5v-350h-137v59q-28 -8 -60 -8q-82 0 -119 36.5t-37 114.5v146q0 79 37.5 118t118.5 39l29 -3v-118q-5 1 -19.5 1
t-23.5 -10.5t-9 -31.5v-135q0 -21 9 -31.5zM383 554v-86q31 7 60 7t54 -5v84h-114zM713 267v287h-76v-287q0 -20 7.5 -29.5t30.5 -9.5t30.5 9.5t7.5 29.5z" />
    <glyph glyph-name="uni0915094D0924" horiz-adv-x="684" 
d="M432 0h-136v367q-26 4 -44 4q-44 0 -44 -42v-117q0 -24 8.5 -31t35.5 -7v-130q-11 -2 -25 -2q-82 0 -117 40t-35 121v126q0 24 7 44h-62v118h213l63 -5v68h-336v117h764v-117h-292v-66q27 5 61 5q81 0 118.5 -39t37.5 -118v-133q0 -80 -35 -118t-117 -38l-21 2v131
q27 -4 33.5 5.5t6.5 31.5v114q0 21 -9 31.5t-33 10.5l-42 -5v-368z" />
    <glyph glyph-name="uni0915094D0925" horiz-adv-x="1030" 
d="M172 176.5q9 -10.5 32 -10.5t43 8v380h-287v117h485v-117h-62v-105q16 5 49 5q77 0 114 -32h54q41 0 56.5 14t15.5 47v32q0 19 -6 27.5t-24 8.5q-30 0 -30 -39l3 -31h-133q-3 14 -3 32q0 163 159.5 163t159.5 -160v-58q0 -157 -177 -157h-11v-5q0 -50 29.5 -72t98.5 -22
t110 10v459h222v-117h-82v-554h-140v85q-51 -11 -117 -11q-120 0 -191.5 56.5t-72.5 157.5v4q0 23 -10 32.5t-33.5 9.5t-40.5 -5v-329h-137v59q-28 -8 -60 -8q-82 0 -119 36.5t-37 114.5v146q0 79 37.5 118t118.5 39l29 -3v-118q-5 1 -19.5 1t-23.5 -10.5t-9 -31.5v-135
q0 -21 9 -31.5z" />
    <glyph glyph-name="uni0915094D0926" horiz-adv-x="867" 
d="M172 176.5q9 -10.5 32 -10.5t43 8v380h-287v117h947v-117h-87v-186h-172q-25 0 -33 -8.5t-8 -28.5v-109q0 -19 9 -28.5t31 -9.5t42 6v88h140v-278h-140v67q-24 -6 -61 -6q-84 0 -122.5 38.5t-38.5 117.5v126q0 23 -10 32.5t-33.5 9.5t-40.5 -5v-380h-137v59
q-28 -8 -60 -8q-82 0 -119 36.5t-37 114.5v146q0 79 37.5 118t118.5 39l29 -3v-118q-5 1 -19.5 1t-23.5 -10.5t-9 -31.5v-135q0 -21 9 -31.5zM383 554v-54q16 5 49 5q72 0 108 -27q40 17 108 17h32v59h-297z" />
    <glyph glyph-name="uni0915094D092A" horiz-adv-x="905" 
d="M172 176.5q9 -10.5 32 -10.5t43 8v380h-287v117h985v-117h-82v-554h-140v122q-26 -8 -65 -8q-86 0 -123.5 39t-37.5 119v41q0 42 -58 42q-39 0 -56 -5v-350h-137v59q-28 -8 -60 -8q-82 0 -119 36.5t-37 114.5v146q0 79 37.5 118t118.5 39l29 -3v-118q-5 1 -19.5 1
t-23.5 -10.5t-9 -31.5v-135q0 -21 9 -31.5zM383 554v-86q31 7 60 7t54 -5v84h-114zM682 238q18 0 41 7v309h-86v-276q0 -40 45 -40z" />
    <glyph glyph-name="uni0915094D092B" horiz-adv-x="1103" 
d="M172 176.5q9 -10.5 32 -10.5t43 8v380h-287v117h1183v-117h-288v-61q22 8 56 8q162 0 162 -163v-124q0 -79 -38 -117.5t-121 -38.5q-11 0 -17 1v130q22 0 29 8t7 31v105q0 39 -42 39q-18 0 -36 -6v-366h-140v106q-30 -6 -57 -6q-86 0 -123.5 39t-37.5 119v55q0 42 -58 42
q-39 0 -56 -5v-350h-137v59q-28 -8 -60 -8q-82 0 -119 36.5t-37 114.5v146q0 79 37.5 118t118.5 39l29 -3v-118q-5 1 -19.5 1t-23.5 -10.5t-9 -31.5v-135q0 -21 9 -31.5zM383 554v-86q31 7 60 7t54 -5v84h-114zM715 554h-78v-290q0 -40 45 -40q19 0 33 4v326z" />
    <glyph glyph-name="uni0915094D092E" horiz-adv-x="1066" 
d="M172 176.5q9 -10.5 32 -10.5t43 8v380h-287v117h1146v-117h-82v-554h-137v328h-74v-120q0 -153 -173 -153t-173 153v135q0 23 -10 32.5t-33.5 9.5t-40.5 -5v-380h-137v59q-28 -8 -60 -8q-82 0 -119 36.5t-37 114.5v146q0 79 37.5 118t118.5 39l29 -3v-118q-5 1 -19.5 1
t-23.5 -10.5t-9 -31.5v-135q0 -21 9 -31.5zM679 213v115h-39q-23 0 -31 -10t-8 -29v-76q0 -19 8 -29t31 -10t31 10t8 29zM679 446v108h-296v-54q16 5 49 5q110 0 147 -65q27 6 61 6h39zM887 446v108h-74v-108h74z" />
    <glyph glyph-name="uni0915094D092F" horiz-adv-x="964" 
d="M172 176.5q9 -10.5 32 -10.5t43 8v380h-287v117h1044v-117h-82v-554h-140v95q-32 -9 -83 -9q-106 0 -169 48.5t-63 135.5v63q0 23 -10 32.5t-33.5 9.5t-40.5 -5v-370h-137v59q-28 -8 -60 -8q-82 0 -119 36.5t-37 114.5v146q0 79 37.5 118t118.5 39l29 -3v-118
q-5 1 -19.5 1t-23.5 -10.5t-9 -31.5v-135q0 -21 9 -31.5zM580 507q0 28 -7 47h-190v-64q16 5 49 5q110 0 143 -70q5 15 5 34v48zM782 554h-72q6 -20 6 -47v-77q0 -116 -112 -122v-18q0 -74 103 -74q44 0 75 8v330z" />
    <glyph glyph-name="uni0915094D0932" horiz-adv-x="1085" 
d="M172 176.5q9 -10.5 32 -10.5t43 8v380h-287v117h1165v-117h-82v-554h-140v360q-15 5 -35 5q-43 0 -43 -39v-114h-140v114q0 19 -8 29t-31 10t-31 -10t-8 -29v-138q0 -29 14.5 -44t51.5 -15t64 3v-128q-32 -4 -67 -4q-106 0 -154.5 44.5t-48.5 137.5v161q0 23 -10 32.5
t-33.5 9.5t-40.5 -5v-380h-137v59q-28 -8 -60 -8q-82 0 -119 36.5t-37 114.5v146q0 79 37.5 118t118.5 39l29 -3v-118q-5 1 -19.5 1t-23.5 -10.5t-9 -31.5v-135q0 -21 9 -31.5zM903 554h-520v-54q16 5 49 5q74 0 113 -31q40 20 96 20q83 0 111 -55q36 54 103 54l48 -5v66z
" />
    <glyph glyph-name="uni0915094D0935" horiz-adv-x="887" 
d="M172 176.5q9 -10.5 32 -10.5t43 8v380h-287v117h967v-117h-82v-554h-140v59q-35 -7 -66 -7q-89 0 -126.5 39t-37.5 120v132q0 42 -58 42q-10 0 -34 -3v-382h-137v59q-28 -8 -60 -8q-82 0 -119 36.5t-37 114.5v146q0 79 37.5 118t118.5 39l29 -3v-118q-5 1 -19.5 1
t-23.5 -10.5t-9 -31.5v-135q0 -21 9 -31.5zM383 554v-54q20 5 47 5q66 0 104 -23q39 24 105 24q31 0 66 -7v55h-322zM664 388q-53 0 -53 -43v-131q0 -44 54 -44q28 0 47 7v206q-25 5 -48 5z" />
    <glyph glyph-name="uni0915094D0936" horiz-adv-x="1068" 
d="M886 671h222v-117h-82v-554h-140v671zM172 176.5q9 -10.5 32 -10.5t43 8v380h-287v117h461v-117h-38v-84q16 5 49 5q164 0 175 -136q20 -5 41 -5t29 9.5t8 28.5v136q0 19 -8 29t-31 10q-39 0 -39 -42l1 -8h-140q-1 5 -1 16q0 163 179 163t179 -163v-146q0 -156 -163 -156
q-29 0 -55 7v-22q0 -68 81 -68q59 0 121 26v-130q-63 -22 -154 -22t-139.5 52.5t-48.5 136.5v122q0 23 -10 32.5t-33.5 9.5t-40.5 -5v-350h-137v59q-28 -8 -60 -8q-82 0 -119 36.5t-37 114.5v146q0 79 37.5 118t118.5 39l29 -3v-118q-5 1 -19.5 1t-23.5 -10.5t-9 -31.5v-135
q0 -21 9 -31.5z" />
    <glyph glyph-name="uni0915094D0938" horiz-adv-x="1073" 
d="M172 176.5q9 -10.5 32 -10.5t43 8v380h-287v117h1153v-117h-82v-554h-140v261h-115q-38 -39 -118 -39q-28 0 -51 5v-48q0 -58 92 -58q59 0 121 26v-130q-63 -22 -155 -22t-145 49t-53 130v169q0 23 -10 32.5t-33.5 9.5t-40.5 -5v-380h-137v59q-28 -8 -60 -8
q-82 0 -119 36.5t-37 114.5v146q0 79 37.5 118t118.5 39l29 -3v-118q-5 1 -19.5 1t-23.5 -10.5t-9 -31.5v-135q0 -21 9 -31.5zM676 507q0 31 -10 47h-283v-54q16 5 49 5q175 0 175 -156q16 -4 35 -4q34 0 34 39v123zM891 381v173h-84q6 -16 6 -47v-126h78z" />
    <glyph glyph-name="uni0916094D0916" horiz-adv-x="1373" 
d="M240 507q0 31 -10 47h-270v117h1453v-117h-82v-554h-136v105q-18 -6 -52 -6q-89 0 -124 38t-35 119v78q0 83 32.5 122.5t119.5 39.5l59 -5v63h-250q6 -16 6 -47v-121q0 -79 -37.5 -119.5t-120.5 -40.5q-15 0 -45 4v-35q0 -36 21.5 -55t80 -19t113.5 23v-130
q-54 -19 -132 -19q-154 0 -200 108q-34 -4 -59 -4q-96 0 -132 37.5t-36 119.5v79q0 82 36 119.5t130 37.5t134 -34.5t44 -106.5q22 -2 40 -2q34 0 34 39v119q0 31 -10 47h-449q6 -16 6 -47v-121q0 -79 -37.5 -119.5t-120.5 -40.5q-15 0 -45 4v-35q0 -36 21.5 -55t80 -19
t113.5 23v-130q-54 -19 -132 -19q-111 0 -163.5 54t-52.5 144v258h133v-100q24 -2 40 -2q34 0 34 39v119zM529 335v-79q0 -20 9 -30t34 -10t34 10t9 30v79q0 20 -9 30t-34 10t-34 -10t-9 -30zM1155 375q-46 0 -46 -40v-79q0 -40 46 -40l40 5v149q-17 5 -40 5z" />
    <glyph glyph-name="uni0916094D0924" horiz-adv-x="1033" 
d="M240 507q0 31 -10 47h-270v117h1113v-117h-82v-554h-140v362q-27 5 -50 5q-56 0 -56 -49v-150q0 -23 11 -30.5t38 -7.5v-132h-30q-73 0 -105.5 25t-40.5 79q-21 -3 -46 -3q-96 0 -132 37.5t-36 119.5v79q0 82 36 119.5t132 37.5q69 0 107 -20q40 24 90 24t82 -6v64h-488
q6 -16 6 -47v-121q0 -79 -37.5 -119.5t-120.5 -40.5q-15 0 -45 4v-35q0 -36 21.5 -55t80 -19t113.5 23v-130q-54 -19 -132 -19q-111 0 -163.5 54t-52.5 144v258h133v-100q24 -2 40 -2q34 0 34 39v119zM529 335v-79q0 -20 9 -30t34 -10t34 10t9 30v79q0 20 -9 30t-34 10
t-34 -10t-9 -30z" />
    <glyph glyph-name="uni0916094D092E" horiz-adv-x="1205" 
d="M240 507q0 31 -10 47h-270v117h1285v-117h-82v-554h-137v328h-74v-120q0 -153 -173 -153q-96 0 -136 51q-28 -7 -71 -7q-96 0 -132 37.5t-36 119.5v79q0 82 36 119.5t138 37.5t138 -53q25 7 63 7h39v108h-455q6 -16 6 -47v-121q0 -79 -37.5 -119.5t-120.5 -40.5
q-15 0 -45 4v-35q0 -36 21.5 -55t80 -19t113.5 23v-130q-54 -19 -132 -19q-111 0 -163.5 54t-52.5 144v258h133v-100q24 -2 40 -2q34 0 34 39v119zM529 335v-79q0 -20 9 -30t34 -10t34 10t9 30v79q0 20 -9 30t-34 10t-34 -10t-9 -30zM818 213v115h-39q-23 0 -31 -10t-8 -29
v-76q0 -19 8 -29t31 -10t31 10t8 29zM1026 446v108h-74v-108h74z" />
    <glyph glyph-name="uni0916094D092F" horiz-adv-x="1112" 
d="M240 507q0 31 -10 47h-270v117h1192v-117h-82v-554h-140v95q-31 -9 -83 -9q-105 0 -167 47q-36 -34 -120 -34t-120 37.5t-36 119.5v79q0 82 36 119.5t132 37.5q116 0 140 -81q16 13 16 48v48q0 28 -7 47h-358q6 -16 6 -47v-121q0 -79 -37.5 -119.5t-120.5 -40.5
q-15 0 -45 4v-35q0 -36 21.5 -55t80 -19t113.5 23v-130q-54 -19 -132 -19q-111 0 -163.5 54t-52.5 144v258h133v-100q24 -2 40 -2q34 0 34 39v119zM615 256v79q0 20 -9 30t-34 10t-34 -10t-9 -30v-79q0 -20 9 -30t34 -10t34 10t9 30zM930 554h-72q6 -20 6 -47v-77
q0 -116 -112 -122v-18q0 -74 103 -74q44 0 75 8v330z" />
    <glyph glyph-name="uni0916094D0935" horiz-adv-x="1027" 
d="M240 507q0 31 -10 47h-270v117h1107v-117h-82v-554h-140v59q-35 -7 -66 -7q-104 0 -141 57q-30 -10 -66 -10q-96 0 -132 37.5t-36 119.5v79q0 82 36 119.5t132 37.5q56 0 90 -18q40 32 117 32q31 0 66 -7v55h-482q6 -16 6 -47v-121q0 -79 -37.5 -119.5t-120.5 -40.5
q-15 0 -45 4v-35q0 -36 21.5 -55t80 -19t113.5 23v-130q-54 -19 -132 -19q-111 0 -163.5 54t-52.5 144v258h133v-100q24 -2 40 -2q34 0 34 39v119zM529 335v-79q0 -20 9 -30t34 -10t34 10t9 30v79q0 20 -9 30t-34 10t-34 -10t-9 -30zM804 388q-53 0 -53 -43v-131
q0 -44 54 -44q28 0 47 7v206q-25 5 -48 5z" />
    <glyph glyph-name="uni0916094D0936" horiz-adv-x="1207" 
d="M1025 671h222v-117h-82v-554h-140v671zM801 231q-29 0 -55 7v-42q0 -68 81 -68q59 0 121 26v-130q-63 -22 -144 -22q-136 0 -175 101q-21 -4 -57 -4q-96 0 -132 37.5t-36 119.5v49q0 82 36 119.5t124 37.5t126 -26.5t47 -81.5h48q23 0 31 9.5t8 28.5v116q0 19 -8 29
t-31 10q-39 0 -39 -42l1 -14h-140q-1 7 -1 22q0 163 179 163t179 -163v-126q0 -156 -163 -156zM529 305v-49q0 -20 9 -30t34 -10t34 10t9 30v49q0 20 -9 30t-34 10t-34 -10t-9 -30zM240 507q0 31 -10 47h-270v117h584v-117h-181q6 -16 6 -47v-121q0 -79 -37.5 -119.5
t-120.5 -40.5q-15 0 -45 4v-35q0 -36 21.5 -55t80 -19t113.5 23v-130q-54 -19 -132 -19q-111 0 -163.5 54t-52.5 144v258h133v-100q24 -2 40 -2q34 0 34 39v119z" />
    <glyph glyph-name="uni0917094D0917" horiz-adv-x="752" 
d="M791 671v-117h-81v-554h-140v554h-78v-219q0 -84 -45 -125.5t-124 -41.5l-55 3v135q18 -2 34 -2q50 0 50 43v207h-118v-219q0 -84 -45 -125.5t-124 -41.5l-55 3v135q18 -2 34 -2q50 0 50 43v207h-134v117h831z" />
    <glyph glyph-name="uni0917094D0918" horiz-adv-x="776" 
d="M312 507q0 27 6 47h-84v-219q0 -84 -45 -125.5t-124 -41.5l-55 3v135q18 -2 34 -2q50 0 50 43v207h-134v117h855v-117h-81v-554h-140v67q-46 -10 -96 -10q-95 0 -143.5 44t-48.5 116v51q0 76 44 102q-38 29 -38 95v42zM594 554h-132q-10 -13 -10 -47v-37q0 -19 8 -29
t31 -10h44v-129h-50q-23 0 -31 -10t-8 -29v-28q0 -29 18 -41t57 -12t73 10v362z" />
    <glyph glyph-name="uni0917094D091C" horiz-adv-x="834" 
d="M440 315q0 29 -11 47h-99v129h322v63h-418v-219q0 -84 -45 -125.5t-124 -41.5l-55 3v135q18 -2 34 -2q50 0 50 43v207h-134v117h913v-117h-81v-554h-140v371h-81q9 -17 9 -47v-102q0 -87 -51.5 -130.5t-147.5 -43.5q-47 0 -88 10v126q43 -9 82 -9q65 0 65 52v88z" />
    <glyph glyph-name="uni0917094D0923" horiz-adv-x="934" 
d="M974 671v-117h-82v-554h-140v554h-78v-288q0 -163 -178 -163t-178 163v288h-84v-219q0 -84 -45 -125.5t-124 -41.5l-55 3v135q18 -2 34 -2q50 0 50 43v207h-134v117h1014zM534 267v287h-76v-287q0 -20 7.5 -29.5t30.5 -9.5t30.5 9.5t7.5 29.5z" />
    <glyph glyph-name="uni0917094D0926" horiz-adv-x="706" 
d="M659 368h-172q-25 0 -33 -8.5t-8 -28.5v-109q0 -19 9 -28.5t31 -9.5t42 6v88h140v-278h-140v67q-24 -6 -61 -6q-83 0 -122 38.5t-39 117.5v119q0 88 43 123.5t138 35.5h32v59h-285v-219q0 -84 -45 -125.5t-124 -41.5l-55 3v135q18 -2 34 -2q50 0 50 43v207h-134v117h786
v-117h-87v-186z" />
    <glyph glyph-name="uni0917094D0927" horiz-adv-x="776" 
d="M312 507q0 25 11 47h-89v-219q0 -84 -45 -125.5t-124 -41.5l-55 3v135q18 -2 34 -2q50 0 50 43v207h-134v117h564v-117h-56q-16 -13 -16 -47v-37q0 -19 8 -29t31 -10h44v-129h-50q-23 0 -31 -10t-8 -29v-28q0 -53 74 -53q34 0 74 10v479h222v-117h-82v-554h-140v67
q-40 -10 -94 -10q-96 0 -145 42.5t-49 117.5v51q0 76 44 102q-38 29 -38 95v42z" />
    <glyph glyph-name="uni0917094D092C" horiz-adv-x="736" 
d="M776 671v-117h-82v-554h-133v61q-27 -8 -72 -8q-97 0 -145 37.5t-48 130.5v117q0 93 45.5 130.5t141.5 37.5q45 0 78 -11v59h-327v-219q0 -84 -45 -125.5t-124 -41.5l-55 3v135q18 -2 34 -2q50 0 50 43v207h-134v117h816zM561 380q-31 11 -63.5 11t-50.5 -13l114 -113
v115zM429 227q0 -59 70 -59q22 0 56 4l-126 125v-70z" />
    <glyph glyph-name="uni0917094D092D" horiz-adv-x="913" 
d="M513 434v74q0 20 -6.5 29.5t-29.5 9.5t-29.5 -9.5t-6.5 -29.5l4 -32h-140q-4 22 -4 37q0 163 176 163t176 -163v-79h78v237h222v-117h-82v-554h-140v316h-84v-109q0 -153 -173 -153t-173 153v75q0 152 173 152h39zM513 212v104h-39q-23 0 -31 -10t-8 -29v-65q0 -19 8 -29
t31 -10t31 10t8 29zM234 554v-219q0 -84 -45 -125.5t-124 -41.5l-55 3v135q18 -2 34 -2q50 0 50 43v207h-134v117h302v-117h-28z" />
    <glyph glyph-name="uni0917094D092E" horiz-adv-x="880" 
d="M920 671v-117h-82v-554h-137v328h-74v-120q0 -153 -173 -153t-173 153v86q0 152 173 152h39v108h-259v-219q0 -84 -45 -125.5t-124 -41.5l-55 3v135q18 -2 34 -2q50 0 50 43v207h-134v117h960zM493 213v115h-39q-23 0 -31 -10t-8 -29v-76q0 -19 8 -29t31 -10t31 10t8 29z
M701 446v108h-74v-108h74z" />
    <glyph glyph-name="uni0917094D092F" horiz-adv-x="799" 
d="M415 507q0 33 -7 47h-174v-219q0 -84 -45 -125.5t-124 -41.5l-55 3v135q18 -2 34 -2q50 0 50 43v207h-134v117h879v-117h-82v-554h-140v95q-31 -9 -83 -9q-106 0 -169 48.5t-63 135.5v126h24q52 0 70.5 13t18.5 50v48zM617 554h-72q6 -20 6 -47v-77q0 -116 -112 -122v-18
q0 -74 103 -74q44 0 75 8v330z" />
    <glyph glyph-name="uni0917094D0932" horiz-adv-x="914" 
d="M954 671v-117h-82v-554h-140v360q-15 5 -35 5q-43 0 -43 -39v-114h-140v114q0 19 -8 29t-31 10t-31 -10t-8 -29v-138q0 -29 14.5 -44t51.5 -15t64 3v-128q-32 -4 -67 -4q-106 0 -154.5 44.5t-48.5 137.5v149q0 78 45 120.5t129 42.5q45 0 72.5 -16.5t38.5 -38.5
q36 54 103 54l48 -5v66h-498v-219q0 -84 -45 -125.5t-124 -41.5l-55 3v135q18 -2 34 -2q50 0 50 43v207h-134v117h994z" />
    <glyph glyph-name="uni0917094D0935" horiz-adv-x="708" 
d="M748 671v-117h-82v-554h-140v59q-35 -7 -66 -7q-89 0 -126.5 39t-37.5 120v135q0 80 38.5 120t125.5 40q31 0 66 -7v55h-292v-219q0 -84 -45 -125.5t-124 -41.5l-55 3v135q18 -2 34 -2q50 0 50 43v207h-134v117h788zM485 388q-53 0 -53 -43v-131q0 -44 54 -44q28 0 47 7
v206q-25 5 -48 5z" />
    <glyph glyph-name="uni0917094D0938" horiz-adv-x="908" 
d="M511 507q0 31 -10 47h-267v-219q0 -84 -45 -125.5t-124 -41.5l-55 3v135q18 -2 34 -2q50 0 50 43v207h-134v117h988v-117h-82v-554h-140v261h-115q-37 -39 -118 -39q-28 0 -51 5v-48q0 -58 92 -58q59 0 121 26v-130q-63 -22 -155 -22t-145 49t-53 130v277h140v-102
q16 -4 34 -4q35 0 35 39v123zM726 381v173h-84q6 -16 6 -47v-126h78z" />
    <glyph glyph-name="uni0918094D092E" horiz-adv-x="937" 
d="M41 507q0 27 6 47h-87v117h1017v-117h-82v-554h-137v328h-74v-120q0 -153 -173 -153q-72 0 -116 28q-80 -26 -148 -26q-108 0 -160 43.5t-52 116.5v51q0 76 44 102q-38 29 -38 95v42zM550 213v115h-39q-23 0 -31 -10t-8 -29v-76q0 -19 8 -29t31 -10t31 10t8 29zM550 446
v108h-359q-10 -13 -10 -47v-37q0 -19 8 -29t31 -10h44v-129h-50q-23 0 -31 -10t-8 -29v-28q0 -30 19 -41.5t58.5 -11.5t86.5 9q-1 6 -1 17v86q0 152 173 152h39zM758 446v108h-74v-108h74z" />
    <glyph glyph-name="uni0918094D092F" horiz-adv-x="835" 
d="M41 507q0 27 6 47h-87v117h915v-117h-82v-554h-140v95q-31 -9 -90 -9t-107 19q-36 -20 -94 -34t-115 -14q-108 0 -160 43.5t-52 116.5v51q0 76 44 102q-38 29 -38 95v42zM451 507q0 33 -7 47h-253q-10 -13 -10 -47v-37q0 -19 8 -29t31 -10h44v-129h-50q-23 0 -31 -10
t-8 -29v-28q0 -30 19 -41.5t63.5 -11.5t95.5 14q-15 33 -15 74v126h24q52 0 70.5 13t18.5 50v48zM653 554h-72q6 -20 6 -47v-77q0 -116 -112 -122v-18q0 -74 103 -74q44 0 75 8v330z" />
    <glyph glyph-name="uni091A094D091A" horiz-adv-x="739" 
d="M67 316q0 27 6 49h-60v126h232v-120h-27q-11 -14 -11 -56v-91q0 -48 68 -48q27 0 44 4q-2 24 -2 39v97l6 55h-30v120h228v-120h-53q-11 -14 -11 -56v-91q0 -48 54 -48q25 0 46 7v371h-597v117h818v-117h-81v-554h-140v61q-32 -8 -83 -8t-90 21q-52 -21 -132.5 -21
t-132.5 42t-52 124v97z" />
    <glyph glyph-name="uni091A094D091B" horiz-adv-x="851" 
d="M337 507q0 29 11 47h-388v117h931v-117h-133v-75q54 -28 54 -132v-172q0 -95 -52.5 -136.5t-185.5 -41.5q-168 0 -216 68q-41 -12 -98 -12q-89 0 -141 42t-52 124v97q0 27 6 49h-60v126h258v-120h-53q-11 -14 -11 -56v-91q0 -48 68 -48q31 0 57 6v1q0 64 44 91
q-39 26 -39 94v139zM661.5 371.5q-14.5 14.5 -46 14.5t-51.5 -9v114q26 10 64 10v53h-140q-11 -13 -11 -47v-133q0 -19 8 -29t31 -10h77v-122h-72q-27 0 -37.5 -8t-10.5 -34v-3q0 -29 18 -37.5t82 -8.5t83.5 13.5t19.5 46.5v140q0 35 -14.5 49.5z" />
    <glyph glyph-name="uni091A094D092E" horiz-adv-x="916" 
d="M67 316q0 27 6 49h-60v126h258v-120h-53q-11 -14 -11 -56v-91q0 -48 68 -48q23 0 44 3q-2 20 -2 29v86q0 152 173 152h39v108h-569v117h996v-117h-82v-554h-137v328h-74v-120q0 -153 -173 -153q-62 0 -102 20q-53 -22 -135 -22t-134 42t-52 124v97zM529 213v115h-39
q-23 0 -31 -10t-8 -29v-76q0 -19 8 -29t31 -10t31 10t8 29zM737 446v108h-74v-108h74z" />
    <glyph glyph-name="uni091A094D092F" horiz-adv-x="834" 
d="M450 507q0 28 -7 47h-483v117h914v-117h-82v-554h-140v95q-32 -9 -91 -9t-111 20q-77 -53 -175 -53t-153 41.5t-55 124.5v97q0 27 6 49h-60v126h258v-120h-53q-11 -14 -11 -56v-91q0 -48 71 -48q36 0 77 12q-18 36 -18 82v126h24q52 0 70.5 13t18.5 50v48zM652 554h-72
q6 -20 6 -47v-77q0 -116 -112 -122v-18q0 -74 103 -74q44 0 75 8v330z" />
    <glyph glyph-name="uni091B094D092F" horiz-adv-x="1082" 
d="M1122 671v-117h-82v-554h-140v36q-48 -10 -102 -10q-103 0 -158 49t-55 135v93h79q20 0 27 6.5t7 23.5v4q0 17 -7 23.5t-27 6.5h-145q1 -6 1 -20v-172q0 -95 -52.5 -136.5t-184 -41.5t-187.5 38.5t-56 124.5v23q0 64 44 91q-39 26 -39 94v130q0 33 16 56h-101v117h1162z
M368.5 371.5q-15.5 14.5 -46 14.5t-50.5 -9v114q34 10 72.5 10t65.5 -7h249q92 0 133.5 -33.5t41.5 -109.5v-26q0 -115 -112 -115v-4q0 -25 19 -37.5t67.5 -12.5t91.5 10v388h-664q-33 0 -42 -14t-9 -45v-121q0 -19 8 -29t31 -10h77v-122h-72q-27 0 -37.5 -8t-10.5 -34v-2
q0 -29 18 -38t82 -9t83.5 13.5t19.5 46.5v140q0 35 -15.5 49.5z" />
    <glyph glyph-name="uni091B094D0935" horiz-adv-x="555" 
d="M594 554h-133v-75q54 -28 54 -132v-172q0 -92 -47 -132v-323h-141v47q-37 -14 -80 -14q-176 0 -176 159v33q0 54 38 80q-74 37 -74 135v23q0 64 44 91q-39 26 -39 94v130q0 33 16 56h-96v117h634v-117zM364.5 371.5q-14.5 14.5 -47 14.5t-50.5 -9v114q24 10 64 10v53
h-100q-33 0 -42 -14t-9 -45v-121q0 -19 8 -29t31 -10h77v-122h-72q-27 0 -37.5 -8t-10.5 -34v-2q0 -29 18 -38t82 -9t83.5 13.5t19.5 46.5v140q0 35 -14.5 49.5zM277 -3h-11q-33 0 -47.5 -12.5t-14.5 -39.5v-27q0 -27 14.5 -38.5t49 -11.5t60.5 13v118q-32 -2 -51 -2z" />
    <glyph glyph-name="uni091C094D0915" horiz-adv-x="1022" 
d="M564 176.5q9 -10.5 32 -10.5t43 8v380h-679v117h1103v-117h-288v-54q27 5 61 5q81 0 118.5 -39t37.5 -118v-133q0 -80 -35 -118t-117 -38l-21 2v131q27 -4 33.5 5.5t6.5 31.5v114q0 21 -9 31.5t-33 10.5l-42 -5v-380h-137v59q-28 -8 -60 -8q-82 0 -119 36.5t-37 114.5
v146q0 16 1 23h-92q9 -17 9 -47v-102q0 -87 -51.5 -130.5t-147.5 -43.5q-47 0 -88 10v126q43 -9 82 -9q65 0 65 52v88q0 29 -11 47h-99v129h407q34 14 81 14l29 -3v-118q-5 1 -19.5 1t-23.5 -10.5t-9 -31.5v-135q0 -21 9 -31.5z" />
    <glyph glyph-name="uni091C094D091C" horiz-adv-x="931" 
d="M200 315q0 29 -11 47h-99v129h659v63h-789v117h1011v-117h-82v-554h-140v371h-81q9 -17 9 -47v-102q0 -87 -51.5 -130.5t-147.5 -43.5q-47 0 -88 10v126q43 -9 82 -9q65 0 65 52v88q0 32 -11 56h-195q9 -17 9 -47v-102q0 -87 -51.5 -130.5t-147.5 -43.5q-47 0 -88 10v126
q43 -9 82 -9q65 0 65 52v88z" />
    <glyph glyph-name="uni091C094D091D" horiz-adv-x="1012" 
d="M200 315q0 29 -11 47h-99v129h391q36 13 92 13h39v50h-652v117h1091v-117h-81v-554h-140v220h-78q13 -20 13 -51v-25q0 -82 -39.5 -115.5t-115.5 -33.5l-70 6v-82h-138v250h138v-49q21 -4 45 -4t33.5 9.5t9.5 29.5v15q0 21 -9.5 31t-34.5 10h-11q-84 0 -126.5 33
t-42.5 108v19h-73q9 -17 9 -47v-102q0 -87 -51.5 -130.5t-147.5 -43.5q-47 0 -88 10v126q43 -9 82 -9q65 0 65 52v88zM830 328v226h-78v-170h-179q-16 0 -22.5 -6t-6.5 -20v-2q0 -15 6 -21.5t23 -6.5h257z" />
    <glyph glyph-name="uni091C094D091F" horiz-adv-x="816" 
d="M200 315q0 29 -11 47h-99v129h526v63h-656v117h886v-117h-90v-190h-129q-30 0 -46.5 -15.5t-16.5 -44.5v-123q0 -34 20.5 -46.5t69 -12.5t116.5 11v-125q-69 -13 -131 -13q-105 0 -160 46.5t-55 136.5v137q0 31 6 56h-99q9 -17 9 -47v-102q0 -87 -51.5 -130.5
t-147.5 -43.5q-47 0 -88 10v126q43 -9 82 -9q65 0 65 52v88z" />
    <glyph glyph-name="uni091C094D0921" horiz-adv-x="794" 
d="M200 315q0 29 -11 47h-99v129h385q36 13 92 13h34v50h-641v117h872v-117h-91v-170h-174q-29 0 -29 -31v-10q0 -31 29 -31h25q92 0 135.5 -36t43.5 -113v-7q0 -85 -52.5 -126t-161.5 -41q-67 0 -143 17v127q83 -17 132 -17t67 8.5t18 34.5q0 36 -39 36h-25
q-84 0 -126.5 33t-42.5 108v35h-67q9 -17 9 -47v-102q0 -87 -51.5 -130.5t-147.5 -43.5q-47 0 -88 10v126q43 -9 82 -9q65 0 65 52v88z" />
    <glyph glyph-name="uni091C094D0924" horiz-adv-x="852" 
d="M546 491q27 5 59.5 5t64.5 -6v64h-710v117h932v-117h-82v-554h-140v362q-27 5 -50 5q-56 0 -56 -49v-150q0 -23 11 -30.5t38 -7.5v-132h-30q-89 0 -124 37.5t-35 118.5v169q0 28 4 48h-97q9 -17 9 -47v-102q0 -87 -51.5 -130.5t-147.5 -43.5q-47 0 -88 10v126
q43 -9 82 -9q65 0 65 52v88q0 29 -11 47h-99v129h456z" />
    <glyph glyph-name="uni091C094D0926" horiz-adv-x="820" 
d="M200 319q0 29 -11 47h-99v129h543v59h-673v117h900v-117h-87v-186h-172q-25 0 -33 -8.5t-8 -28.5v-109q0 -19 9 -28.5t31 -9.5t42 6v88h140v-278h-140v67q-24 -6 -61 -6q-83 0 -122 38.5t-39 117.5v119q0 15 2 39h-91q9 -17 9 -47v-106q0 -87 -51.5 -130.5t-147.5 -43.5
q-47 0 -88 10v126q43 -9 82 -9q65 0 65 52v92z" />
    <glyph glyph-name="uni091C094D092C" horiz-adv-x="865" 
d="M200 315q0 29 -11 47h-99v129h419q37 15 92.5 15t88.5 -11v59h-730v117h945v-117h-82v-554h-133v61q-27 -8 -72 -8q-97 0 -145 37.5t-48 130.5v117q0 13 2 33h-96q9 -17 9 -47v-102q0 -87 -51.5 -130.5t-147.5 -43.5q-47 0 -88 10v126q43 -9 82 -9q65 0 65 52v88z
M690 380q-31 11 -63.5 11t-50.5 -13l114 -113v115zM558 227q0 -59 70 -59q22 0 56 4l-126 125v-70z" />
    <glyph glyph-name="uni091C094D092E" horiz-adv-x="1009" 
d="M200 315q0 29 -11 47h-99v129h284q112 0 151 -50q28 5 58 5h39v108h-662v117h1089v-117h-82v-554h-137v328h-74v-120q0 -153 -173 -153t-173 153v86q0 36 10 63q-15 14 -74 14h-15q9 -17 9 -47v-102q0 -87 -51.5 -130.5t-147.5 -43.5q-47 0 -88 10v126q43 -9 82 -9
q65 0 65 52v88zM622 213v115h-39q-23 0 -31 -10t-8 -29v-76q0 -19 8 -29t31 -10t31 10t8 29zM830 446v108h-74v-108h74z" />
    <glyph glyph-name="uni091C094D092F" horiz-adv-x="917" 
d="M533 507q0 33 -7 47h-566v117h997v-117h-82v-554h-140v95q-31 -9 -83 -9q-106 0 -169 48.5t-63 135.5v58q0 25 -18.5 34t-65.5 9h-5q9 -17 9 -47v-102q0 -87 -51.5 -130.5t-147.5 -43.5q-47 0 -88 10v126q43 -9 82 -9q65 0 65 52v88q0 29 -11 47h-99v129h274
q132 0 162 -69q7 13 7 37v48zM735 554h-72q6 -20 6 -47v-77q0 -116 -112 -122v-18q0 -74 103 -74q44 0 75 8v330z" />
    <glyph glyph-name="uni091C094D0935" horiz-adv-x="836" 
d="M200 315q0 29 -11 47h-99v129h410q35 15 77 15t77 -7v55h-694v117h916v-117h-82v-554h-140v59q-35 -7 -66 -7q-89 0 -126.5 39t-37.5 120v135q0 17 1 25h-94q9 -17 9 -47v-102q0 -87 -51.5 -130.5t-147.5 -43.5q-47 0 -88 10v126q43 -9 82 -9q65 0 65 52v88zM613 388
q-53 0 -53 -43v-131q0 -44 54 -44q28 0 47 7v206q-25 5 -48 5z" />
    </font>
</defs>
</svg>
